<svg width="49" height="36" viewBox="0 0 49 36" fill="none" xmlns="http://www.w3.org/2000/svg">
<path d="M1.50732 14.7268L16.6763 1.97449L31.6581 14.7268V33.8552H1.50732V14.7268Z" fill="#5B5FD4"/>
<path fill-rule="evenodd" clip-rule="evenodd" d="M16.6826 0L33.1658 14.0303V35.3628H0V14.0247L16.6826 0ZM3.01507 15.429V32.3477H30.1507V15.4234L16.6705 3.94913L3.01507 15.429Z" fill="#0F0F24"/>
<path d="M16.5833 14.7268L31.7523 1.97449L46.734 14.7268V33.8552H16.5833V14.7268Z" fill="#969AFC"/>
<path fill-rule="evenodd" clip-rule="evenodd" d="M31.7578 0L48.241 14.0303V35.3628H15.0752V14.0247L31.7578 0ZM18.0903 15.429V32.3477H45.2259V15.4234L31.7457 3.94913L18.0903 15.429Z" fill="#0F0F24"/>
<path fill-rule="evenodd" clip-rule="evenodd" d="M16.5833 33.8551H31.6586V14.7267L24.1678 8.35052L16.5833 14.7267V33.8551Z" fill="#69DDEA"/>
<path fill-rule="evenodd" clip-rule="evenodd" d="M24.1733 6.37601L33.1656 14.0302V35.3627H15.0752V14.0246L24.1733 6.37601ZM18.0903 15.4288V32.3476H30.1506V15.4232L24.1612 10.3251L18.0903 15.4288Z" fill="#0F0F24"/>
</svg>
