<svg width="619" height="448" viewBox="0 0 619 448" fill="none" xmlns="http://www.w3.org/2000/svg">
<path d="M447.923 95.7917C444.531 95.7886 441.24 96.9573 438.61 99.1003C432.269 84.0479 414.926 76.9863 399.874 83.3274C388.912 87.9457 381.784 98.6817 381.781 110.576H462.708C462.708 102.411 456.088 95.7917 447.923 95.7917Z" fill="#DDDDDD"/>
<path d="M301.777 293.905H174.643V444.746H301.777V293.905Z" fill="#5B5FD4"/>
<path d="M296.072 370.104H282.065V376.569H296.072V370.104Z" fill="#2C2E6F"/>
<path d="M188.65 348.905H174.643V355.37H188.65V348.905Z" fill="#2C2E6F"/>
<path d="M237.865 413.76H223.859V420.225H237.865V413.76Z" fill="#2C2E6F"/>
<path d="M264.593 437.882H250.586V444.347H264.593V437.882Z" fill="#2C2E6F"/>
<path d="M288.29 362.083H274.282V368.548H288.29V362.083Z" fill="#2C2E6F"/>
<path d="M301.777 293.905H174.643V329.68H301.777V293.905Z" fill="#2C2E6F" stroke="#2C2E6F" stroke-width="6" stroke-linecap="round" stroke-linejoin="round"/>
<path d="M301.777 447.081H174.643C173.354 447.081 172.309 446.036 172.309 444.746V293.904C172.309 292.615 173.354 291.57 174.643 291.57H301.777C303.066 291.57 304.111 292.615 304.111 293.904V444.746C304.111 446.036 303.066 447.081 301.777 447.081ZM176.977 442.412H299.442V296.239H176.977V442.412Z" fill="#0F0F24"/>
<path d="M328.502 321.719H146.224L193.195 197.281H375.474L328.502 321.719Z" fill="#2C2E6F"/>
<path d="M176.725 306.736H162.719V313.201H176.725V306.736Z" fill="#0F0F24"/>
<path d="M184.701 298.715H170.695V305.18H184.701V298.715Z" fill="#0F0F24"/>
<path d="M168.944 298.715H154.937V305.18H168.944V298.715Z" fill="#0F0F24"/>
<path d="M206.649 222.499H192.642V228.964H206.649V222.499Z" fill="#0F0F24"/>
<path d="M198.868 214.479H184.861V220.943H198.868V214.479Z" fill="#0F0F24"/>
<path opacity="0.82" d="M303.32 321.719L290.141 270.572L280.229 278.609C276.113 281.945 270.072 281.311 266.736 277.196C266.65 277.09 266.566 276.982 266.486 276.872C263.361 272.66 264.199 266.72 268.366 263.536L334.024 213.364C337.508 210.702 342.354 210.741 345.795 213.458L366.706 229.975L303.32 321.719Z" fill="#0F0F24"/>
<path d="M328.504 324.053H146.224C144.934 324.053 143.889 323.008 143.89 321.718C143.89 321.436 143.941 321.158 144.04 320.895L191.011 196.457C191.354 195.548 192.224 194.946 193.196 194.946H375.474C376.763 194.946 377.808 195.991 377.808 197.28C377.808 197.562 377.758 197.842 377.658 198.106L330.682 322.544C330.34 323.45 329.473 324.051 328.504 324.053ZM149.602 319.385H326.888L372.098 199.615H194.809L149.602 319.385Z" fill="#0F0F24"/>
<path d="M285.348 169.024H255.434V197.281H285.348V169.024Z" fill="#2C2E6F"/>
<path d="M284.397 186.998H272.892V193.463H284.397V186.998Z" fill="#0F0F24"/>
<path d="M264.593 180.534H253.845V186.999H264.593V180.534Z" fill="#0F0F24"/>
<path d="M285.347 199.615H255.436C254.146 199.615 253.101 198.57 253.101 197.281V169.024C253.101 167.735 254.146 166.69 255.436 166.69H285.35C286.639 166.69 287.684 167.735 287.684 169.024V197.281C287.684 198.57 286.639 199.615 285.35 199.615C285.349 199.615 285.347 199.615 285.347 199.615ZM257.767 194.946H283.012V171.358H257.77L257.767 194.946Z" fill="#0F0F24"/>
<path d="M292.826 157.711H247.955V169.025H292.826V157.711Z" fill="#2C2E6F"/>
<path d="M292.826 171.358H247.955C246.666 171.358 245.621 170.313 245.621 169.024V157.715C245.621 156.426 246.666 155.381 247.955 155.381H292.826C294.115 155.381 295.16 156.426 295.16 157.715V169.028C295.158 170.316 294.114 171.358 292.826 171.358ZM250.289 166.69H290.491V160.05H250.289V166.69Z" fill="#0F0F24"/>
<path d="M272.449 338.919H203.972V394.945H272.449V338.919Z" fill="#9FDFE7"/>
<path opacity="0.62" d="M203.972 370.744V391.288L243.745 338.919H228.143L203.972 370.744Z" fill="#D0F6FB"/>
<path opacity="0.62" d="M206.57 394.945H214.372L256.923 338.919H249.121L206.57 394.945Z" fill="#D0F6FB"/>
<path d="M272.449 397.28H203.972C202.683 397.28 201.638 396.235 201.638 394.945V338.919C201.638 337.63 202.683 336.585 203.972 336.585H272.449C273.738 336.585 274.783 337.63 274.783 338.919V394.945C274.783 396.235 273.738 397.28 272.449 397.28ZM206.307 392.611H270.114V341.253H206.307V392.611Z" fill="#0F0F24"/>
<path d="M276.339 398.058H200.081V407.395H276.339V398.058Z" fill="#D14D2F" stroke="#2C2E6F" stroke-width="6" stroke-linecap="round" stroke-linejoin="round"/>
<path d="M276.339 394.945H200.081V404.283H276.339V394.945Z" fill="#DDDDDD"/>
<path d="M276.339 406.617H200.081C198.792 406.617 197.747 405.572 197.747 404.283V394.945C197.747 393.656 198.792 392.611 200.081 392.611H276.339C277.628 392.611 278.673 393.656 278.673 394.945V404.283C278.673 405.572 277.628 406.617 276.339 406.617ZM202.415 401.949H274.005V397.28H202.415V401.949Z" fill="#0F0F24"/>
<path d="M596.174 309.771C608.147 329.778 616.867 395.211 579.325 395.211C541.784 395.211 550.504 329.779 562.476 309.771C567.42 301.507 574.014 297.684 579.325 297.684C584.636 297.684 591.23 301.507 596.174 309.771Z" fill="#42B5C2"/>
<path d="M579.325 397.545C569.105 397.545 561.058 392.876 556.053 384.051C550.761 374.722 548.773 360.526 550.45 344.079C551.851 330.349 555.783 316.412 560.474 308.573C565.428 300.292 572.476 295.349 579.327 295.349C586.178 295.349 593.224 300.292 598.179 308.573C602.87 316.411 606.805 330.348 608.204 344.078C609.879 360.526 607.892 374.721 602.601 384.05C597.593 392.879 589.545 397.545 579.325 397.545ZM579.325 300.018C575.315 300.018 569.311 302.897 564.479 310.97C560.111 318.268 556.428 331.449 555.093 344.551C553.515 360.044 555.299 373.255 560.114 381.746C564.3 389.13 570.764 392.874 579.325 392.874C587.886 392.874 594.35 389.129 598.537 381.746C603.353 373.253 605.135 360.042 603.557 344.551C602.223 331.449 598.538 318.268 594.171 310.97C589.337 302.895 583.334 300.018 579.325 300.018Z" fill="#0F0F24"/>
<path d="M117.271 384.634C101.122 384.628 88.8177 368.017 88.6745 349.851C88.1921 304.208 99.8953 255.6 119.123 205.993C119.484 204.787 120.754 204.102 121.96 204.462C122.746 204.697 123.345 205.337 123.528 206.137C140.237 256.68 148.032 304.913 145.872 350.926C145.14 368.754 133.07 384.632 117.271 384.634Z" fill="#69DDEA"/>
<path d="M117.271 386.968C100.378 386.961 86.5026 370.316 86.3415 349.871C85.8863 306.8 95.8979 259.46 116.947 205.151C117.611 203.261 119.409 202.008 121.412 202.038C123.428 202.121 125.169 203.475 125.747 205.409C142.769 256.9 150.325 305.898 148.205 351.041C147.91 360.115 144.691 368.85 139.026 375.945C133.197 383.053 125.47 386.967 117.271 386.968ZM121.3 206.837C100.468 260.586 90.5598 307.352 91.0088 349.829C91.1473 367.427 103.174 382.293 117.272 382.3C131.045 382.3 142.828 368.181 143.539 350.833C145.633 306.245 138.154 257.817 121.312 206.871L121.3 206.837Z" fill="#0F0F24"/>
<path d="M82.9589 251.957C94.9306 278.89 103.651 366.973 66.109 366.973C28.5675 366.973 37.2882 278.887 49.2599 251.957C54.2089 240.832 60.7982 235.685 66.109 235.685C71.4199 235.685 78.0138 240.832 82.9589 251.957Z" fill="#42B5C2"/>
<path d="M66.1092 369.307C57.8009 369.307 51.0762 365.443 46.1241 357.822C36.402 342.86 36.1849 317.082 36.921 303.047C37.9567 283.326 42.0568 262.413 47.1272 251.008C52.0419 239.952 59.1378 233.351 66.1092 233.351C73.0805 233.351 80.1772 239.952 85.0958 251.008C90.1654 262.413 94.2663 283.325 95.3012 303.047C96.0373 317.082 95.821 342.859 86.0989 357.822C81.1429 365.443 74.4182 369.307 66.1092 369.307ZM66.1092 238.02C63.97 238.02 61.4885 239.21 59.1222 241.373C56.2548 243.992 53.5826 247.98 51.3929 252.905C46.5334 263.838 42.5914 284.086 41.5844 303.292C40.3635 326.548 43.3664 345.01 50.039 355.278C54.132 361.576 59.3891 364.638 66.1092 364.638C72.8292 364.638 78.0871 361.576 82.1801 355.277C88.8527 345.01 91.8556 326.547 90.6347 303.291C89.627 284.086 85.6849 263.839 80.8254 252.905C78.6365 247.98 75.9636 243.992 73.0969 241.373C70.7305 239.21 68.2491 238.02 66.1092 238.02Z" fill="#0F0F24"/>
<path d="M47.0821 287.217C59.0539 310.576 67.7745 386.975 30.233 386.975C-7.30848 386.975 1.41138 310.579 13.3831 287.217C18.3282 277.568 24.9214 273.104 30.233 273.104C35.5446 273.104 42.137 277.568 47.0821 287.217Z" fill="#69DDEA"/>
<path d="M30.2329 389.306C20.9667 389.306 13.6973 385.104 8.62851 376.806C-5.36561 353.91 2.00107 304.308 11.3061 286.152C16.2419 276.521 23.3175 270.77 30.2329 270.77C37.1482 270.77 44.2231 276.52 49.1596 286.152C58.4647 304.309 65.8305 353.911 51.8372 376.806C46.7676 385.101 39.5021 389.306 30.2329 389.306ZM30.2329 275.438C26.2729 275.438 20.3139 278.812 15.4606 288.277C10.8641 297.247 6.99363 313.977 5.83031 329.908C4.42965 349.128 6.83567 364.917 12.6118 374.368C16.834 381.275 22.5977 384.633 30.2329 384.633C37.868 384.633 43.6317 381.275 47.8531 374.368C53.6293 364.917 56.0376 349.127 54.6346 329.908C53.4721 313.977 49.6016 297.247 45.0043 288.277C40.1511 278.812 34.1921 275.438 30.2329 275.438Z" fill="#0F0F24"/>
<path d="M488.738 444.746H301.776V244.881L395.257 164.508L488.738 244.881V444.746Z" fill="#969AFC"/>
<path d="M488.956 292.25H474.95V298.715H488.956V292.25Z" fill="#5B5FD4"/>
<path d="M481.175 300.271H467.168V306.736H481.175V300.271Z" fill="#5B5FD4"/>
<path d="M473.394 292.25H459.386V298.715H473.394V292.25Z" fill="#5B5FD4"/>
<path d="M415.877 224.325H401.87V230.79H415.877V224.325Z" fill="#5B5FD4"/>
<path d="M323.566 300.271H309.559V306.736H323.566V300.271Z" fill="#5B5FD4"/>
<path d="M471.319 409.989H457.312V416.454H471.319V409.989Z" fill="#5B5FD4"/>
<path d="M361.435 254.091H347.429V260.555H361.435V254.091Z" fill="#5B5FD4"/>
<path d="M315.784 292.25H301.776V298.715H315.784V292.25Z" fill="#5B5FD4"/>
<path d="M308.78 200.205H294.773V206.67H308.78V200.205Z" fill="#0F0F24"/>
<path d="M279.452 296.26H265.444V302.725H279.452V296.26Z" fill="#0F0F24"/>
<path d="M401.312 360.467H387.305V366.932H401.312V360.467Z" fill="#5B5FD4"/>
<path d="M393.53 352.446H379.523V358.911H393.53V352.446Z" fill="#5B5FD4"/>
<path d="M301.776 244.881V256.991L395.058 178.055L488.738 257.323V244.881L395.257 164.508L301.776 244.881Z" fill="#5B5FD4"/>
<path d="M488.738 447.081H301.777C300.487 447.081 299.442 446.036 299.442 444.746V244.881C299.442 244.201 299.739 243.555 300.255 243.111L393.735 162.738C394.611 161.986 395.904 161.986 396.779 162.738L490.26 243.111C490.776 243.555 491.072 244.201 491.072 244.881V444.746C491.072 446.036 490.027 447.081 488.738 447.081ZM304.111 442.412H486.404V245.957L395.257 167.588L304.111 245.957V442.412Z" fill="#0F0F24"/>
<path d="M457.312 338.919H401.286V444.746H457.312V338.919Z" fill="#5B5FD4"/>
<g style="mix-blend-mode:multiply" opacity="0.4">
<path d="M457.312 338.919H450.904V444.746H457.312V338.919Z" fill="#5B5FD4"/>
</g>
<path d="M457.312 447.081H401.286C399.997 447.081 398.952 446.036 398.952 444.746V338.919C398.952 337.63 399.997 336.585 401.286 336.585H457.312C458.602 336.585 459.647 337.63 459.647 338.919V444.746C459.647 446.036 458.602 447.081 457.312 447.081ZM403.621 442.412H454.978V341.253H403.621V442.412Z" fill="#0F0F24"/>
<path d="M379.523 338.919H331.278V394.945H379.523V338.919Z" fill="#9FDFE7"/>
<path opacity="0.92" d="M331.278 385.562L366.702 338.919H351.1L331.278 365.017V385.562Z" fill="#D0F6FB"/>
<path opacity="0.92" d="M379.523 339.389V338.919H372.079L331.278 392.64V394.945H337.329L379.523 339.389Z" fill="#D0F6FB"/>
<path d="M384.97 398.058H325.831V407.395H384.97V398.058Z" fill="#5B5FD4" stroke="#5B5FD4" stroke-width="6" stroke-linecap="round" stroke-linejoin="round"/>
<path d="M379.523 397.28H331.278C329.989 397.28 328.944 396.235 328.944 394.945V338.919C328.944 337.63 329.989 336.585 331.278 336.585H379.523C380.812 336.585 381.858 337.63 381.858 338.919V394.945C381.858 396.235 380.812 397.28 379.523 397.28ZM333.613 392.611H377.189V341.253H333.613V392.611Z" fill="#0F0F24"/>
<path d="M384.97 394.945H325.831V404.283H384.97V394.945Z" fill="#DDDDDD"/>
<path d="M384.97 406.617H325.831C324.542 406.617 323.497 405.572 323.497 404.283V394.945C323.497 393.656 324.542 392.611 325.831 392.611H384.97C386.26 392.611 387.305 393.656 387.305 394.945V404.283C387.305 405.572 386.26 406.617 384.97 406.617ZM328.166 401.949H382.636V397.28H328.166V401.949Z" fill="#0F0F24"/>
<path d="M395.257 275.107C407.72 275.107 417.823 265.004 417.823 252.541C417.823 240.078 407.72 229.975 395.257 229.975C382.794 229.975 372.691 240.078 372.691 252.541C372.691 265.004 382.794 275.107 395.257 275.107Z" fill="#DDDDDD"/>
<g style="mix-blend-mode:multiply">
<path d="M395.257 229.975C393.152 229.975 391.056 230.27 389.032 230.851C401.011 234.291 407.933 246.791 404.493 258.769C402.347 266.243 396.506 272.084 389.032 274.23C401.011 277.671 413.51 270.75 416.951 258.771C420.392 246.792 413.471 234.293 401.492 230.852C399.465 230.27 397.366 229.974 395.257 229.975Z" fill="#DDDDDD"/>
</g>
<path d="M395.257 277.442C381.505 277.442 370.356 266.293 370.356 252.541C370.356 238.789 381.505 227.641 395.257 227.641C409.009 227.641 420.158 238.789 420.158 252.541C420.142 266.287 409.003 277.426 395.257 277.442ZM395.257 232.309C384.084 232.309 375.025 241.368 375.025 252.541C375.025 263.715 384.084 272.773 395.257 272.773C406.43 272.773 415.489 263.715 415.489 252.541C415.476 241.373 406.426 232.322 395.257 232.309Z" fill="#0F0F24"/>
<path d="M402.843 427.627H455.756C461.773 427.627 466.65 432.505 466.65 438.521V444.746H391.949V438.521C391.949 432.505 396.826 427.627 402.843 427.627Z" fill="#DDDDDD"/>
<g style="mix-blend-mode:multiply">
<path d="M466.65 437.483H391.949V444.746H466.65V437.483Z" fill="#DDDDDD"/>
</g>
<path d="M466.65 447.081H391.949C390.659 447.081 389.614 446.036 389.614 444.746V438.521C389.622 431.218 395.54 425.301 402.843 425.293H455.756C463.059 425.301 468.977 431.218 468.985 438.521V444.746C468.985 446.036 467.94 447.081 466.65 447.081ZM394.283 442.412H464.316V438.521C464.31 433.796 460.481 429.967 455.756 429.962H402.843C398.118 429.967 394.289 433.796 394.283 438.521V442.412Z" fill="#0F0F24"/>
<path d="M620 447.859H7.31765C5.59873 447.859 4.20508 446.465 4.20508 444.746C4.20508 443.027 5.59873 441.634 7.31765 441.634H620C621.719 441.634 623.112 443.027 623.112 444.746C623.112 446.465 621.719 447.859 620 447.859Z" fill="#0F0F24"/>
<path d="M514.968 259.397C512.315 262.588 507.577 263.025 504.386 260.372C504.37 260.358 504.354 260.345 504.336 260.33L395.058 167.862L285.787 260.327C282.619 263.007 277.877 262.612 275.197 259.443C275.183 259.427 275.169 259.411 275.156 259.394C272.518 256.222 272.931 251.517 276.079 248.852L383.425 158.019L395.066 148.167L406.691 158.011L514.045 248.855C517.194 251.52 517.605 256.225 514.968 259.397Z" fill="#2C2E6F"/>
<path d="M321.656 226.743H310.413V233.207H321.656V226.743Z" fill="#0F0F24"/>
<path d="M404.142 158.49H393.765V164.954H404.142V158.49Z" fill="#0F0F24"/>
<path d="M509.172 264.441C506.847 264.443 504.598 263.615 502.828 262.107L395.058 170.92L287.295 262.109C283.143 265.623 276.929 265.105 273.415 260.953C273.397 260.932 273.379 260.91 273.361 260.889C269.92 256.728 270.459 250.573 274.571 247.073L393.556 146.386C394.427 145.649 395.701 145.649 396.572 146.386L408.198 156.23L515.551 247.073C519.703 250.588 520.22 256.803 516.705 260.955C515.027 262.937 512.635 264.177 510.049 264.403C509.757 264.428 509.464 264.441 509.172 264.441ZM395.058 165.528C395.61 165.527 396.145 165.723 396.566 166.08L505.842 258.546C508.026 260.394 511.295 260.123 513.143 257.939C513.152 257.927 513.162 257.916 513.171 257.904C514.981 255.715 514.697 252.479 512.535 250.638L395.065 151.226L277.587 250.637C275.424 252.478 275.141 255.715 276.951 257.904C278.78 260.103 282.047 260.403 284.246 258.574C284.257 258.564 284.268 258.555 284.279 258.545L393.551 166.08C393.972 165.723 394.506 165.527 395.058 165.528Z" fill="#0F0F24"/>
<path d="M579.729 447.081C578.44 447.081 577.395 446.036 577.395 444.746V326.017C577.395 324.728 578.44 323.683 579.729 323.683C581.018 323.683 582.063 324.728 582.063 326.017V444.746C582.063 446.036 581.018 447.081 579.729 447.081Z" fill="#0F0F24"/>
<path d="M395.257 277.442C393.968 277.442 392.923 276.397 392.923 275.107V229.975C392.923 228.686 393.968 227.641 395.257 227.641C396.547 227.641 397.592 228.686 397.592 229.975V275.107C397.592 276.397 396.547 277.442 395.257 277.442Z" fill="#0F0F24"/>
<path d="M417.823 254.876H372.691C371.401 254.876 370.356 253.831 370.356 252.541C370.356 251.252 371.401 250.207 372.691 250.207H417.823C419.113 250.207 420.158 251.252 420.158 252.541C420.158 253.831 419.113 254.876 417.823 254.876Z" fill="#0F0F24"/>
<path d="M44.1186 389.498H190.409C191.699 389.498 192.744 390.543 192.744 391.833V394.945C192.744 396.235 191.699 397.28 190.409 397.28H44.1186C42.8292 397.28 41.7842 396.235 41.7842 394.945V391.833C41.7842 390.543 42.8292 389.498 44.1186 389.498Z" fill="#0F0F24"/>
<path d="M44.1186 411.545H190.409C191.699 411.545 192.744 412.59 192.744 413.88V416.992C192.744 418.282 191.699 419.327 190.409 419.327H44.1186C42.8292 419.327 41.7842 418.282 41.7842 416.992V413.88C41.7842 412.59 42.8292 411.545 44.1186 411.545Z" fill="#0F0F24"/>
<path d="M66.5136 447.081C65.2242 447.081 64.1792 446.036 64.1792 444.746V284.918C64.1792 283.629 65.2242 282.584 66.5136 282.584C67.803 282.584 68.8481 283.629 68.8481 284.918V444.749C68.8465 446.037 67.8022 447.081 66.5136 447.081Z" fill="#0F0F24"/>
<path d="M30.6367 447.081C29.3473 447.081 28.3022 446.036 28.3022 444.746V326.017C28.3022 324.728 29.3473 323.683 30.6367 323.683C31.9261 323.683 32.9711 324.728 32.9711 326.017V444.746C32.9711 446.036 31.9261 447.081 30.6367 447.081Z" fill="#0F0F24"/>
<path d="M119.091 447.081C117.801 447.081 116.756 446.036 116.756 444.746V296.769C116.756 295.48 117.801 294.435 119.091 294.435C120.38 294.435 121.425 295.48 121.425 296.769V444.746C121.425 446.036 120.38 447.081 119.091 447.081Z" fill="#0F0F24"/>
<path d="M180.713 444.746H169.819V377.048L175.266 367.415L180.713 377.048V444.746Z" fill="#FFCB47"/>
<path d="M180.713 447.081H169.819C168.53 447.081 167.485 446.036 167.485 444.746V377.048C167.485 376.645 167.588 376.25 167.787 375.899L173.234 366.266C173.868 365.144 175.293 364.749 176.415 365.383C176.784 365.591 177.089 365.897 177.298 366.266L182.745 375.899C182.943 376.25 183.048 376.645 183.048 377.048V444.746C183.048 446.036 182.003 447.081 180.713 447.081ZM172.154 442.412H178.379V377.662L175.266 372.157L172.154 377.662V442.412Z" fill="#0F0F24"/>
<path d="M151.825 444.746H140.931V377.048L146.378 367.415L151.825 377.048V444.746Z" fill="#FFCB47"/>
<path d="M151.825 447.081H140.931C139.642 447.081 138.597 446.036 138.597 444.746V377.048C138.597 376.645 138.7 376.25 138.899 375.899L144.346 366.266C144.98 365.144 146.405 364.749 147.527 365.383C147.895 365.591 148.201 365.897 148.41 366.266L153.857 375.899C154.055 376.25 154.16 376.645 154.16 377.048V444.746C154.16 446.036 153.114 447.081 151.825 447.081ZM143.266 442.412H149.491V377.662L146.378 372.157L143.266 377.662V442.412Z" fill="#0F0F24"/>
<path d="M122.936 444.746H112.042V377.048L117.489 367.415L122.936 377.048V444.746Z" fill="#FFCB47"/>
<path d="M122.937 447.081H112.043C110.754 447.081 109.708 446.036 109.708 444.746V377.048C109.708 376.645 109.812 376.25 110.01 375.899L115.457 366.266C116.092 365.144 117.516 364.749 118.638 365.383C119.007 365.591 119.313 365.897 119.522 366.266L124.969 375.899C125.167 376.25 125.271 376.645 125.271 377.048V444.746C125.271 446.036 124.226 447.081 122.937 447.081ZM114.377 442.412H120.602V377.662L117.49 372.157L114.377 377.662V442.412Z" fill="#0F0F24"/>
<path d="M94.0483 444.746H83.1543V377.048L88.6013 367.415L94.0483 377.048V444.746Z" fill="#FFCB47"/>
<path d="M94.0497 447.081H83.1557C81.8663 447.081 80.8213 446.036 80.8213 444.746V377.048C80.8213 376.645 80.9248 376.25 81.1232 375.899L86.5702 366.266C87.2044 365.144 88.6292 364.749 89.7513 365.383C90.1201 365.591 90.4259 365.897 90.6344 366.266L96.0814 375.899C96.2799 376.25 96.3841 376.645 96.3841 377.048V444.746C96.3841 446.036 95.3391 447.081 94.0497 447.081ZM85.4901 442.412H91.7153V377.662L88.6027 372.157L85.4901 377.662V442.412Z" fill="#0F0F24"/>
<path d="M65.1596 444.746H54.2656V377.048L59.7126 367.415L65.1596 377.048V444.746Z" fill="#FFCB47"/>
<path d="M65.1601 447.081H54.2661C52.9767 447.081 51.9316 446.036 51.9316 444.746V377.048C51.9316 376.645 52.0351 376.25 52.2336 375.899L57.6806 366.266C58.3147 365.144 59.7395 364.749 60.8616 365.383C61.2304 365.591 61.5362 365.897 61.7448 366.266L67.1918 375.899C67.3902 376.25 67.4945 376.645 67.4945 377.048V444.746C67.4945 446.036 66.4494 447.081 65.1601 447.081ZM56.6005 442.412H62.8256V377.662L59.7131 372.157L56.6005 377.662V442.412Z" fill="#0F0F24"/>
<path d="M410.364 412.324C409.074 412.324 408.029 411.279 408.029 409.989V392.481C408.029 391.192 409.074 390.146 410.364 390.146C411.653 390.146 412.698 391.192 412.698 392.481V409.989C412.698 411.279 411.653 412.324 410.364 412.324Z" fill="#0F0F24"/>
<path d="M580.436 349.894C579.147 349.893 578.103 348.846 578.104 347.558C578.104 346.971 578.325 346.405 578.724 345.974L585.031 339.15C585.894 338.192 587.37 338.115 588.328 338.978C589.286 339.841 589.363 341.317 588.5 342.275C588.487 342.29 588.474 342.304 588.461 342.319L582.158 349.144C581.713 349.624 581.089 349.895 580.436 349.894Z" fill="#0F0F24"/>
<path d="M579.732 373.157C578.442 373.158 577.396 372.114 577.396 370.824C577.395 370.038 577.791 369.304 578.448 368.872L588.314 362.387C589.403 361.697 590.846 362.02 591.536 363.109C592.211 364.173 591.919 365.581 590.878 366.289L581.011 372.774C580.631 373.024 580.186 373.157 579.732 373.157Z" fill="#0F0F24"/>
<path d="M579.323 361.485C578.819 361.485 578.329 361.322 577.927 361.018L571.338 356.089C570.334 355.282 570.174 353.812 570.983 352.807C571.751 351.852 573.129 351.654 574.135 352.354L580.723 357.283C581.755 358.057 581.964 359.52 581.19 360.551C580.75 361.139 580.057 361.485 579.323 361.485Z" fill="#0F0F24"/>
<path d="M560.298 287.217C572.27 310.576 580.99 386.975 543.448 386.975C505.907 386.975 514.628 310.579 526.599 287.217C531.544 277.568 538.138 273.104 543.448 273.104C548.759 273.104 555.353 277.568 560.298 287.217Z" fill="#69DDEA"/>
<path d="M543.448 389.306C534.182 389.306 526.913 385.104 521.844 376.805C507.85 353.91 515.216 304.308 524.521 286.152C529.458 276.521 536.534 270.769 543.448 270.769C550.363 270.769 557.439 276.521 562.376 286.152C571.681 304.308 579.047 353.91 565.053 376.805C559.984 385.1 552.715 389.306 543.448 389.306ZM543.448 275.438C539.489 275.438 533.529 278.812 528.677 288.277C524.079 297.247 520.209 313.977 519.046 329.908C517.646 349.128 520.051 364.917 525.827 374.368C530.049 381.276 535.813 384.634 543.448 384.634C551.083 384.634 556.848 381.276 561.07 374.368C566.846 364.917 569.254 349.127 567.851 329.908C566.688 313.978 562.818 297.248 558.22 288.277C553.367 278.812 547.407 275.438 543.448 275.438Z" fill="#0F0F24"/>
<path d="M543.853 447.081C542.564 447.081 541.519 446.036 541.519 444.746V326.017C541.519 324.728 542.564 323.683 543.853 323.683C545.142 323.683 546.187 324.728 546.187 326.017V444.746C546.187 446.036 545.142 447.081 543.853 447.081Z" fill="#0F0F24"/>
<path d="M543.854 343.069C542.565 343.067 541.522 342.02 541.524 340.731C541.525 339.997 541.871 339.307 542.458 338.867L550.809 332.642C551.834 331.86 553.3 332.057 554.082 333.081C554.864 334.106 554.667 335.571 553.642 336.354C553.628 336.364 553.614 336.374 553.6 336.385L545.248 342.61C544.846 342.909 544.356 343.07 543.854 343.069Z" fill="#0F0F24"/>
<path d="M543.855 365.635C542.566 365.636 541.52 364.592 541.519 363.302C541.518 362.537 541.893 361.821 542.521 361.384L555.582 352.305C556.637 351.564 558.093 351.819 558.833 352.874C559.574 353.929 559.319 355.385 558.264 356.126C558.258 356.13 558.252 356.135 558.246 356.139L545.185 365.217C544.795 365.489 544.33 365.635 543.855 365.635Z" fill="#0F0F24"/>
<path d="M543.448 352.926C542.854 352.926 542.283 352.7 541.851 352.293L533.01 343.993C532.07 343.111 532.023 341.632 532.905 340.692C533.788 339.752 535.266 339.706 536.206 340.588L545.047 348.889C545.987 349.771 546.034 351.248 545.152 352.188C544.711 352.659 544.094 352.926 543.448 352.926Z" fill="#0F0F24"/>
<path d="M119.09 351.239C117.8 351.239 116.755 350.193 116.756 348.904C116.756 348.34 116.961 347.795 117.331 347.37L128.863 334.142C129.71 333.17 131.185 333.07 132.157 333.917C133.129 334.764 133.229 336.239 132.382 337.211L120.85 350.439C120.407 350.948 119.764 351.24 119.09 351.239Z" fill="#0F0F24"/>
<path d="M119.088 318.168C117.799 318.167 116.755 317.121 116.756 315.831C116.757 315.363 116.898 314.905 117.162 314.519L124.802 303.313C125.529 302.248 126.981 301.974 128.046 302.7C129.112 303.426 129.386 304.878 128.66 305.944L121.019 317.149C120.584 317.789 119.861 318.17 119.088 318.168Z" fill="#0F0F24"/>
<path d="M119.089 335.676C118.603 335.676 118.129 335.525 117.734 335.241L107.477 327.917C106.428 327.167 106.186 325.709 106.935 324.66C107.684 323.611 109.143 323.369 110.192 324.118L120.448 331.443C121.496 332.192 121.739 333.65 120.99 334.699C120.551 335.313 119.843 335.677 119.089 335.676Z" fill="#0F0F24"/>
<path d="M444.05 356.686H414.548V385.382H444.05V356.686Z" fill="#9FDFE7"/>
<path opacity="0.92" d="M414.548 378.656L431.234 356.686H415.631L414.548 358.112V378.656Z" fill="#D0F6FB"/>
<path opacity="0.92" d="M435.651 356.686L414.548 384.472V385.382H417.758L439.552 356.686H435.651Z" fill="#D0F6FB"/>
<path d="M444.051 387.716H414.548C413.259 387.716 412.214 386.671 412.214 385.382V356.686C412.214 355.397 413.259 354.352 414.548 354.352H444.051C445.34 354.352 446.385 355.397 446.385 356.686V385.382C446.385 386.671 445.34 387.716 444.051 387.716ZM416.883 383.047H441.716V359.021H416.883V383.047Z" fill="#0F0F24"/>
<path d="M66.5138 310.776C65.2244 310.776 64.1794 309.73 64.1802 308.441C64.1802 307.826 64.423 307.235 64.8556 306.799L74.4945 297.072C75.3862 296.141 76.8639 296.109 77.7953 297C78.7268 297.892 78.7587 299.37 77.8669 300.301C77.849 300.32 77.8304 300.339 77.8117 300.357L68.1728 310.084C67.734 310.527 67.1371 310.777 66.5138 310.776Z" fill="#0F0F24"/>
<path d="M66.5136 335.677C65.2242 335.677 64.1792 334.631 64.1792 333.342C64.1792 332.698 64.4453 332.082 64.9145 331.641L77.2769 320.019C78.2091 319.128 79.6868 319.161 80.5778 320.093C81.4687 321.025 81.4353 322.503 80.5038 323.394C80.4945 323.402 80.4852 323.411 80.4758 323.42L68.1127 335.043C67.6793 335.451 67.1073 335.677 66.5136 335.677Z" fill="#0F0F24"/>
<path d="M66.5127 320.892C65.9322 320.892 65.372 320.676 64.9432 320.285L55.7829 311.959C54.8289 311.091 54.7581 309.615 55.6257 308.661C56.4934 307.707 57.9695 307.636 58.9235 308.504L68.0838 316.83C69.0378 317.697 69.1086 319.174 68.241 320.128C67.7982 320.615 67.171 320.892 66.5127 320.892Z" fill="#0F0F24"/>
<path d="M30.6359 359.41C29.3465 359.409 28.3022 358.363 28.3022 357.075C28.3022 356.517 28.5022 355.978 28.8656 355.555L37.2182 345.828C38.0446 344.838 39.5168 344.706 40.5066 345.532C41.4964 346.359 41.6287 347.831 40.8023 348.821C40.7891 348.837 40.7751 348.853 40.7611 348.869L32.4085 358.596C31.965 359.114 31.3175 359.411 30.6359 359.41Z" fill="#0F0F24"/>
<path d="M30.2311 344.625C29.6771 344.626 29.1409 344.428 28.7192 344.068L20.9479 337.454C19.948 336.64 19.7978 335.169 20.6117 334.169C21.4256 333.169 22.8963 333.019 23.8963 333.833C23.9227 333.854 23.9484 333.876 23.9733 333.898L31.7454 340.513C32.7266 341.348 32.8449 342.822 32.0092 343.803C31.5656 344.325 30.9151 344.625 30.2311 344.625Z" fill="#0F0F24"/>
<path d="M201.655 49.1578C201.713 48.508 201.748 47.8513 201.748 47.1867C201.746 35.2897 192.099 25.6462 180.202 25.6485C176.254 25.6493 172.382 26.7348 169.009 28.7876C165.127 25.9536 160.194 24.9747 155.524 26.1123C153.491 13.522 141.635 4.96318 129.045 6.99724C128.029 7.16143 127.026 7.39254 126.041 7.69057C110.311 -4.62354 87.577 -1.85335 75.2628 13.8768C71.625 18.5246 69.1793 23.9919 68.1397 29.8015C67.9483 29.7968 67.7584 29.7867 67.5662 29.7867C56.2513 29.7883 46.6046 37.9899 44.7822 49.1578H201.655Z" fill="#DDDDDD"/>
<path d="M586.106 32.561C583.516 28.6734 578.325 27.5124 574.326 29.927C574.076 22.1098 567.534 15.9757 559.717 16.2262C557.787 16.2885 555.89 16.7445 554.143 17.5662C549.878 4.27087 535.642 -3.0499 522.347 1.2151C509.227 5.42407 501.893 19.3645 505.856 32.561H586.106Z" fill="#DDDDDD"/>
</svg>
