<svg width="220" height="107" viewBox="0 0 220 107" fill="none" xmlns="http://www.w3.org/2000/svg">
<path d="M72.0457 24.2158L97.6068 2.72705L122.852 24.2158V56.4489H72.0457V24.2158Z" fill="#5B5FD4"/>
<path fill-rule="evenodd" clip-rule="evenodd" d="M97.6151 0L124.935 23.254V58.5314H69.9634V23.2463L97.6151 0ZM74.1279 25.1858V54.3669H120.77V25.1781L97.5984 5.45462L74.1279 25.1858Z" fill="#5B5FD4"/>
<path d="M97.449 24.2158L123.01 2.72705L148.256 24.2158V56.4489H97.449V24.2158Z" fill="#969AFC"/>
<path fill-rule="evenodd" clip-rule="evenodd" d="M123.018 0L150.338 23.254V58.5314H95.3667V23.2463L123.018 0ZM99.5312 25.1858V54.3669H146.173V25.1781L123.002 5.45462L99.5312 25.1858Z" fill="#969AFC"/>
<path fill-rule="evenodd" clip-rule="evenodd" d="M97.449 56.4491H122.852V24.216L110.23 13.4717L97.449 24.216V56.4491Z" fill="#69DDEA"/>
<path fill-rule="evenodd" clip-rule="evenodd" d="M110.238 10.7446L124.935 23.2543V58.5317H95.3667V23.2465L110.238 10.7446ZM99.5312 25.1861V54.3672H120.77V25.1783L110.221 16.1993L99.5312 25.1861Z" fill="#69DDEA"/>
<path d="M31.1067 93.7632C32.4172 93.7632 33.5388 93.2857 34.4716 92.3307C35.4267 91.3534 35.9042 89.9875 35.9042 88.2328C35.9042 86.456 35.4378 85.09 34.5049 84.135C33.5721 83.1799 32.4394 82.7024 31.1067 82.7024C29.7963 82.7024 28.6858 83.1799 27.7751 84.135C26.8645 85.09 26.4092 86.456 26.4092 88.2328C26.4092 90.0097 26.8645 91.3756 27.7751 92.3307C28.6858 93.2857 29.7963 93.7632 31.1067 93.7632ZM24.3436 95.0959C22.5445 93.3412 21.645 91.0425 21.645 88.1995C21.645 85.3565 22.5557 83.0689 24.3769 81.3364C26.1982 79.604 28.4526 78.7378 31.14 78.7378C33.8497 78.7378 36.1152 79.604 37.9365 81.3364C39.7577 83.0689 40.6684 85.3565 40.6684 88.1995C40.6684 91.0425 39.7466 93.3412 37.9032 95.0959C36.0819 96.8505 33.8164 97.7278 31.1067 97.7278C28.397 97.7278 26.1427 96.8505 24.3436 95.0959Z" fill="white"/>
<path d="M47.5071 79.0043V81.7695C48.6843 79.7484 50.5944 78.7378 53.2374 78.7378C54.6367 78.7378 55.8805 79.0598 56.9688 79.704C58.0793 80.3481 58.9345 81.2698 59.5341 82.4692C60.1782 81.3142 61.0556 80.4036 62.1661 79.7373C63.2988 79.071 64.5648 78.7378 65.9641 78.7378C68.1629 78.7378 69.9287 79.4263 71.2613 80.8034C72.6162 82.1804 73.2936 84.1128 73.2936 86.6003V97.4613H68.6294V87.2667C68.6294 85.823 68.2629 84.7235 67.5299 83.9684C66.797 83.191 65.7975 82.8023 64.5315 82.8023C63.2655 82.8023 62.2549 83.191 61.4998 83.9684C60.7668 84.7235 60.4003 85.823 60.4003 87.2667V97.4613H55.7361V87.2667C55.7361 85.823 55.3697 84.7235 54.6367 83.9684C53.9038 83.191 52.9043 82.8023 51.6383 82.8023C50.3723 82.8023 49.3617 83.191 48.6065 83.9684C47.8736 84.7235 47.5071 85.823 47.5071 87.2667V97.4613H42.8096V79.0043H47.5071Z" fill="white"/>
<path d="M84.3877 97.7278C81.7002 97.7278 79.5125 96.8616 77.8245 95.1292C76.1365 93.3746 75.2925 91.0647 75.2925 88.1995C75.2925 85.3343 76.1365 83.0466 77.8245 81.3364C79.5347 79.604 81.7335 78.7378 84.421 78.7378C87.1307 78.7378 89.3518 79.5818 91.0842 81.2698C92.8166 82.9356 93.6828 85.1678 93.6828 87.9663C93.6828 88.6104 93.6384 89.2101 93.5496 89.7653H80.09C80.201 90.9647 80.6452 91.9309 81.4226 92.6638C82.2 93.3968 83.1883 93.7632 84.3877 93.7632C86.0091 93.7632 87.2085 93.0969 87.9858 91.7643H93.0498C92.5168 93.5189 91.484 94.9515 89.9515 96.062C88.4189 97.1726 86.5643 97.7278 84.3877 97.7278ZM88.8187 86.7336C88.7521 85.512 88.2968 84.5348 87.4528 83.8018C86.631 83.0689 85.6315 82.7024 84.4543 82.7024C83.2772 82.7024 82.2888 83.0689 81.4892 83.8018C80.7119 84.5348 80.2454 85.512 80.09 86.7336H88.8187Z" fill="white"/>
<path d="M113.139 91.331C114.45 89.9318 115.105 88.0772 115.105 85.7673C115.105 83.4574 114.45 81.6139 113.139 80.2369C111.829 78.8598 110.119 78.1713 108.009 78.1713C105.899 78.1713 104.177 78.8709 102.845 80.2702C101.534 81.6472 100.879 83.4907 100.879 85.8006C100.879 88.0883 101.534 89.9318 102.845 91.331C104.177 92.7081 105.899 93.3966 108.009 93.3966C110.119 93.3966 111.829 92.7081 113.139 91.331ZM108.009 97.6944C104.655 97.6944 101.834 96.5727 99.5465 94.3295C97.2588 92.0862 96.115 89.2433 96.115 85.8006C96.115 82.3358 97.2588 79.4817 99.5465 77.2384C101.856 74.9952 104.677 73.8735 108.009 73.8735C111.363 73.8735 114.183 74.9952 116.471 77.2384C118.759 79.4817 119.903 82.3358 119.903 85.8006C119.903 89.2433 118.759 92.0862 116.471 94.3295C114.183 96.5727 111.363 97.6944 108.009 97.6944Z" fill="white"/>
<path d="M135.311 92.1974C136.288 91.2201 136.777 89.8875 136.777 88.1995C136.777 86.5115 136.288 85.19 135.311 84.2349C134.356 83.2799 133.223 82.8023 131.913 82.8023C130.603 82.8023 129.459 83.291 128.481 84.2682C127.526 85.2233 127.049 86.5448 127.049 88.2328C127.049 89.9208 127.526 91.2535 128.481 92.2307C129.459 93.1858 130.603 93.6633 131.913 93.6633C133.223 93.6633 134.356 93.1747 135.311 92.1974ZM127.049 81.8695C128.359 79.7817 130.28 78.7378 132.813 78.7378C135.345 78.7378 137.432 79.6262 139.076 81.4031C140.719 83.1577 141.541 85.4343 141.541 88.2328C141.541 91.0091 140.719 93.2857 139.076 95.0626C137.432 96.8394 135.356 97.7278 132.846 97.7278C130.358 97.7278 128.426 96.6062 127.049 94.3629V106.257H122.351V79.0043H127.049V81.8695Z" fill="white"/>
<path d="M151.769 93.5299H154.001V97.4612H151.036C149.148 97.4612 147.694 97.0281 146.672 96.1619C145.65 95.2957 145.139 93.8631 145.139 91.8641V82.8355H143.174V79.0042H145.139V74.4399H149.837V79.0042H153.968V82.8355H149.837V91.8641C149.837 92.4638 149.981 92.8969 150.27 93.1635C150.559 93.4078 151.059 93.5299 151.769 93.5299Z" fill="white"/>
<path d="M162.197 74.3066C162.197 75.1062 161.919 75.7836 161.364 76.3388C160.809 76.8941 160.131 77.1717 159.332 77.1717C158.554 77.1717 157.888 76.8941 157.333 76.3388C156.778 75.7836 156.5 75.1062 156.5 74.3066C156.5 73.507 156.778 72.8296 157.333 72.2743C157.888 71.719 158.554 71.4414 159.332 71.4414C160.131 71.4414 160.809 71.719 161.364 72.2743C161.919 72.8296 162.197 73.507 162.197 74.3066ZM157 97.4611V79.0041H161.697V97.4611H157Z" fill="white"/>
<path d="M173.458 93.7632C174.768 93.7632 175.89 93.2857 176.823 92.3307C177.778 91.3534 178.255 89.9875 178.255 88.2328C178.255 86.456 177.789 85.09 176.856 84.135C175.923 83.1799 174.79 82.7024 173.458 82.7024C172.147 82.7024 171.037 83.1799 170.126 84.135C169.216 85.09 168.76 86.456 168.76 88.2328C168.76 90.0097 169.216 91.3756 170.126 92.3307C171.037 93.2857 172.147 93.7632 173.458 93.7632ZM166.695 95.0959C164.896 93.3412 163.996 91.0425 163.996 88.1995C163.996 85.3565 164.907 83.0689 166.728 81.3364C168.549 79.604 170.804 78.7378 173.491 78.7378C176.201 78.7378 178.466 79.604 180.288 81.3364C182.109 83.0689 183.019 85.3565 183.019 88.1995C183.019 91.0425 182.098 93.3412 180.254 95.0959C178.433 96.8505 176.167 97.7278 173.458 97.7278C170.748 97.7278 168.494 96.8505 166.695 95.0959Z" fill="white"/>
<path d="M189.932 79.0043V81.7695C191.11 79.7484 193.02 78.7378 195.663 78.7378C197.773 78.7378 199.494 79.4374 200.827 80.8367C202.159 82.2137 202.826 84.135 202.826 86.6003V97.4613H198.161V87.2667C198.161 85.823 197.795 84.7235 197.062 83.9684C196.329 83.191 195.33 82.8023 194.064 82.8023C192.798 82.8023 191.787 83.191 191.032 83.9684C190.299 84.7235 189.932 85.823 189.932 87.2667V97.4613H185.235V79.0043H189.932Z" fill="white"/>
<path d="M204.841 84.818C204.841 83.2188 205.519 81.8751 206.874 80.7868C208.229 79.6985 210.028 79.1543 212.271 79.1543C214.514 79.1543 216.313 79.6985 217.668 80.7868C219.023 81.8529 219.745 83.3077 219.834 85.1512H215.036C214.903 83.5964 213.948 82.819 212.171 82.819C211.282 82.819 210.594 82.9967 210.105 83.3521C209.617 83.7075 209.372 84.1961 209.372 84.818C209.372 85.4399 209.739 85.9285 210.472 86.2839C211.205 86.6393 212.093 86.9169 213.137 87.1168C214.181 87.3167 215.214 87.5721 216.235 87.8831C217.279 88.1718 218.168 88.7048 218.901 89.4822C219.634 90.2374 220 91.248 220 92.514C220 94.1798 219.289 95.5346 217.868 96.5785C216.469 97.6224 214.67 98.1443 212.471 98.1443C210.294 98.1443 208.506 97.6335 207.107 96.6118C205.708 95.5679 204.941 94.0798 204.808 92.1475H209.606C209.783 93.7022 210.772 94.4796 212.571 94.4796C213.437 94.4796 214.137 94.2908 214.67 93.9132C215.203 93.5134 215.469 93.0026 215.469 92.3807C215.469 91.7366 215.103 91.2369 214.37 90.8815C213.637 90.5039 212.748 90.2152 211.704 90.0153C210.661 89.8154 209.617 89.5711 208.573 89.2823C207.551 88.9936 206.674 88.4827 205.941 87.7498C205.208 86.9946 204.841 86.0174 204.841 84.818Z" fill="white"/>
<path d="M14.6923 74.207H19.3898V97.4615H14.6923V87.5001H4.69754V97.4615H0V74.207H4.69754V83.9019H14.6923V74.207Z" fill="white"/>
</svg>
