<svg width="240" height="37" viewBox="0 0 240 37" fill="none" xmlns="http://www.w3.org/2000/svg">
<path d="M1.50732 14.7268L16.6763 1.97449L31.6581 14.7268V33.8552H1.50732V14.7268Z" fill="#5B5FD4"/>
<path fill-rule="evenodd" clip-rule="evenodd" d="M16.6826 0L33.1658 14.0303V35.3628H0V14.0247L16.6826 0ZM3.01507 15.429V32.3477H30.1507V15.4234L16.6705 3.94913L3.01507 15.429Z" fill="#0F0F24"/>
<path d="M16.5833 14.7268L31.7523 1.97449L46.734 14.7268V33.8552H16.5833V14.7268Z" fill="#969AFC"/>
<path fill-rule="evenodd" clip-rule="evenodd" d="M31.7578 0L48.241 14.0303V35.3628H15.0752V14.0247L31.7578 0ZM18.0903 15.429V32.3477H45.2259V15.4234L31.7457 3.94913L18.0903 15.429Z" fill="#0F0F24"/>
<path fill-rule="evenodd" clip-rule="evenodd" d="M16.5833 33.8551H31.6586V14.7267L24.1678 8.35052L16.5833 14.7267V33.8551Z" fill="#69DDEA"/>
<path fill-rule="evenodd" clip-rule="evenodd" d="M24.1733 6.37601L33.1656 14.0302V35.3627H15.0752V14.0246L24.1733 6.37601ZM18.0903 15.4288V32.3476H30.1506V15.4232L24.1612 10.3251L18.0903 15.4288Z" fill="#0F0F24"/>
<path d="M84.6743 26.6611C85.7519 26.6611 86.6742 26.2685 87.4413 25.4831C88.2266 24.6795 88.6193 23.5563 88.6193 22.1135C88.6193 20.6524 88.2357 19.5292 87.4687 18.7439C86.7016 17.9585 85.7702 17.5659 84.6743 17.5659C83.5968 17.5659 82.6836 17.9585 81.9348 18.7439C81.186 19.5292 80.8116 20.6524 80.8116 22.1135C80.8116 23.5746 81.186 24.6978 81.9348 25.4831C82.6836 26.2685 83.5968 26.6611 84.6743 26.6611ZM79.1131 27.757C77.6337 26.3141 76.894 24.4239 76.894 22.0861C76.894 19.7484 77.6429 17.8672 79.1405 16.4427C80.6381 15.0181 82.4918 14.3058 84.7017 14.3058C86.9299 14.3058 88.7928 15.0181 90.2904 16.4427C91.788 17.8672 92.5368 19.7484 92.5368 22.0861C92.5368 24.4239 91.7789 26.3141 90.263 27.757C88.7654 29.1998 86.9025 29.9212 84.6743 29.9212C82.4462 29.9212 80.5924 29.1998 79.1131 27.757Z" fill="#0F0F24"/>
<path d="M98.1599 14.525V16.7988C99.1278 15.1368 100.699 14.3058 102.872 14.3058C104.022 14.3058 105.045 14.5706 105.94 15.1003C106.853 15.6299 107.556 16.3879 108.05 17.3741C108.579 16.4244 109.301 15.6756 110.214 15.1277C111.145 14.5798 112.186 14.3058 113.337 14.3058C115.145 14.3058 116.597 14.872 117.693 16.0043C118.807 17.1367 119.364 18.7256 119.364 20.7711V29.702H115.529V21.319C115.529 20.1319 115.227 19.2279 114.625 18.6069C114.022 17.9677 113.2 17.6481 112.159 17.6481C111.118 17.6481 110.287 17.9677 109.666 18.6069C109.063 19.2279 108.762 20.1319 108.762 21.319V29.702H104.927V21.319C104.927 20.1319 104.625 19.2279 104.022 18.6069C103.42 17.9677 102.598 17.6481 101.557 17.6481C100.516 17.6481 99.6849 17.9677 99.0639 18.6069C98.4612 19.2279 98.1599 20.1319 98.1599 21.319V29.702H94.2971V14.525H98.1599Z" fill="#0F0F24"/>
<path d="M128.487 29.9212C126.277 29.9212 124.478 29.2089 123.09 27.7844C121.702 26.3415 121.008 24.4421 121.008 22.0861C121.008 19.7301 121.702 17.849 123.09 16.4427C124.496 15.0181 126.304 14.3058 128.514 14.3058C130.742 14.3058 132.569 14.9998 133.993 16.3879C135.418 17.7576 136.13 19.5931 136.13 21.8943C136.13 22.424 136.094 22.9171 136.02 23.3737H124.953C125.044 24.3599 125.409 25.1544 126.049 25.7571C126.688 26.3598 127.501 26.6611 128.487 26.6611C129.82 26.6611 130.806 26.1132 131.445 25.0174H135.61C135.171 26.4602 134.322 27.6382 133.062 28.5514C131.802 29.4646 130.277 29.9212 128.487 29.9212ZM132.13 20.8807C132.076 19.8762 131.701 19.0726 131.007 18.4699C130.331 17.8672 129.51 17.5659 128.542 17.5659C127.574 17.5659 126.761 17.8672 126.103 18.4699C125.464 19.0726 125.081 19.8762 124.953 20.8807H132.13Z" fill="#0F0F24"/>
<path d="M152.129 24.6614C153.207 23.5108 153.746 21.9858 153.746 20.0864C153.746 18.187 153.207 16.6711 152.129 15.5388C151.052 14.4064 149.646 13.8402 147.911 13.8402C146.175 13.8402 144.76 14.4156 143.664 15.5662C142.587 16.6985 142.048 18.2144 142.048 20.1138C142.048 21.9949 142.587 23.5108 143.664 24.6614C144.76 25.7938 146.175 26.3599 147.911 26.3599C149.646 26.3599 151.052 25.7938 152.129 24.6614ZM147.911 29.894C145.153 29.894 142.833 28.9716 140.952 27.127C139.071 25.2824 138.13 22.9447 138.13 20.1138C138.13 17.2647 139.071 14.9178 140.952 13.0732C142.852 11.2286 145.171 10.3062 147.911 10.3062C150.668 10.3062 152.988 11.2286 154.869 13.0732C156.75 14.9178 157.691 17.2647 157.691 20.1138C157.691 22.9447 156.75 25.2824 154.869 27.127C152.988 28.9716 150.668 29.894 147.911 29.894Z" fill="#0F0F24"/>
<path d="M170.361 25.3736C171.165 24.57 171.566 23.4741 171.566 22.0861C171.566 20.6981 171.165 19.6114 170.361 18.8261C169.576 18.0407 168.644 17.6481 167.567 17.6481C166.489 17.6481 165.548 18.0499 164.745 18.8535C163.96 19.6388 163.567 20.7255 163.567 22.1135C163.567 23.5015 163.96 24.5974 164.745 25.401C165.548 26.1863 166.489 26.579 167.567 26.579C168.644 26.579 169.576 26.1772 170.361 25.3736ZM163.567 16.881C164.644 15.1642 166.224 14.3058 168.306 14.3058C170.388 14.3058 172.105 15.0364 173.457 16.4974C174.808 17.9403 175.484 19.8123 175.484 22.1135C175.484 24.3965 174.808 26.2685 173.457 27.7296C172.105 29.1906 170.397 29.9212 168.334 29.9212C166.288 29.9212 164.699 28.9989 163.567 27.1543V36.9344H159.704V14.525H163.567V16.881Z" fill="#0F0F24"/>
<path d="M183.894 26.4693H185.729V29.702H183.291C181.739 29.702 180.542 29.3458 179.702 28.6335C178.862 27.9212 178.442 26.7432 178.442 25.0995V17.6754H176.826V14.5249H178.442V10.7717H182.305V14.5249H185.702V17.6754H182.305V25.0995C182.305 25.5926 182.423 25.9488 182.661 26.1679C182.898 26.3688 183.309 26.4693 183.894 26.4693Z" fill="#0F0F24"/>
<path d="M192.469 10.6622C192.469 11.3196 192.24 11.8767 191.784 12.3333C191.327 12.7899 190.77 13.0182 190.113 13.0182C189.474 13.0182 188.926 12.7899 188.469 12.3333C188.012 11.8767 187.784 11.3196 187.784 10.6622C187.784 10.0047 188.012 9.44763 188.469 8.99104C188.926 8.53445 189.474 8.30615 190.113 8.30615C190.77 8.30615 191.327 8.53445 191.784 8.99104C192.24 9.44763 192.469 10.0047 192.469 10.6622ZM188.195 29.702V14.5249H192.058V29.702H188.195Z" fill="#0F0F24"/>
<path d="M201.729 26.6611C202.806 26.6611 203.728 26.2685 204.495 25.4831C205.281 24.6795 205.673 23.5563 205.673 22.1135C205.673 20.6524 205.29 19.5292 204.523 18.7439C203.756 17.9585 202.824 17.5659 201.729 17.5659C200.651 17.5659 199.738 17.9585 198.989 18.7439C198.24 19.5292 197.866 20.6524 197.866 22.1135C197.866 23.5746 198.24 24.6978 198.989 25.4831C199.738 26.2685 200.651 26.6611 201.729 26.6611ZM196.167 27.757C194.688 26.3141 193.948 24.4239 193.948 22.0861C193.948 19.7484 194.697 17.8672 196.195 16.4427C197.692 15.0181 199.546 14.3058 201.756 14.3058C203.984 14.3058 205.847 15.0181 207.345 16.4427C208.842 17.8672 209.591 19.7484 209.591 22.0861C209.591 24.4239 208.833 26.3141 207.317 27.757C205.82 29.1998 203.957 29.9212 201.729 29.9212C199.5 29.9212 197.647 29.1998 196.167 27.757Z" fill="#0F0F24"/>
<path d="M215.275 14.525V16.7988C216.243 15.1368 217.814 14.3058 219.987 14.3058C221.722 14.3058 223.138 14.8811 224.234 16.0317C225.329 17.1641 225.877 18.7439 225.877 20.7711V29.702H222.042V21.319C222.042 20.1319 221.741 19.2279 221.138 18.6069C220.535 17.9677 219.713 17.6481 218.672 17.6481C217.631 17.6481 216.8 17.9677 216.179 18.6069C215.577 19.2279 215.275 20.1319 215.275 21.319V29.702H211.413V14.525H215.275Z" fill="#0F0F24"/>
<path d="M227.535 19.3055C227.535 17.9905 228.092 16.8855 229.206 15.9906C230.32 15.0957 231.8 14.6483 233.644 14.6483C235.489 14.6483 236.968 15.0957 238.082 15.9906C239.197 16.8673 239.79 18.0635 239.863 19.5794H235.918C235.809 18.301 235.023 17.6617 233.562 17.6617C232.832 17.6617 232.265 17.8079 231.864 18.1001C231.462 18.3923 231.261 18.7941 231.261 19.3055C231.261 19.8169 231.562 20.2187 232.165 20.5109C232.768 20.8031 233.498 21.0314 234.357 21.1958C235.215 21.3601 236.064 21.5702 236.904 21.8259C237.763 22.0633 238.493 22.5016 239.096 23.1408C239.699 23.7618 240 24.5928 240 25.6338C240 27.0036 239.416 28.1177 238.247 28.976C237.096 29.8344 235.617 30.2636 233.809 30.2636C232.019 30.2636 230.549 29.8436 229.398 29.0034C228.247 28.1451 227.617 26.9214 227.508 25.3325H231.453C231.599 26.6109 232.412 27.2501 233.891 27.2501C234.603 27.2501 235.179 27.0949 235.617 26.7844C236.055 26.4557 236.274 26.0356 236.274 25.5242C236.274 24.9946 235.973 24.5837 235.37 24.2914C234.768 23.981 234.037 23.7435 233.179 23.5792C232.32 23.4148 231.462 23.2139 230.603 22.9765C229.763 22.739 229.042 22.319 228.439 21.7163C227.837 21.0953 227.535 20.2917 227.535 19.3055Z" fill="#0F0F24"/>
<path d="M71.1768 10.5802H75.0396V29.7022H71.1768V21.5109H62.9582V29.7022H59.0955V10.5802H62.9582V18.5522H71.1768V10.5802Z" fill="#0F0F24"/>
</svg>
