<svg width="303" height="185" viewBox="0 0 303 185" fill="none" xmlns="http://www.w3.org/2000/svg">
<path d="M260.386 182.319H13.2915L15.0022 66.5787L85.6689 54.8806H185.577L258.675 63.1657L260.386 182.319Z" fill="#F9F7F6" stroke="#0F0F24" stroke-width="4"/>
<path d="M88.7843 90.6755H2.94295L14.7157 56.6628H88.7843V90.6755Z" fill="#5B5FD4" stroke="#0F0F24" stroke-width="4"/>
<path d="M2 98.952V91.2119H89.4047V98.952H2Z" fill="#5B5FD4" stroke="#0F0F24" stroke-width="4"/>
<path d="M182.293 98.952V91.2119H269.698V98.952H182.293Z" fill="#5B5FD4" stroke="#0F0F24" stroke-width="4"/>
<path d="M257.201 56.6628L268.974 90.6755H183.132V56.6628H257.201Z" fill="#5B5FD4" stroke="#0F0F24" stroke-width="4"/>
<path d="M71.2791 113.531H24.3188V144.558H71.2791V113.531Z" fill="#9FDFE7" stroke="#0F0F24" stroke-width="4"/>
<path d="M249.895 113.531H202.935V144.558H249.895V113.531Z" fill="#9FDFE7" stroke="#0F0F24" stroke-width="4"/>
<path d="M73.7944 142.042H21.8027V148.751H73.7944V142.042Z" fill="#DDDDDD" stroke="#0F0F24" stroke-width="4"/>
<path d="M252.411 142.042H200.419V148.751H252.411V142.042Z" fill="#DDDDDD" stroke="#0F0F24" stroke-width="4"/>
<path opacity="0.1" d="M73.7273 113.606H24.5029V125.79H73.7273V113.606Z" fill="black" stroke="#0F0F24" stroke-width="4"/>
<path opacity="0.7" d="M196.135 58.6206L136.017 12.13L77.8368 58.5871L73.2749 52.8764L135.95 2.83862L200.604 52.8429L196.135 58.6206Z" fill="url(#paint0_linear)" stroke="#0F0F24" stroke-width="4"/>
<path d="M108.327 2H91.2705V37.086H108.327V2Z" fill="#2C2E6F" stroke="#0F0F24" stroke-width="4"/>
<path d="M192.06 182.282H80.6289V47.3985L136.349 9.24756L192.06 47.3985V182.282Z" fill="white" stroke="#0F0F24" stroke-width="4"/>
<path d="M149.258 136.021H122.457V180.86H149.258V136.021Z" fill="#DDDDDD" stroke="#0F0F24" stroke-width="4"/>
<path d="M196.135 59.107L136.017 12.6164L77.8368 59.0734L73.2749 53.3627L135.95 3.32495L200.604 53.3292L196.135 59.107Z" fill="#5B5FD4" stroke="#0F0F24" stroke-width="4"/>
<path d="M142.826 160.189C143.901 160.189 144.772 159.318 144.772 158.243C144.772 157.169 143.901 156.298 142.826 156.298C141.752 156.298 140.881 157.169 140.881 158.243C140.881 159.318 141.752 160.189 142.826 160.189Z" fill="#0F0F24"/>
<path d="M160.168 59.8616H113.208V90.8889H160.168V59.8616Z" fill="#9FDFE7" stroke="#0F0F24" stroke-width="4"/>
<path d="M162.684 88.373H110.692V95.0816H162.684V88.373Z" fill="#DDDDDD" stroke="#0F0F24" stroke-width="4"/>
<path d="M292.729 72.9096C302.14 91.2722 308.994 151.329 279.483 151.329C249.971 151.329 256.827 91.2746 266.238 72.9096C270.125 65.3245 275.308 61.8152 279.483 61.8152C283.658 61.8152 288.841 65.3245 292.729 72.9096Z" fill="#42B5C2"/>
<path d="M279.483 153.162C272.199 153.162 266.484 149.859 262.499 143.335C251.499 125.337 257.29 86.3451 264.604 72.0723C268.485 64.5013 274.047 59.9802 279.483 59.9802C284.918 59.9802 290.481 64.5013 294.362 72.0723C301.676 86.3451 307.467 125.337 296.467 143.335C292.481 149.856 286.767 153.162 279.483 153.162ZM279.483 63.6504C276.37 63.6504 271.685 66.3028 267.871 73.7435C264.257 80.7945 261.214 93.946 260.3 106.469C259.199 121.578 261.09 133.99 265.631 141.419C268.95 146.85 273.481 149.49 279.483 149.49C285.485 149.49 290.016 146.85 293.335 141.419C297.876 133.99 299.768 121.578 298.666 106.469C297.752 93.9467 294.709 80.7951 291.095 73.7435C287.28 66.3028 282.595 63.6504 279.483 63.6504Z" fill="#0F0F24"/>
<path d="M279.936 185C278.935 185 278.124 184.294 278.124 183.423V103.23C278.124 102.359 278.935 101.654 279.936 101.654C280.937 101.654 281.748 102.359 281.748 103.23V183.423C281.748 184.294 280.937 185 279.936 185Z" fill="#0F0F24"/>
<path d="M279.802 116.815C278.789 116.813 277.968 115.99 277.97 114.977C277.971 114.4 278.243 113.857 278.704 113.512L285.27 108.618C286.075 108.003 287.227 108.158 287.842 108.964C288.457 109.769 288.302 110.921 287.496 111.536C287.485 111.545 287.474 111.553 287.463 111.56L280.898 116.454C280.582 116.69 280.197 116.816 279.802 116.815Z" fill="#0F0F24"/>
<path d="M279.803 134.554C278.789 134.555 277.967 133.734 277.966 132.72C277.966 132.119 278.26 131.556 278.754 131.212L289.021 124.075C289.85 123.493 290.995 123.693 291.577 124.523C292.16 125.352 291.959 126.497 291.129 127.079C291.125 127.082 291.12 127.086 291.115 127.089L280.848 134.226C280.542 134.44 280.176 134.554 279.803 134.554Z" fill="#0F0F24"/>
<path d="M279.482 124.564C279.015 124.564 278.566 124.386 278.227 124.066L271.277 117.542C270.538 116.848 270.501 115.686 271.195 114.947C271.889 114.208 273.051 114.171 273.79 114.865L280.739 121.39C281.478 122.084 281.516 123.245 280.822 123.984C280.475 124.354 279.99 124.564 279.482 124.564Z" fill="#0F0F24"/>
<defs>
<linearGradient id="paint0_linear" x1="47126.5" y1="7460.34" x2="47126.5" y2="3749.72" gradientUnits="userSpaceOnUse">
<stop stop-color="#808080" stop-opacity="0.25"/>
<stop offset="0.54" stop-color="#808080" stop-opacity="0.12"/>
<stop offset="1" stop-color="#808080" stop-opacity="0.1"/>
</linearGradient>
</defs>
</svg>
