<svg width="547" height="453" viewBox="0 0 547 453" fill="none" xmlns="http://www.w3.org/2000/svg">
<g style="mix-blend-mode:multiply" opacity="0.23">
<g style="mix-blend-mode:multiply" opacity="0.23">
<path d="M343.852 67.5963V67.0963H343.352H301.07C300.631 67.0963 300.21 66.922 299.9 66.6116C299.589 66.3012 299.415 65.8802 299.415 65.4413C299.415 65.0024 299.589 64.5814 299.9 64.2711C300.21 63.9607 300.631 63.7863 301.07 63.7863H345.507C345.946 63.7863 346.367 63.9607 346.677 64.2711C346.988 64.5814 347.162 65.0024 347.162 65.4413V87.663C347.162 88.1019 346.987 88.5229 346.677 88.8332C346.367 89.1436 345.946 89.318 345.507 89.318C345.068 89.318 344.647 89.1436 344.337 88.8332C344.026 88.5229 343.852 88.1019 343.852 87.663V67.5963Z" fill="#2C2E6F"/>
<path d="M343.852 67.5963V67.0963H343.352H301.07C300.631 67.0963 300.21 66.922 299.9 66.6116C299.589 66.3012 299.415 65.8802 299.415 65.4413C299.415 65.0024 299.589 64.5814 299.9 64.2711C300.21 63.9607 300.631 63.7863 301.07 63.7863H345.507C345.946 63.7863 346.367 63.9607 346.677 64.2711C346.988 64.5814 347.162 65.0024 347.162 65.4413V87.663C347.162 88.1019 346.987 88.5229 346.677 88.8332C346.367 89.1436 345.946 89.318 345.507 89.318C345.068 89.318 344.647 89.1436 344.337 88.8332C344.026 88.5229 343.852 88.1019 343.852 87.663V67.5963Z" stroke="#0F0F24"/>
</g>
<g style="mix-blend-mode:multiply" opacity="0.23">
<path d="M347.662 67.0963H347.162V67.5963V87.663C347.162 88.1019 346.987 88.5229 346.677 88.8332C346.366 89.1436 345.946 89.318 345.507 89.318C345.068 89.318 344.647 89.1436 344.336 88.8332C344.026 88.5229 343.852 88.1019 343.852 87.663V65.4413C343.852 65.0024 344.026 64.5814 344.336 64.2711C344.647 63.9607 345.068 63.7863 345.507 63.7863H389.941C390.38 63.7863 390.801 63.9607 391.111 64.2711C391.422 64.5814 391.596 65.0024 391.596 65.4413C391.596 65.8803 391.422 66.3012 391.111 66.6116C390.801 66.9219 390.38 67.0963 389.941 67.0963H347.662Z" fill="#2C2E6F"/>
<path d="M347.662 67.0963H347.162V67.5963V87.663C347.162 88.1019 346.987 88.5229 346.677 88.8332C346.366 89.1436 345.946 89.318 345.507 89.318C345.068 89.318 344.647 89.1436 344.336 88.8332C344.026 88.5229 343.852 88.1019 343.852 87.663V65.4413C343.852 65.0024 344.026 64.5814 344.336 64.2711C344.647 63.9607 345.068 63.7863 345.507 63.7863H389.941C390.38 63.7863 390.801 63.9607 391.111 64.2711C391.422 64.5814 391.596 65.0024 391.596 65.4413C391.596 65.8803 391.422 66.3012 391.111 66.6116C390.801 66.9219 390.38 67.0963 389.941 67.0963H347.662Z" stroke="#0F0F24"/>
</g>
<g style="mix-blend-mode:multiply" opacity="0.23">
<path d="M324.943 63.2863V63.7863H325.443H365.571H366.071V63.2863V45.3782V44.8782H365.571H325.443H324.943V45.3782V63.2863ZM367.726 67.0963H323.288C322.849 67.0963 322.428 66.9219 322.118 66.6115C321.808 66.3012 321.633 65.8802 321.633 65.4413V43.2232C321.633 42.7843 321.808 42.3633 322.118 42.053C322.428 41.7426 322.849 41.5682 323.288 41.5682H367.726C368.165 41.5682 368.586 41.7426 368.896 42.053C369.206 42.3633 369.381 42.7843 369.381 43.2232V65.4413C369.381 65.8802 369.206 66.3012 368.896 66.6115C368.586 66.9219 368.165 67.0963 367.726 67.0963Z" fill="#2C2E6F"/>
<path d="M324.943 63.2863V63.7863H325.443H365.571H366.071V63.2863V45.3782V44.8782H365.571H325.443H324.943V45.3782V63.2863ZM367.726 67.0963H323.288C322.849 67.0963 322.428 66.9219 322.118 66.6115C321.808 66.3012 321.633 65.8802 321.633 65.4413V43.2232C321.633 42.7843 321.808 42.3633 322.118 42.053C322.428 41.7426 322.849 41.5682 323.288 41.5682H367.726C368.165 41.5682 368.586 41.7426 368.896 42.053C369.206 42.3633 369.381 42.7843 369.381 43.2232V65.4413C369.381 65.8802 369.206 66.3012 368.896 66.6115C368.586 66.9219 368.165 67.0963 367.726 67.0963Z" stroke="#0F0F24"/>
</g>
<g style="mix-blend-mode:multiply" opacity="0.23">
<path d="M389.441 44.8754V44.8783H345.507C345.068 44.8783 344.647 44.7039 344.336 44.3935C344.026 44.0832 343.852 43.6622 343.852 43.2233V21.0016C343.852 20.5627 344.026 20.1417 344.336 19.8314C344.647 19.521 345.068 19.3466 345.507 19.3466H358.133C358.572 19.3466 358.993 19.521 359.303 19.8314C359.613 20.1417 359.788 20.5627 359.788 21.0016C359.788 21.4406 359.613 21.8615 359.303 22.1719C358.993 22.4822 358.572 22.6566 358.133 22.6566H347.662H347.162V23.1566V41.0654V41.5654H347.662H389.941C390.38 41.5654 390.801 41.7397 391.111 42.0501C391.422 42.3605 391.596 42.7814 391.596 43.2204C391.596 43.6593 391.422 44.0803 391.111 44.3906C390.801 44.701 390.38 44.8754 389.941 44.8754H389.441Z" fill="#2C2E6F"/>
<path d="M389.441 44.8754V44.8783H345.507C345.068 44.8783 344.647 44.7039 344.336 44.3935C344.026 44.0832 343.852 43.6622 343.852 43.2233V21.0016C343.852 20.5627 344.026 20.1417 344.336 19.8314C344.647 19.521 345.068 19.3466 345.507 19.3466H358.133C358.572 19.3466 358.993 19.521 359.303 19.8314C359.613 20.1417 359.788 20.5627 359.788 21.0016C359.788 21.4406 359.613 21.8615 359.303 22.1719C358.993 22.4822 358.572 22.6566 358.133 22.6566H347.662H347.162V23.1566V41.0654V41.5654H347.662H389.941C390.38 41.5654 390.801 41.7397 391.111 42.0501C391.422 42.3605 391.596 42.7814 391.596 43.2204C391.596 43.6593 391.422 44.0803 391.111 44.3906C390.801 44.701 390.38 44.8754 389.941 44.8754H389.441Z" stroke="#0F0F24"/>
</g>
<g style="mix-blend-mode:multiply" opacity="0.23">
<path d="M343.352 41.5683H343.852V41.0683V23.1566V22.6566H343.352H309.474C309.035 22.6566 308.614 22.4822 308.304 22.1719C307.993 21.8615 307.819 21.4406 307.819 21.0016C307.819 20.5627 307.993 20.1417 308.304 19.8314C308.614 19.521 309.035 19.3466 309.474 19.3466H345.507C345.946 19.3466 346.367 19.521 346.677 19.8314C346.988 20.1417 347.162 20.5627 347.162 21.0016V43.2204V43.2211C347.162 43.4385 347.12 43.654 347.036 43.8551C346.953 44.0561 346.832 44.2388 346.678 44.3927C346.524 44.5466 346.342 44.6688 346.141 44.7521C345.94 44.8354 345.724 44.8783 345.507 44.8783H301.07C300.631 44.8783 300.21 44.7039 299.9 44.3935C299.589 44.0831 299.415 43.6622 299.415 43.2233C299.415 42.7843 299.589 42.3634 299.9 42.053C300.21 41.7426 300.631 41.5683 301.07 41.5683H343.352Z" fill="#2C2E6F"/>
<path d="M343.352 41.5683H343.852V41.0683V23.1566V22.6566H343.352H309.474C309.035 22.6566 308.614 22.4822 308.304 22.1719C307.993 21.8615 307.819 21.4406 307.819 21.0016C307.819 20.5627 307.993 20.1417 308.304 19.8314C308.614 19.521 309.035 19.3466 309.474 19.3466H345.507C345.946 19.3466 346.367 19.521 346.677 19.8314C346.988 20.1417 347.162 20.5627 347.162 21.0016V43.2204V43.2211C347.162 43.4385 347.12 43.654 347.036 43.8551C346.953 44.0561 346.832 44.2388 346.678 44.3927C346.524 44.5466 346.342 44.6688 346.141 44.7521C345.94 44.8354 345.724 44.8783 345.507 44.8783H301.07C300.631 44.8783 300.21 44.7039 299.9 44.3935C299.589 44.0831 299.415 43.6622 299.415 43.2233C299.415 42.7843 299.589 42.3634 299.9 42.053C300.21 41.7426 300.631 41.5683 301.07 41.5683H343.352Z" stroke="#0F0F24"/>
</g>
<g style="mix-blend-mode:multiply" opacity="0.23">
<path d="M321.134 63.7863H321.634V63.2863V45.3782V44.8782H321.134H301.07C300.631 44.8782 300.21 44.7039 299.9 44.3935C299.589 44.0831 299.415 43.6622 299.415 43.2232C299.415 42.7843 299.589 42.3634 299.9 42.053C300.21 41.7426 300.631 41.5682 301.07 41.5682H323.289C323.728 41.5682 324.148 41.7426 324.459 42.053C324.769 42.3633 324.944 42.7843 324.944 43.2232V65.4413C324.944 65.8802 324.769 66.3012 324.459 66.6115C324.148 66.9219 323.728 67.0963 323.289 67.0963H285.922C285.483 67.0963 285.062 66.9219 284.751 66.6115C284.441 66.3012 284.267 65.8802 284.267 65.4413C284.267 65.0023 284.441 64.5814 284.751 64.271L284.398 63.9175L284.751 64.271C285.062 63.9606 285.483 63.7863 285.922 63.7863H321.134Z" fill="#2C2E6F"/>
<path d="M321.134 63.7863H321.634V63.2863V45.3782V44.8782H321.134H301.07C300.631 44.8782 300.21 44.7039 299.9 44.3935C299.589 44.0831 299.415 43.6622 299.415 43.2232C299.415 42.7843 299.589 42.3634 299.9 42.053C300.21 41.7426 300.631 41.5682 301.07 41.5682H323.289C323.728 41.5682 324.148 41.7426 324.459 42.053C324.769 42.3633 324.944 42.7843 324.944 43.2232V65.4413C324.944 65.8802 324.769 66.3012 324.459 66.6115C324.148 66.9219 323.728 67.0963 323.289 67.0963H285.922C285.483 67.0963 285.062 66.9219 284.751 66.6115C284.441 66.3012 284.267 65.8802 284.267 65.4413C284.267 65.0023 284.441 64.5814 284.751 64.271L284.398 63.9175L284.751 64.271C285.062 63.9606 285.483 63.7863 285.922 63.7863H321.134Z" stroke="#0F0F24"/>
</g>
<g style="mix-blend-mode:multiply" opacity="0.23">
<path d="M369.881 44.8782H369.381V45.3782V63.2863V63.7863H369.881H383.13C383.568 63.7863 383.989 63.9606 384.3 64.271C384.61 64.5814 384.785 65.0023 384.785 65.4413C384.785 65.8802 384.61 66.3012 384.3 66.6115C383.989 66.9219 383.568 67.0963 383.13 67.0963H367.726C367.287 67.0963 366.866 66.9219 366.556 66.6115C366.246 66.3012 366.071 65.8802 366.071 65.4413V43.2232C366.071 42.7843 366.246 42.3633 366.556 42.053C366.866 41.7426 367.287 41.5682 367.726 41.5682H399.793C400.232 41.5682 400.653 41.7426 400.964 42.053C401.274 42.3633 401.448 42.7843 401.448 43.2232C401.448 43.6622 401.274 44.0831 400.964 44.3935C400.653 44.7039 400.232 44.8782 399.793 44.8782H369.881Z" fill="#2C2E6F"/>
<path d="M369.881 44.8782H369.381V45.3782V63.2863V63.7863H369.881H383.13C383.568 63.7863 383.989 63.9606 384.3 64.271C384.61 64.5814 384.785 65.0023 384.785 65.4413C384.785 65.8802 384.61 66.3012 384.3 66.6115C383.989 66.9219 383.568 67.0963 383.13 67.0963H367.726C367.287 67.0963 366.866 66.9219 366.556 66.6115C366.246 66.3012 366.071 65.8802 366.071 65.4413V43.2232C366.071 42.7843 366.246 42.3633 366.556 42.053C366.866 41.7426 367.287 41.5682 367.726 41.5682H399.793C400.232 41.5682 400.653 41.7426 400.964 42.053C401.274 42.3633 401.448 42.7843 401.448 43.2232C401.448 43.6622 401.274 44.0831 400.964 44.3935C400.653 44.7039 400.232 44.8782 399.793 44.8782H369.881Z" stroke="#0F0F24"/>
</g>
</g>
<g style="mix-blend-mode:multiply" opacity="0.23">
<g style="mix-blend-mode:multiply" opacity="0.23">
<path d="M59.585 215.115H60.085V214.615V194.551C60.085 194.112 60.2594 193.691 60.5697 193.381C60.8801 193.07 61.301 192.896 61.74 192.896C62.1789 192.896 62.5999 193.07 62.9103 193.381C63.2206 193.691 63.395 194.112 63.395 194.551V216.77C63.395 217.209 63.2206 217.63 62.9103 217.94C62.5999 218.25 62.1789 218.425 61.74 218.425H17.3025C16.8635 218.425 16.4426 218.25 16.1322 217.94L15.7786 218.293L16.1322 217.94C15.8218 217.63 15.6475 217.209 15.6475 216.77C15.6475 216.331 15.8218 215.91 16.1322 215.599C16.4426 215.289 16.8635 215.115 17.3025 215.115H59.585Z" fill="#2C2E6F"/>
<path d="M59.585 215.115H60.085V214.615V194.551C60.085 194.112 60.2594 193.691 60.5697 193.381C60.8801 193.07 61.301 192.896 61.74 192.896C62.1789 192.896 62.5999 193.07 62.9103 193.381C63.2206 193.691 63.395 194.112 63.395 194.551V216.77C63.395 217.209 63.2206 217.63 62.9103 217.94C62.5999 218.25 62.1789 218.425 61.74 218.425H17.3025C16.8635 218.425 16.4426 218.25 16.1322 217.94L15.7786 218.293L16.1322 217.94C15.8218 217.63 15.6475 217.209 15.6475 216.77C15.6475 216.331 15.8218 215.91 16.1322 215.599C16.4426 215.289 16.8635 215.115 17.3025 215.115H59.585Z" stroke="#0F0F24"/>
</g>
<g style="mix-blend-mode:multiply" opacity="0.23">
<path d="M63.395 214.615V215.115H63.895H106.177C106.616 215.115 107.037 215.289 107.348 215.599C107.658 215.91 107.832 216.331 107.832 216.77C107.832 217.209 107.658 217.63 107.348 217.94C107.037 218.25 106.616 218.425 106.177 218.425H61.74C61.301 218.425 60.8801 218.25 60.5697 217.94L60.2161 218.293L60.5697 217.94C60.2593 217.63 60.085 217.209 60.085 216.77V194.551C60.085 194.112 60.2593 193.691 60.5697 193.381C60.8801 193.07 61.301 192.896 61.74 192.896C62.1789 192.896 62.5999 193.07 62.9102 193.381C63.2206 193.691 63.395 194.112 63.395 194.551V214.615Z" fill="#2C2E6F"/>
<path d="M63.395 214.615V215.115H63.895H106.177C106.616 215.115 107.037 215.289 107.348 215.599C107.658 215.91 107.832 216.331 107.832 216.77C107.832 217.209 107.658 217.63 107.348 217.94C107.037 218.25 106.616 218.425 106.177 218.425H61.74C61.301 218.425 60.8801 218.25 60.5697 217.94L60.2161 218.293L60.5697 217.94C60.2593 217.63 60.085 217.209 60.085 216.77V194.551C60.085 194.112 60.2593 193.691 60.5697 193.381C60.8801 193.07 61.301 192.896 61.74 192.896C62.1789 192.896 62.5999 193.07 62.9102 193.381C63.2206 193.691 63.395 194.112 63.395 194.551V214.615Z" stroke="#0F0F24"/>
</g>
<g style="mix-blend-mode:multiply" opacity="0.23">
<path d="M41.1762 236.833V237.333H41.6762H81.8037H82.3037V236.833V218.925V218.425H81.8037H41.6762H41.1762V218.925V236.833ZM38.3509 240.159L37.9974 240.512L38.3509 240.159C38.0406 239.848 37.8662 239.427 37.8662 238.988V216.77C37.8662 216.331 38.0406 215.91 38.3509 215.599C38.6613 215.289 39.0823 215.115 39.5212 215.115H83.9587C84.3977 215.115 84.8186 215.289 85.129 215.599C85.4394 215.91 85.6137 216.331 85.6137 216.77V238.988C85.6137 239.427 85.4394 239.848 85.129 240.159C84.8186 240.469 84.3977 240.643 83.9587 240.643H39.5212C39.0823 240.643 38.6613 240.469 38.3509 240.159Z" fill="#2C2E6F"/>
<path d="M41.1762 236.833V237.333H41.6762H81.8037H82.3037V236.833V218.925V218.425H81.8037H41.6762H41.1762V218.925V236.833ZM38.3509 240.159L37.9974 240.512L38.3509 240.159C38.0406 239.848 37.8662 239.427 37.8662 238.988V216.77C37.8662 216.331 38.0406 215.91 38.3509 215.599C38.6613 215.289 39.0823 215.115 39.5212 215.115H83.9587C84.3977 215.115 84.8186 215.289 85.129 215.599C85.4394 215.91 85.6137 216.331 85.6137 216.77V238.988C85.6137 239.427 85.4394 239.848 85.129 240.159C84.8186 240.469 84.3977 240.643 83.9587 240.643H39.5212C39.0823 240.643 38.6613 240.469 38.3509 240.159Z" stroke="#0F0F24"/>
</g>
<g style="mix-blend-mode:multiply" opacity="0.23">
<path d="M63.895 240.643H63.395V241.143V259.052V259.552H63.895H74.3661C74.805 259.552 75.226 259.726 75.5364 260.037C75.8467 260.347 76.0211 260.768 76.0211 261.207C76.0211 261.646 75.8467 262.067 75.5364 262.377C75.226 262.688 74.805 262.862 74.3661 262.862H61.74C61.301 262.862 60.8801 262.688 60.5697 262.377L60.2161 262.731L60.5697 262.377C60.2593 262.067 60.085 261.646 60.085 261.207V238.988C60.085 238.549 60.2593 238.128 60.5697 237.818C60.8801 237.508 61.301 237.333 61.74 237.333H106.177C106.616 237.333 107.037 237.508 107.348 237.818C107.658 238.128 107.832 238.549 107.832 238.988C107.832 239.427 107.658 239.848 107.348 240.159C107.037 240.469 106.616 240.643 106.177 240.643H63.895Z" fill="#2C2E6F"/>
<path d="M63.895 240.643H63.395V241.143V259.052V259.552H63.895H74.3661C74.805 259.552 75.226 259.726 75.5364 260.037C75.8467 260.347 76.0211 260.768 76.0211 261.207C76.0211 261.646 75.8467 262.067 75.5364 262.377C75.226 262.688 74.805 262.862 74.3661 262.862H61.74C61.301 262.862 60.8801 262.688 60.5697 262.377L60.2161 262.731L60.5697 262.377C60.2593 262.067 60.085 261.646 60.085 261.207V238.988C60.085 238.549 60.2593 238.128 60.5697 237.818C60.8801 237.508 61.301 237.333 61.74 237.333H106.177C106.616 237.333 107.037 237.508 107.348 237.818C107.658 238.128 107.832 238.549 107.832 238.988C107.832 239.427 107.658 239.848 107.348 240.159C107.037 240.469 106.616 240.643 106.177 240.643H63.895Z" stroke="#0F0F24"/>
</g>
<g style="mix-blend-mode:multiply" opacity="0.23">
<path d="M59.585 259.552H60.085V259.052V241.143V240.643H59.585H17.3025C16.8635 240.643 16.4426 240.469 16.1322 240.159C15.8218 239.848 15.6475 239.427 15.6475 238.988C15.6475 238.549 15.8218 238.128 16.1322 237.818C16.4426 237.508 16.8635 237.333 17.3025 237.333H61.74C62.1789 237.333 62.5999 237.508 62.9103 237.818C63.2206 238.128 63.395 238.549 63.395 238.988V261.207C63.395 261.646 63.2206 262.067 62.9103 262.377C62.5999 262.688 62.1789 262.862 61.74 262.862H25.7062C25.2673 262.862 24.8463 262.688 24.536 262.377C24.2256 262.067 24.0512 261.646 24.0512 261.207C24.0512 260.768 24.2256 260.347 24.536 260.037C24.8463 259.726 25.2673 259.552 25.7062 259.552H59.585Z" fill="#2C2E6F"/>
<path d="M59.585 259.552H60.085V259.052V241.143V240.643H59.585H17.3025C16.8635 240.643 16.4426 240.469 16.1322 240.159C15.8218 239.848 15.6475 239.427 15.6475 238.988C15.6475 238.549 15.8218 238.128 16.1322 237.818C16.4426 237.508 16.8635 237.333 17.3025 237.333H61.74C62.1789 237.333 62.5999 237.508 62.9103 237.818C63.2206 238.128 63.395 238.549 63.395 238.988V261.207C63.395 261.646 63.2206 262.067 62.9103 262.377C62.5999 262.688 62.1789 262.862 61.74 262.862H25.7062C25.2673 262.862 24.8463 262.688 24.536 262.377C24.2256 262.067 24.0512 261.646 24.0512 261.207C24.0512 260.768 24.2256 260.347 24.536 260.037C24.8463 259.726 25.2673 259.552 25.7062 259.552H59.585Z" stroke="#0F0F24"/>
</g>
<g style="mix-blend-mode:multiply" opacity="0.23">
<path d="M37.3663 237.333H37.8663V236.833V218.925V218.425H37.3663H2.155C1.71607 218.425 1.29511 218.25 0.984736 217.94C0.674363 217.63 0.5 217.209 0.5 216.77C0.5 216.331 0.674367 215.91 0.984737 215.599C1.2951 215.289 1.71606 215.115 2.155 215.115H39.5213C39.9602 215.115 40.3811 215.289 40.6915 215.599C41.0019 215.91 41.1763 216.331 41.1763 216.77V238.988C41.1763 239.427 41.0019 239.848 40.6915 240.159C40.3811 240.469 39.9602 240.643 39.5213 240.643H17.3025C16.8636 240.643 16.4426 240.469 16.1322 240.159C15.8219 239.848 15.6475 239.427 15.6475 238.988C15.6475 238.549 15.8219 238.128 16.1322 237.818C16.4426 237.508 16.8636 237.333 17.3025 237.333H37.3663Z" fill="#2C2E6F"/>
<path d="M37.3663 237.333H37.8663V236.833V218.925V218.425H37.3663H2.155C1.71607 218.425 1.29511 218.25 0.984736 217.94C0.674363 217.63 0.5 217.209 0.5 216.77C0.5 216.331 0.674367 215.91 0.984737 215.599C1.2951 215.289 1.71606 215.115 2.155 215.115H39.5213C39.9602 215.115 40.3811 215.289 40.6915 215.599C41.0019 215.91 41.1763 216.331 41.1763 216.77V238.988C41.1763 239.427 41.0019 239.848 40.6915 240.159C40.3811 240.469 39.9602 240.643 39.5213 240.643H17.3025C16.8636 240.643 16.4426 240.469 16.1322 240.159C15.8219 239.848 15.6475 239.427 15.6475 238.988C15.6475 238.549 15.8219 238.128 16.1322 237.818C16.4426 237.508 16.8636 237.333 17.3025 237.333H37.3663Z" stroke="#0F0F24"/>
</g>
<g style="mix-blend-mode:multiply" opacity="0.23">
<path d="M86.1137 218.425H85.6137V218.925V236.833V237.333H86.1137H116.026C116.465 237.333 116.886 237.508 117.196 237.818C117.506 238.128 117.681 238.549 117.681 238.988C117.681 239.427 117.506 239.848 117.196 240.159C116.886 240.469 116.465 240.643 116.026 240.643H83.9587C83.5198 240.643 83.0988 240.469 82.7884 240.159L82.4368 240.51L82.7884 240.159C82.4781 239.848 82.3037 239.427 82.3037 238.988V216.77C82.3037 216.331 82.4781 215.91 82.7884 215.599C83.0988 215.289 83.5198 215.115 83.9587 215.115H99.3619C99.8009 215.115 100.222 215.289 100.532 215.599C100.843 215.91 101.017 216.331 101.017 216.77C101.017 217.209 100.843 217.63 100.532 217.94C100.222 218.25 99.8009 218.425 99.3619 218.425H86.1137Z" fill="#2C2E6F"/>
<path d="M86.1137 218.425H85.6137V218.925V236.833V237.333H86.1137H116.026C116.465 237.333 116.886 237.508 117.196 237.818C117.506 238.128 117.681 238.549 117.681 238.988C117.681 239.427 117.506 239.848 117.196 240.159C116.886 240.469 116.465 240.643 116.026 240.643H83.9587C83.5198 240.643 83.0988 240.469 82.7884 240.159L82.4368 240.51L82.7884 240.159C82.4781 239.848 82.3037 239.427 82.3037 238.988V216.77C82.3037 216.331 82.4781 215.91 82.7884 215.599C83.0988 215.289 83.5198 215.115 83.9587 215.115H99.3619C99.8009 215.115 100.222 215.289 100.532 215.599C100.843 215.91 101.017 216.331 101.017 216.77C101.017 217.209 100.843 217.63 100.532 217.94C100.222 218.25 99.8009 218.425 99.3619 218.425H86.1137Z" stroke="#0F0F24"/>
</g>
</g>
<g style="mix-blend-mode:multiply" opacity="0.23">
<g style="mix-blend-mode:multiply" opacity="0.23">
<path d="M512.915 320.08V320.58H513.415H555.698C556.137 320.58 556.558 320.755 556.868 321.065C557.179 321.375 557.353 321.796 557.353 322.235C557.353 322.674 557.179 323.095 556.868 323.406C556.558 323.716 556.137 323.89 555.698 323.89H511.26C510.822 323.89 510.401 323.716 510.09 323.406C509.78 323.095 509.605 322.674 509.605 322.235V300.017C509.605 299.578 509.78 299.157 510.09 298.847C510.401 298.537 510.822 298.362 511.26 298.362C511.699 298.362 512.12 298.537 512.431 298.847C512.741 299.157 512.915 299.578 512.915 300.017V320.08Z" fill="#2C2E6F"/>
<path d="M512.915 320.08V320.58H513.415H555.698C556.137 320.58 556.558 320.755 556.868 321.065C557.179 321.375 557.353 321.796 557.353 322.235C557.353 322.674 557.179 323.095 556.868 323.406C556.558 323.716 556.137 323.89 555.698 323.89H511.26C510.822 323.89 510.401 323.716 510.09 323.406C509.78 323.095 509.605 322.674 509.605 322.235V300.017C509.605 299.578 509.78 299.157 510.09 298.847C510.401 298.537 510.822 298.362 511.26 298.362C511.699 298.362 512.12 298.537 512.431 298.847C512.741 299.157 512.915 299.578 512.915 300.017V320.08Z" stroke="#0F0F24"/>
</g>
<g style="mix-blend-mode:multiply" opacity="0.23">
<path d="M509.105 320.58H509.605V320.08V300.017C509.605 299.578 509.78 299.157 510.09 298.847C510.401 298.537 510.822 298.362 511.26 298.362C511.699 298.362 512.12 298.537 512.431 298.847C512.741 299.157 512.915 299.578 512.915 300.017V322.235C512.915 322.674 512.741 323.095 512.431 323.406C512.12 323.716 511.699 323.89 511.26 323.89H466.823C466.384 323.89 465.963 323.716 465.653 323.406C465.342 323.095 465.168 322.674 465.168 322.235C465.168 321.796 465.342 321.375 465.653 321.065C465.963 320.755 466.384 320.58 466.823 320.58H509.105Z" fill="#2C2E6F"/>
<path d="M509.105 320.58H509.605V320.08V300.017C509.605 299.578 509.78 299.157 510.09 298.847C510.401 298.537 510.822 298.362 511.26 298.362C511.699 298.362 512.12 298.537 512.431 298.847C512.741 299.157 512.915 299.578 512.915 300.017V322.235C512.915 322.674 512.741 323.095 512.431 323.406C512.12 323.716 511.699 323.89 511.26 323.89H466.823C466.384 323.89 465.963 323.716 465.653 323.406C465.342 323.095 465.168 322.674 465.168 322.235C465.168 321.796 465.342 321.375 465.653 321.065C465.963 320.755 466.384 320.58 466.823 320.58H509.105Z" stroke="#0F0F24"/>
</g>
<g style="mix-blend-mode:multiply" opacity="0.23">
<path d="M490.697 342.3V342.8H491.197H531.324H531.824V342.3V324.39V323.89H531.324H491.197H490.697V324.39V342.3ZM533.479 346.11H489.042C488.603 346.11 488.182 345.935 487.871 345.625C487.561 345.315 487.387 344.894 487.387 344.455V322.235C487.387 321.796 487.561 321.375 487.871 321.065C488.182 320.755 488.603 320.58 489.042 320.58H533.479C533.918 320.58 534.339 320.755 534.649 321.065C534.96 321.375 535.134 321.796 535.134 322.235V344.455C535.134 344.894 534.96 345.315 534.649 345.625C534.339 345.935 533.918 346.11 533.479 346.11Z" fill="#2C2E6F"/>
<path d="M490.697 342.3V342.8H491.197H531.324H531.824V342.3V324.39V323.89H531.324H491.197H490.697V324.39V342.3ZM533.479 346.11H489.042C488.603 346.11 488.182 345.935 487.871 345.625C487.561 345.315 487.387 344.894 487.387 344.455V322.235C487.387 321.796 487.561 321.375 487.871 321.065C488.182 320.755 488.603 320.58 489.042 320.58H533.479C533.918 320.58 534.339 320.755 534.649 321.065C534.96 321.375 535.134 321.796 535.134 322.235V344.455C535.134 344.894 534.96 345.315 534.649 345.625C534.339 345.935 533.918 346.11 533.479 346.11Z" stroke="#0F0F24"/>
</g>
<g style="mix-blend-mode:multiply" opacity="0.23">
<path d="M509.105 365.018H509.605V364.518V346.61V346.11H509.105H466.823C466.384 346.11 465.963 345.935 465.653 345.625C465.342 345.315 465.168 344.894 465.168 344.455C465.168 344.016 465.342 343.595 465.653 343.285C465.963 342.974 466.384 342.8 466.823 342.8H511.26C511.699 342.8 512.12 342.974 512.431 343.285C512.741 343.595 512.915 344.016 512.915 344.455V366.673C512.915 367.112 512.741 367.533 512.431 367.843C512.12 368.153 511.699 368.328 511.26 368.328H498.634C498.195 368.328 497.774 368.153 497.464 367.843C497.154 367.533 496.979 367.112 496.979 366.673C496.979 366.234 497.154 365.813 497.464 365.503C497.774 365.192 498.195 365.018 498.634 365.018H509.105Z" fill="#2C2E6F"/>
<path d="M509.105 365.018H509.605V364.518V346.61V346.11H509.105H466.823C466.384 346.11 465.963 345.935 465.653 345.625C465.342 345.315 465.168 344.894 465.168 344.455C465.168 344.016 465.342 343.595 465.653 343.285C465.963 342.974 466.384 342.8 466.823 342.8H511.26C511.699 342.8 512.12 342.974 512.431 343.285C512.741 343.595 512.915 344.016 512.915 344.455V366.673C512.915 367.112 512.741 367.533 512.431 367.843C512.12 368.153 511.699 368.328 511.26 368.328H498.634C498.195 368.328 497.774 368.153 497.464 367.843C497.154 367.533 496.979 367.112 496.979 366.673C496.979 366.234 497.154 365.813 497.464 365.503C497.774 365.192 498.195 365.018 498.634 365.018H509.105Z" stroke="#0F0F24"/>
</g>
<g style="mix-blend-mode:multiply" opacity="0.23">
<path d="M513.415 346.11H512.915V346.61V364.518V365.018H513.415H527.918C528.357 365.018 528.778 365.192 529.088 365.503C529.399 365.813 529.573 366.234 529.573 366.673C529.573 367.112 529.399 367.533 529.088 367.843C528.778 368.153 528.357 368.328 527.918 368.328H511.26C510.822 368.328 510.401 368.153 510.09 367.843C509.78 367.533 509.605 367.112 509.605 366.673V344.455C509.605 344.016 509.78 343.595 510.09 343.285C510.401 342.974 510.822 342.8 511.26 342.8H555.698C556.137 342.8 556.558 342.974 556.868 343.285C557.179 343.595 557.353 344.016 557.353 344.455C557.353 344.894 557.179 345.315 556.868 345.625C556.558 345.935 556.137 346.11 555.698 346.11H513.415Z" fill="#2C2E6F"/>
<path d="M513.415 346.11H512.915V346.61V364.518V365.018H513.415H527.918C528.357 365.018 528.778 365.192 529.088 365.503C529.399 365.813 529.573 366.234 529.573 366.673C529.573 367.112 529.399 367.533 529.088 367.843C528.778 368.153 528.357 368.328 527.918 368.328H511.26C510.822 368.328 510.401 368.153 510.09 367.843C509.78 367.533 509.605 367.112 509.605 366.673V344.455C509.605 344.016 509.78 343.595 510.09 343.285C510.401 342.974 510.822 342.8 511.26 342.8H555.698C556.137 342.8 556.558 342.974 556.868 343.285C557.179 343.595 557.353 344.016 557.353 344.455C557.353 344.894 557.179 345.315 556.868 345.625C556.558 345.935 556.137 346.11 555.698 346.11H513.415Z" stroke="#0F0F24"/>
</g>
<g style="mix-blend-mode:multiply" opacity="0.23">
<path d="M535.634 323.89H535.134V324.39V342.3V342.8H535.634H555.698C556.137 342.8 556.558 342.974 556.868 343.284C557.179 343.595 557.353 344.016 557.353 344.455C557.353 344.894 557.179 345.315 556.868 345.625C556.558 345.935 556.137 346.11 555.698 346.11H533.479C533.04 346.11 532.619 345.935 532.309 345.625C531.999 345.315 531.824 344.894 531.824 344.455V322.235C531.824 321.796 531.999 321.375 532.309 321.065C532.619 320.755 533.04 320.58 533.479 320.58H570.845C571.284 320.58 571.705 320.755 572.015 321.065C572.325 321.375 572.5 321.796 572.5 322.235C572.5 322.674 572.325 323.095 572.015 323.405C571.705 323.716 571.284 323.89 570.845 323.89H535.634Z" fill="#2C2E6F"/>
<path d="M535.634 323.89H535.134V324.39V342.3V342.8H535.634H555.698C556.137 342.8 556.558 342.974 556.868 343.284C557.179 343.595 557.353 344.016 557.353 344.455C557.353 344.894 557.179 345.315 556.868 345.625C556.558 345.935 556.137 346.11 555.698 346.11H533.479C533.04 346.11 532.619 345.935 532.309 345.625C531.999 345.315 531.824 344.894 531.824 344.455V322.235C531.824 321.796 531.999 321.375 532.309 321.065C532.619 320.755 533.04 320.58 533.479 320.58H570.845C571.284 320.58 571.705 320.755 572.015 321.065C572.325 321.375 572.5 321.796 572.5 322.235C572.5 322.674 572.325 323.095 572.015 323.405C571.705 323.716 571.284 323.89 570.845 323.89H535.634Z" stroke="#0F0F24"/>
</g>
<g style="mix-blend-mode:multiply" opacity="0.23">
<path d="M486.887 342.8H487.387V342.3V324.39V323.89H486.887H473.638C473.199 323.89 472.778 323.716 472.467 323.405C472.157 323.095 471.983 322.674 471.983 322.235C471.983 321.796 472.157 321.375 472.467 321.065C472.778 320.755 473.199 320.58 473.638 320.58H489.042C489.481 320.58 489.902 320.755 490.212 321.065C490.522 321.375 490.697 321.796 490.697 322.235V344.455C490.697 344.894 490.522 345.315 490.212 345.625C489.902 345.935 489.481 346.11 489.042 346.11H456.974C456.535 346.11 456.114 345.935 455.804 345.625C455.493 345.315 455.319 344.894 455.319 344.455C455.319 344.016 455.493 343.595 455.804 343.284C456.114 342.974 456.535 342.8 456.974 342.8H486.887Z" fill="#2C2E6F"/>
<path d="M486.887 342.8H487.387V342.3V324.39V323.89H486.887H473.638C473.199 323.89 472.778 323.716 472.467 323.405C472.157 323.095 471.983 322.674 471.983 322.235C471.983 321.796 472.157 321.375 472.467 321.065C472.778 320.755 473.199 320.58 473.638 320.58H489.042C489.481 320.58 489.902 320.755 490.212 321.065C490.522 321.375 490.697 321.796 490.697 322.235V344.455C490.697 344.894 490.522 345.315 490.212 345.625C489.902 345.935 489.481 346.11 489.042 346.11H456.974C456.535 346.11 456.114 345.935 455.804 345.625C455.493 345.315 455.319 344.894 455.319 344.455C455.319 344.016 455.493 343.595 455.804 343.284C456.114 342.974 456.535 342.8 456.974 342.8H486.887Z" stroke="#0F0F24"/>
</g>
</g>
<path d="M548.745 417.809H45.0697C44.1171 417.809 43.2036 417.43 42.53 416.757C41.8564 416.083 41.478 415.17 41.478 414.217C41.478 413.265 41.8564 412.351 42.53 411.677C43.2036 411.004 44.1171 410.625 45.0697 410.625H548.745C549.698 410.625 550.612 411.004 551.285 411.677C551.959 412.351 552.337 413.265 552.337 414.217C552.337 415.17 551.959 416.083 551.285 416.757C550.612 417.43 549.698 417.809 548.745 417.809Z" fill="#0F0F24"/>
<path d="M28.7872 417.809H8.79381C7.84125 417.809 6.92769 417.43 6.25412 416.757C5.58055 416.083 5.20215 415.17 5.20215 414.217C5.20215 413.265 5.58055 412.351 6.25412 411.677C6.92769 411.004 7.84125 410.625 8.79381 410.625H28.7872C29.7397 410.625 30.6533 411.004 31.3269 411.677C32.0004 412.351 32.3788 413.265 32.3788 414.217C32.3788 415.17 32.0004 416.083 31.3269 416.757C30.6533 417.43 29.7397 417.809 28.7872 417.809Z" fill="#0F0F24"/>
<path d="M168.139 414.217H105.09V399.85H182.666L168.139 414.217Z" fill="#0F0F24"/>
<path d="M262.49 414.217H325.539V399.85H247.963L262.49 414.217Z" fill="#0F0F24"/>
<path d="M344.615 334.406C259.275 351.63 171.354 351.63 86.0146 334.406V262.523C86.0146 255.438 92.3654 248.305 100.238 246.812C176.355 233.203 254.282 233.203 330.399 246.812C338.264 248.305 344.615 255.438 344.615 262.523V334.406Z" fill="#969AFC"/>
<path d="M101.768 253.806C177.006 242.002 253.624 242.002 328.862 253.806C331.242 254.192 333.522 255.045 335.571 256.316C337.62 257.587 339.397 259.251 340.8 261.212V259.087C340.8 252.941 334.637 246.754 327 245.458C253.011 233.654 177.619 233.654 103.63 245.458C95.9924 246.752 89.8298 252.941 89.8291 259.087V261.212C91.2322 259.251 93.0095 257.587 95.0585 256.316C97.1074 255.045 99.3877 254.192 101.768 253.806Z" fill="#DFE0FF"/>
<path d="M193.102 316.183C167.805 318.678 142.323 318.678 117.026 316.183C114.361 315.913 111.875 314.717 110.002 312.802C108.129 310.888 106.987 308.377 106.775 305.707C106.402 301.053 106.402 296.376 106.775 291.722C106.987 289.052 108.129 286.541 110.002 284.626C111.876 282.712 114.362 281.516 117.027 281.246C142.324 278.75 167.805 278.75 193.103 281.246C195.768 281.516 198.253 282.712 200.127 284.626C202 286.541 203.143 289.052 203.355 291.722C203.727 296.376 203.727 301.053 203.355 305.707C203.143 308.378 202 310.889 200.126 312.803C198.253 314.717 195.767 315.913 193.102 316.183Z" fill="#5B5FD4"/>
<g style="mix-blend-mode:multiply" opacity="0.47">
<path d="M201.685 295.375C201.521 298.003 200.441 300.491 198.632 302.405C196.824 304.319 194.402 305.538 191.787 305.851C167.368 308.346 142.759 308.346 118.34 305.851C115.725 305.538 113.303 304.318 111.495 302.405C109.686 300.491 108.606 298.003 108.442 295.375C108.395 294.766 108.37 294.158 108.336 293.549C108.099 297.599 108.135 301.661 108.442 305.706C108.606 308.335 109.686 310.822 111.495 312.736C113.303 314.65 115.725 315.87 118.34 316.183C142.759 318.678 167.368 318.678 191.787 316.183C194.402 315.87 196.824 314.65 198.632 312.736C200.44 310.822 201.521 308.335 201.685 305.707C201.992 301.661 202.028 297.599 201.791 293.548C201.756 294.157 201.732 294.766 201.685 295.375Z" fill="#CE5555"/>
</g>
<g style="mix-blend-mode:screen" opacity="0.5">
<path d="M106.774 297.469C106.986 294.799 108.128 292.287 110.002 290.373C111.875 288.458 114.361 287.262 117.026 286.993C142.323 284.497 167.805 284.497 193.102 286.993C195.767 287.262 198.253 288.458 200.126 290.373C202 292.287 203.142 294.799 203.354 297.469C203.464 298.844 203.531 300.216 203.576 301.588C203.688 298.298 203.613 295.004 203.354 291.722C203.142 289.052 202 286.541 200.126 284.626C198.253 282.712 195.767 281.516 193.102 281.246C167.805 278.75 142.323 278.75 117.026 281.246C114.361 281.516 111.875 282.712 110.002 284.626C108.128 286.541 106.986 289.052 106.774 291.722C106.515 295.004 106.441 298.298 106.552 301.588C106.596 300.218 106.664 298.844 106.774 297.469Z" fill="#CE5555"/>
</g>
<path d="M155.064 321.642C142.237 321.642 129.41 321.013 116.673 319.757C113.168 319.41 109.896 317.841 107.432 315.324C104.968 312.808 103.467 309.504 103.193 305.992C102.803 301.148 102.803 296.28 103.193 291.436C103.467 287.924 104.968 284.621 107.432 282.105C109.897 279.588 113.168 278.019 116.673 277.671C142.205 275.159 167.922 275.159 193.454 277.671C196.959 278.019 200.23 279.588 202.695 282.105C205.159 284.621 206.66 287.924 206.934 291.436C207.324 296.28 207.324 301.148 206.934 305.992C206.66 309.504 205.159 312.807 202.695 315.323C200.23 317.84 196.959 319.409 193.454 319.756C180.717 321.013 167.89 321.642 155.064 321.642ZM155.064 282.97C142.471 282.97 129.882 283.586 117.378 284.819C115.55 285.003 113.845 285.823 112.561 287.137C111.277 288.451 110.495 290.175 110.354 292.007C109.994 296.471 109.994 300.957 110.354 305.421C110.495 307.253 111.277 308.977 112.561 310.291C113.845 311.605 115.55 312.425 117.378 312.609C142.441 315.074 167.686 315.074 192.749 312.609C194.577 312.425 196.282 311.605 197.566 310.291C198.851 308.977 199.632 307.253 199.773 305.421C200.133 300.957 200.133 296.471 199.773 292.007C199.632 290.175 198.851 288.451 197.566 287.137C196.282 285.823 194.577 285.003 192.749 284.819C180.248 283.586 167.653 282.97 155.064 282.97Z" fill="#0F0F24"/>
<path d="M313.604 316.183C288.306 318.678 262.825 318.678 237.528 316.183C234.863 315.913 232.377 314.717 230.503 312.802C228.63 310.888 227.488 308.377 227.276 305.707C226.903 301.053 226.903 296.376 227.276 291.722C227.488 289.052 228.63 286.541 230.503 284.626C232.377 282.712 234.863 281.516 237.528 281.246C262.825 278.75 288.306 278.75 313.604 281.246C316.268 281.516 318.754 282.712 320.627 284.626C322.501 286.541 323.643 289.052 323.855 291.722C324.228 296.376 324.228 301.053 323.855 305.707C323.643 308.377 322.501 310.888 320.627 312.802C318.754 314.717 316.268 315.913 313.604 316.183Z" fill="#5B5FD4"/>
<g style="mix-blend-mode:multiply" opacity="0.47">
<path d="M321.293 295.375C320.877 300.878 316.787 305.309 311.585 305.851C287.637 308.346 263.494 308.346 239.546 305.851C234.344 305.309 230.254 300.878 229.839 295.375C229.793 294.765 229.767 294.158 229.735 293.549C229.503 297.599 229.537 301.66 229.839 305.706C230.254 311.21 234.344 315.641 239.546 316.183C263.494 318.678 287.637 318.678 311.585 316.183C316.787 315.641 320.877 311.21 321.293 305.707C321.594 301.661 321.629 297.599 321.397 293.549C321.362 294.157 321.341 294.765 321.293 295.375Z" fill="#CE5555"/>
</g>
<g style="mix-blend-mode:screen" opacity="0.5">
<path d="M227.276 297.469C227.488 294.799 228.63 292.287 230.504 290.373C232.377 288.458 234.863 287.262 237.528 286.993C262.825 284.497 288.307 284.497 313.604 286.993C316.269 287.262 318.754 288.459 320.628 290.373C322.501 292.288 323.643 294.799 323.855 297.469C323.965 298.844 324.032 300.216 324.077 301.588C324.189 298.298 324.114 295.004 323.855 291.722C323.643 289.052 322.501 286.541 320.627 284.626C318.754 282.712 316.268 281.516 313.603 281.246C288.306 278.75 262.824 278.75 237.527 281.246C234.862 281.516 232.376 282.712 230.503 284.626C228.629 286.541 227.487 289.052 227.275 291.722C227.016 295.004 226.942 298.298 227.053 301.588C227.099 300.218 227.167 298.844 227.276 297.469Z" fill="#CE5555"/>
</g>
<path d="M275.565 321.642C262.739 321.642 249.912 321.013 237.175 319.757C233.67 319.41 230.399 317.84 227.934 315.324C225.47 312.807 223.969 309.504 223.695 305.992C223.305 301.148 223.305 296.28 223.695 291.436C223.969 287.925 225.47 284.621 227.934 282.105C230.399 279.588 233.67 278.019 237.175 277.671C262.707 275.159 288.424 275.159 313.956 277.671C317.461 278.019 320.733 279.588 323.197 282.105C325.662 284.621 327.162 287.924 327.436 291.436C327.826 296.28 327.826 301.148 327.436 305.992C327.162 309.504 325.661 312.807 323.197 315.323C320.732 317.84 317.461 319.409 313.956 319.756C301.219 321.013 288.392 321.642 275.565 321.642ZM275.565 282.97C262.973 282.97 250.385 283.586 237.88 284.82C236.052 285.003 234.347 285.824 233.063 287.138C231.778 288.452 230.997 290.175 230.856 292.007C230.496 296.471 230.496 300.957 230.856 305.421C230.997 307.253 231.778 308.977 233.063 310.291C234.347 311.605 236.052 312.425 237.88 312.609C262.943 315.074 288.188 315.074 313.251 312.609C315.079 312.425 316.784 311.605 318.068 310.291C319.353 308.977 320.134 307.253 320.275 305.421C320.635 300.957 320.635 296.471 320.275 292.007C320.134 290.175 319.353 288.452 318.068 287.138C316.784 285.824 315.079 285.003 313.251 284.82C300.75 283.586 288.154 282.97 275.565 282.97Z" fill="#0F0F24"/>
<path d="M215.314 350.916C171.653 350.915 128.101 346.564 85.3027 337.927C84.4908 337.762 83.7606 337.323 83.2358 336.682C82.711 336.041 82.4238 335.239 82.4229 334.41V262.523C82.4229 253.709 90.1133 245.077 99.5644 243.283C176.106 229.526 254.486 229.524 331.029 243.276C340.516 245.078 348.206 253.709 348.206 262.523V334.41C348.206 335.239 347.919 336.043 347.394 336.684C346.869 337.326 346.139 337.766 345.326 337.93C302.528 346.567 258.976 350.916 215.314 350.916ZM89.6062 331.462C131.011 339.622 173.113 343.732 215.314 343.732C257.516 343.732 299.618 339.622 341.023 331.462V262.523C341.023 257.082 335.851 251.503 329.725 250.34C254.043 236.744 176.544 236.746 100.864 250.347C94.7782 251.503 89.6062 257.082 89.6062 262.523V331.462Z" fill="#0F0F24"/>
<path d="M102.567 316.764H328.062C334.167 316.764 340.021 319.189 344.338 323.505C348.655 327.822 351.08 333.677 351.08 339.781H79.5498C79.5498 333.677 81.9748 327.822 86.2915 323.505C90.6081 319.189 96.4627 316.764 102.567 316.764Z" fill="#69DDEA"/>
<g style="mix-blend-mode:multiply" opacity="0.38">
<path d="M351.08 328.272H79.5498V339.781H351.08V328.272Z" fill="#69DDEA"/>
</g>
<path d="M351.08 343.373H79.5497C78.5971 343.373 77.6835 342.995 77.01 342.321C76.3364 341.647 75.958 340.734 75.958 339.781C75.966 332.727 78.772 325.963 83.7605 320.975C88.749 315.986 95.5125 313.18 102.567 313.172H328.062C335.117 313.18 341.881 315.986 346.869 320.974C351.858 325.963 354.664 332.727 354.671 339.781C354.671 340.734 354.293 341.647 353.619 342.321C352.946 342.995 352.032 343.373 351.08 343.373ZM83.4739 336.19H347.155C346.312 331.741 343.944 327.726 340.459 324.836C336.974 321.945 332.59 320.361 328.062 320.355H102.567C98.0396 320.361 93.6556 321.946 90.1705 324.836C86.6853 327.726 84.3172 331.741 83.4739 336.19Z" fill="#0F0F24"/>
<path d="M80.2681 339.781H350.361C351.886 339.781 353.347 340.387 354.425 341.464C355.503 342.542 356.108 344.004 356.108 345.528V399.85H74.5215V345.528C74.5215 344.004 75.1269 342.542 76.2046 341.464C77.2823 340.387 78.744 339.781 80.2681 339.781Z" fill="#AA7D5E"/>
<path d="M80.2681 339.781H350.361C351.886 339.781 353.347 340.387 354.425 341.464C355.503 342.542 356.108 344.004 356.108 345.528V399.85H74.5215V345.528C74.5215 344.004 75.1269 342.542 76.2046 341.464C77.2823 340.387 78.744 339.781 80.2681 339.781Z" fill="#969AFC"/>
<g style="mix-blend-mode:multiply" opacity="0.96">
<path d="M356.108 391.47H74.5215V399.851H356.108V391.47Z" fill="#5B5FD4"/>
</g>
<path d="M80.2681 339.781H350.361C351.886 339.781 353.347 340.387 354.425 341.464C355.503 342.542 356.108 344.004 356.108 345.528V347.324H74.5215V345.528C74.5215 344.004 75.1269 342.542 76.2046 341.464C77.2823 340.387 78.744 339.781 80.2681 339.781Z" fill="#DFE0FF"/>
<path d="M356.108 403.442H74.5214C73.5688 403.442 72.6552 403.064 71.9817 402.39C71.3081 401.717 70.9297 400.803 70.9297 399.851V345.528C70.9325 343.052 71.9173 340.679 73.668 338.928C75.4186 337.177 77.7922 336.193 80.268 336.19H350.361C352.837 336.193 355.211 337.177 356.961 338.928C358.712 340.679 359.697 343.052 359.7 345.528V399.851C359.7 400.803 359.321 401.717 358.648 402.39C357.974 403.064 357.061 403.442 356.108 403.442ZM78.113 396.259H352.516V345.528C352.516 344.956 352.289 344.408 351.885 344.004C351.481 343.6 350.933 343.373 350.361 343.373H80.268C79.6965 343.373 79.1483 343.6 78.7442 344.004C78.3401 344.408 78.113 344.956 78.113 345.528V396.259Z" fill="#0F0F24"/>
<path d="M168.139 417.809H105.09C104.137 417.809 103.224 417.43 102.55 416.757C101.876 416.083 101.498 415.17 101.498 414.217V399.85C101.498 398.898 101.876 397.984 102.55 397.311C103.224 396.637 104.137 396.259 105.09 396.259H182.665C183.377 396.259 184.073 396.47 184.665 396.867C185.256 397.263 185.717 397.827 185.987 398.485C186.258 399.144 186.327 399.868 186.185 400.566C186.043 401.264 185.697 401.903 185.191 402.404L170.664 416.771C169.992 417.436 169.084 417.809 168.139 417.809ZM108.681 410.625H166.662L173.926 403.442H108.681V410.625Z" fill="#0F0F24"/>
<path d="M325.539 417.809H262.49C261.544 417.809 260.637 417.436 259.964 416.771L245.438 402.404C244.931 401.903 244.585 401.264 244.444 400.566C244.302 399.868 244.371 399.144 244.641 398.485C244.912 397.827 245.372 397.263 245.964 396.867C246.555 396.47 247.251 396.259 247.963 396.259H325.539C326.492 396.259 327.405 396.637 328.079 397.311C328.752 397.984 329.131 398.898 329.131 399.85V414.217C329.131 415.17 328.752 416.083 328.079 416.757C327.405 417.43 326.492 417.809 325.539 417.809ZM263.966 410.625H321.947V403.442H256.703L263.966 410.625Z" fill="#0F0F24"/>
<path d="M222.011 79.3303H142.994V90.8237H222.011V79.3303Z" fill="#6A6A68"/>
<path d="M222.011 94.4152H142.994C142.042 94.4152 141.128 94.0368 140.455 93.3633C139.781 92.6897 139.403 91.7761 139.403 90.8236V79.3302C139.403 78.3777 139.781 77.4641 140.455 76.7906C141.128 76.117 142.042 75.7386 142.994 75.7386H222.011C222.964 75.7386 223.877 76.117 224.551 76.7906C225.224 77.4641 225.603 78.3777 225.603 79.3302V90.8236C225.603 91.7761 225.224 92.6897 224.551 93.3633C223.877 94.0368 222.964 94.4152 222.011 94.4152ZM146.586 87.2319H218.419V82.9219H146.586V87.2319Z" fill="#0F0F24"/>
<path d="M166.703 82.9219H149.946C148.994 82.9219 148.08 82.5435 147.406 81.8699C146.733 81.1964 146.354 80.2828 146.354 79.3302V19.1813C146.354 18.2288 146.733 17.3152 147.406 16.6416C148.08 15.9681 148.994 15.5897 149.946 15.5897H166.707C167.66 15.5897 168.573 15.9681 169.247 16.6416C169.92 17.3152 170.299 18.2288 170.299 19.1813V79.3302C170.299 79.8022 170.206 80.2695 170.025 80.7055C169.844 81.1415 169.579 81.5376 169.245 81.8712C168.912 82.2048 168.515 82.4693 168.079 82.6495C167.643 82.8298 167.175 82.9224 166.703 82.9219ZM153.538 75.7386H163.115V22.773H153.538V75.7386Z" fill="#0F0F24"/>
<g style="mix-blend-mode:multiply" opacity="0.38">
<path d="M166.704 19.1813H149.943V79.3302H166.704V19.1813Z" fill="#69DDEA"/>
</g>
<path d="M183.464 3.85718H166.704V79.3303H183.464V3.85718Z" fill="#FFCB47"/>
<path d="M183.465 82.9219H166.704C165.751 82.9219 164.838 82.5435 164.164 81.87C163.491 81.1964 163.112 80.2828 163.112 79.3303V3.85644C163.112 2.90387 163.491 1.99032 164.164 1.31675C164.838 0.643185 165.751 0.264771 166.704 0.264771H183.465C184.417 0.264771 185.331 0.643185 186.005 1.31675C186.678 1.99032 187.057 2.90387 187.057 3.85644V79.3303C187.057 80.2828 186.678 81.1964 186.005 81.87C185.331 82.5435 184.417 82.9219 183.465 82.9219ZM170.296 75.7386H179.873V7.4481H170.296V75.7386Z" fill="#0F0F24"/>
<path d="M198.364 14.6067L183.465 20.5621L205.79 76.4146L220.689 70.4592L198.364 14.6067Z" fill="#969AFC"/>
<path d="M205.79 80.009C205.072 80.0087 204.371 79.7933 203.777 79.3907C203.183 78.988 202.723 78.4165 202.456 77.7499L180.132 21.8973C179.957 21.4593 179.869 20.9911 179.875 20.5193C179.881 20.0476 179.98 19.5816 180.166 19.148C180.352 18.7144 180.621 18.3217 180.959 17.9923C181.297 17.6629 181.696 17.4032 182.134 17.2282L197.034 11.2732C197.472 11.098 197.94 11.0108 198.412 11.0166C198.883 11.0224 199.349 11.121 199.783 11.3069C200.216 11.4928 200.609 11.7624 200.939 12.1001C201.268 12.4378 201.528 12.8371 201.703 13.2752L224.023 69.1299C224.199 69.5679 224.286 70.0362 224.28 70.5079C224.274 70.9796 224.176 71.4456 223.99 71.8792C223.804 72.3128 223.534 72.7055 223.197 73.0349C222.859 73.3644 222.46 73.624 222.022 73.7991L207.122 79.7541C206.698 79.9228 206.246 80.0094 205.79 80.009ZM188.133 22.5654L207.791 71.7482L216.02 68.459L196.362 19.2776L188.133 22.5654Z" fill="#0F0F24"/>
<path d="M244.475 107.298H171.14V180.281H244.475V107.298Z" fill="#F9F9F9"/>
<path d="M244.479 183.871H171.137C170.185 183.871 169.271 183.493 168.597 182.819C167.924 182.146 167.545 181.232 167.545 180.28V107.297C167.545 106.345 167.924 105.431 168.597 104.757C169.271 104.084 170.185 103.705 171.137 103.705H244.479C245.431 103.705 246.345 104.084 247.019 104.757C247.692 105.431 248.071 106.345 248.071 107.297V180.28C248.071 181.232 247.692 182.146 247.019 182.819C246.345 183.493 245.431 183.871 244.479 183.871ZM174.735 176.688H240.887V110.889H174.729L174.735 176.688Z" fill="#0F0F24"/>
<path d="M236.574 172.379V115.2H179.042V172.379H236.574Z" fill="#9FDFE7"/>
<path d="M313.392 54.3323H258.043V127.315H313.392V54.3323Z" fill="#F9F9F9"/>
<path d="M313.393 130.907H258.043C257.091 130.907 256.177 130.528 255.504 129.855C254.83 129.181 254.452 128.267 254.452 127.315V54.3323C254.452 53.3797 254.83 52.4661 255.504 51.7926C256.177 51.119 257.091 50.7406 258.043 50.7406H313.393C314.346 50.7406 315.259 51.119 315.933 51.7926C316.606 52.4661 316.985 53.3797 316.985 54.3323V127.315C316.985 127.787 316.892 128.254 316.711 128.689C316.531 129.125 316.266 129.521 315.933 129.855C315.599 130.188 315.203 130.453 314.768 130.633C314.332 130.814 313.865 130.907 313.393 130.907ZM261.635 123.723H309.801V57.9239H261.635V123.723Z" fill="#0F0F24"/>
<path d="M305.492 119.413V62.2339H265.946V119.413H305.492Z" fill="#9FD3ED"/>
<path d="M333.506 143.789H258.043V200.298H333.506V143.789Z" fill="#F9F9F9"/>
<path d="M333.506 203.889H258.043C257.091 203.889 256.177 203.511 255.504 202.837C254.83 202.164 254.452 201.25 254.452 200.298V143.789C254.452 142.837 254.83 141.923 255.504 141.249C256.177 140.576 257.091 140.198 258.043 140.198H333.506C334.459 140.198 335.373 140.576 336.046 141.249C336.72 141.923 337.098 142.837 337.098 143.789V200.298C337.098 201.25 336.72 202.164 336.046 202.837C335.373 203.511 334.459 203.889 333.506 203.889ZM261.635 196.706H329.915V147.381H261.635V196.706Z" fill="#0F0F24"/>
<path d="M325.604 192.397V151.691H265.945V192.397H325.604Z" fill="#F97D7D"/>
<path d="M477.657 87.0722L450.569 59.9843C444.949 54.3643 435.837 54.3643 430.217 59.9843L403.129 87.0722C397.509 92.6922 397.509 101.804 403.129 107.424L430.217 134.512C435.837 140.132 444.949 140.132 450.569 134.512L477.657 107.424C483.277 101.804 483.277 92.6923 477.657 87.0722Z" fill="#F9F9F9"/>
<path d="M433.657 66.8313C435.531 65.2198 437.921 64.3336 440.393 64.3336C442.865 64.3336 445.255 65.2198 447.129 66.8313L483.06 99.1254C482.985 95.3846 481.431 91.826 478.737 89.2296L450.865 62.142C448.05 59.4373 444.298 57.9267 440.395 57.9267C436.491 57.9267 432.739 59.4373 429.924 62.142L402.052 89.2296C399.358 91.826 397.804 95.3846 397.729 99.1254L433.657 66.8313Z" fill="#BFBFBF"/>
<path d="M440.393 142.31C438.032 142.314 435.693 141.852 433.511 140.949C431.329 140.047 429.347 138.722 427.678 137.051L400.591 109.964C397.224 106.589 395.333 102.016 395.333 97.2491C395.333 92.482 397.224 87.9095 400.591 84.5346L427.678 57.4463C431.053 54.0795 435.626 52.1888 440.393 52.1888C445.16 52.1888 449.732 54.0795 453.107 57.4463L480.195 84.5346C483.567 87.9068 485.461 92.4803 485.461 97.2491C485.461 102.018 483.567 106.591 480.195 109.964L453.107 137.051C451.439 138.722 449.457 140.046 447.275 140.949C445.093 141.851 442.754 142.314 440.393 142.31ZM432.754 131.972C434.781 133.994 437.528 135.13 440.391 135.13C443.254 135.13 446.001 133.994 448.028 131.972L475.116 104.884C477.141 102.859 478.278 100.112 478.278 97.248C478.278 94.384 477.141 91.6372 475.116 89.6118L448.03 62.5213C446.003 60.4991 443.257 59.3635 440.393 59.3635C437.53 59.3635 434.784 60.4991 432.756 62.5213L405.669 89.6096C403.647 91.6366 402.511 94.3828 402.511 97.2459C402.511 100.109 403.647 102.855 405.669 104.882L432.754 131.972Z" fill="#0F0F24"/>
<path d="M440.394 68.2392C439.822 68.2392 439.274 68.0122 438.87 67.608C438.466 67.2039 438.239 66.6558 438.239 66.0842V60.446C438.239 59.8745 438.466 59.3263 438.87 58.9222C439.274 58.5181 439.822 58.291 440.394 58.291C440.965 58.291 441.513 58.5181 441.918 58.9222C442.322 59.3263 442.549 59.8745 442.549 60.446V66.0842C442.549 66.6558 442.322 67.2039 441.918 67.608C441.513 68.0122 440.965 68.2392 440.394 68.2392Z" fill="#0F0F24"/>
<path d="M440.394 136.204C439.822 136.204 439.274 135.977 438.87 135.573C438.466 135.169 438.239 134.621 438.239 134.049V128.411C438.239 127.84 438.466 127.291 438.87 126.887C439.274 126.483 439.822 126.256 440.394 126.256C440.965 126.256 441.513 126.483 441.918 126.887C442.322 127.291 442.549 127.84 442.549 128.411V134.049C442.549 134.621 442.322 135.169 441.918 135.573C441.513 135.977 440.965 136.204 440.394 136.204Z" fill="#0F0F24"/>
<path d="M477.195 99.4027H471.556C470.985 99.4027 470.437 99.1756 470.033 98.7715C469.628 98.3673 469.401 97.8192 469.401 97.2477C469.401 96.6761 469.628 96.128 470.033 95.7238C470.437 95.3197 470.985 95.0927 471.556 95.0927H477.195C477.766 95.0927 478.314 95.3197 478.718 95.7238C479.123 96.128 479.35 96.6761 479.35 97.2477C479.35 97.8192 479.123 98.3673 478.718 98.7715C478.314 99.1756 477.766 99.4027 477.195 99.4027Z" fill="#0F0F24"/>
<path d="M409.23 99.4027H403.59C403.018 99.4027 402.47 99.1756 402.066 98.7715C401.662 98.3673 401.435 97.8192 401.435 97.2477C401.435 96.6761 401.662 96.128 402.066 95.7238C402.47 95.3197 403.018 95.0927 403.59 95.0927H409.228C409.799 95.0927 410.347 95.3197 410.752 95.7238C411.156 96.128 411.383 96.6761 411.383 97.2477C411.383 97.8192 411.156 98.3673 410.752 98.7715C410.347 99.1756 409.799 99.4027 409.228 99.4027H409.23Z" fill="#0F0F24"/>
<path d="M440.393 100.121C439.666 100.122 438.967 99.847 438.436 99.3516L429.393 90.9399C429.117 90.6829 428.894 90.3739 428.737 90.0307C428.58 89.6874 428.492 89.3167 428.478 88.9395C428.465 88.5624 428.526 88.1863 428.657 87.8326C428.789 87.479 428.989 87.1548 429.246 86.8785C429.503 86.6022 429.812 86.3792 430.156 86.2223C430.499 86.0654 430.87 85.9776 431.247 85.964C431.624 85.9504 432 86.0112 432.354 86.143C432.707 86.2748 433.031 86.4749 433.308 86.7319L442.351 95.1436C442.774 95.5367 443.068 96.0481 443.196 96.611C443.324 97.1739 443.279 97.7624 443.068 98.2995C442.857 98.8367 442.488 99.2978 442.011 99.6227C441.534 99.9476 440.97 100.121 440.393 100.121Z" fill="#0F0F24"/>
<path d="M440.392 100.08C440.062 100.08 439.739 99.9885 439.457 99.8164C439.176 99.6444 438.947 99.3982 438.797 99.1047C438.646 98.8113 438.579 98.482 438.603 98.1531C438.627 97.8241 438.741 97.5081 438.933 97.2397L452.444 78.344C452.58 78.1493 452.753 77.9835 452.953 77.8562C453.154 77.7289 453.378 77.6426 453.612 77.6024C453.846 77.5622 454.085 77.5688 454.317 77.6219C454.548 77.6749 454.767 77.7734 454.96 77.9115C455.154 78.0496 455.317 78.2247 455.442 78.4266C455.568 78.6285 455.651 78.8532 455.689 79.0877C455.727 79.3222 455.717 79.5619 455.662 79.7928C455.606 80.0237 455.505 80.2412 455.365 80.4329L441.854 99.3287C441.688 99.5615 441.469 99.7511 441.214 99.8819C440.96 100.013 440.678 100.081 440.392 100.08Z" fill="#0F0F24"/>
<path d="M441.096 101.674C443.541 101.674 445.523 99.6923 445.523 97.2477C445.523 94.8031 443.541 92.8213 441.096 92.8213C438.652 92.8213 436.67 94.8031 436.67 97.2477C436.67 99.6923 438.652 101.674 441.096 101.674Z" fill="#0F0F24"/>
<path d="M486.845 307.723H384.842V401.106H486.845V307.723Z" fill="#DDDDDD"/>
<path d="M478.226 350.854V315.836H393.462V350.854H478.226Z" fill="#F9F7F6"/>
<path d="M478.226 392.993V357.974H393.462V392.993H478.226Z" fill="#F9F7F6"/>
<path d="M478.226 363.331V357.974H393.462V363.331H478.226Z" fill="#DDDDDD"/>
<path d="M486.844 404.698H384.841C383.889 404.698 382.975 404.319 382.301 403.646C381.628 402.972 381.25 402.059 381.25 401.106V307.723C381.25 306.77 381.628 305.857 382.301 305.183C382.975 304.51 383.889 304.131 384.841 304.131H486.844C487.797 304.131 488.711 304.51 489.384 305.183C490.058 305.857 490.436 306.77 490.436 307.723V401.106C490.436 402.059 490.058 402.972 489.384 403.646C488.711 404.319 487.797 404.698 486.844 404.698ZM388.433 397.514H483.253V311.314H388.433V397.514Z" fill="#0F0F24"/>
<path d="M478.226 321.193V315.836H393.462V321.193H478.226Z" fill="#DDDDDD"/>
<path d="M478.224 353.009H393.461C392.89 353.009 392.341 352.782 391.937 352.378C391.533 351.974 391.306 351.426 391.306 350.854V315.836C391.306 315.264 391.533 314.716 391.937 314.312C392.341 313.908 392.89 313.681 393.461 313.681H478.224C478.796 313.681 479.344 313.908 479.748 314.312C480.152 314.716 480.379 315.264 480.379 315.836V350.854C480.379 351.426 480.152 351.974 479.748 352.378C479.344 352.782 478.796 353.009 478.224 353.009ZM395.616 348.699H476.069V317.991H395.616V348.699Z" fill="#0F0F24"/>
<path d="M478.224 395.148H393.461C392.89 395.148 392.341 394.921 391.937 394.516C391.533 394.112 391.306 393.564 391.306 392.993V357.972C391.306 357.4 391.533 356.852 391.937 356.448C392.341 356.044 392.89 355.817 393.461 355.817H478.224C478.796 355.817 479.344 356.044 479.748 356.448C480.152 356.852 480.379 357.4 480.379 357.972V392.99C480.38 393.274 480.324 393.554 480.216 393.816C480.108 394.077 479.949 394.315 479.749 394.516C479.549 394.716 479.311 394.875 479.05 394.983C478.788 395.092 478.508 395.148 478.224 395.148ZM395.616 390.838H476.069V360.127H395.616V390.838Z" fill="#0F0F24"/>
<path d="M463.858 301.588C462.715 301.588 461.618 301.134 460.81 300.325C460.002 299.517 459.548 298.421 459.548 297.278V245.588C459.548 232.632 449.773 222.093 437.759 222.093C425.744 222.093 415.969 232.632 415.969 245.588V249.628C415.969 250.771 415.515 251.868 414.706 252.676C413.898 253.484 412.802 253.938 411.659 253.938C410.516 253.938 409.419 253.484 408.611 252.676C407.803 251.868 407.349 250.771 407.349 249.628V245.588C407.349 227.879 420.99 213.473 437.759 213.473C454.527 213.473 468.168 227.882 468.168 245.588V297.278C468.168 298.421 467.714 299.517 466.905 300.325C466.097 301.134 465.001 301.588 463.858 301.588Z" fill="#0F0F24"/>
<path d="M474.874 294.793H439.076V307.723H474.874V294.793Z" fill="#5B5FD4"/>
<g style="mix-blend-mode:screen" opacity="0.44">
<path d="M474.874 294.793H439.076V300.631H474.874V294.793Z" fill="#B67DBC"/>
</g>
<path d="M474.874 311.315H439.076C438.123 311.315 437.209 310.936 436.536 310.263C435.862 309.589 435.484 308.675 435.484 307.723V294.793C435.484 293.84 435.862 292.927 436.536 292.253C437.209 291.58 438.123 291.201 439.076 291.201H474.874C475.826 291.201 476.74 291.58 477.413 292.253C478.087 292.927 478.465 293.84 478.465 294.793V307.723C478.465 308.675 478.087 309.589 477.413 310.263C476.74 310.936 475.826 311.315 474.874 311.315ZM442.667 304.131H471.282V298.385H442.667V304.131Z" fill="#0F0F24"/>
<path d="M430.851 271.52C431.506 268.827 431.835 266.066 431.832 263.295C431.832 248.555 422.8 236.605 411.659 236.605C400.517 236.605 391.486 248.555 391.486 263.295C391.483 266.066 391.812 268.827 392.466 271.52H430.851Z" fill="#5B5FD4"/>
<path d="M417.473 251.134C417.502 246.169 416.369 241.266 414.165 236.818C413.337 236.678 412.499 236.606 411.659 236.602C400.518 236.602 391.486 248.552 391.486 263.292C391.483 266.063 391.812 268.824 392.466 271.517H409.99C414.574 266.557 417.473 259.267 417.473 251.134Z" fill="#969AFC"/>
<path d="M430.852 275.111H392.467C391.662 275.111 390.881 274.841 390.249 274.345C389.616 273.848 389.169 273.153 388.978 272.372C388.255 269.401 387.892 266.353 387.895 263.295C387.895 246.598 398.556 233.013 411.659 233.013C424.762 233.013 435.424 246.598 435.424 263.295C435.427 266.353 435.063 269.401 434.341 272.372C434.15 273.153 433.703 273.848 433.07 274.345C432.437 274.841 431.656 275.111 430.852 275.111ZM395.42 267.928H427.899C428.127 266.394 428.241 264.846 428.24 263.295C428.24 250.559 420.802 240.197 411.659 240.197C402.516 240.197 395.078 250.559 395.078 263.295C395.078 264.846 395.192 266.394 395.42 267.928Z" fill="#0F0F24"/>
<g style="mix-blend-mode:hard-light">
<path d="M423.893 337.873V328.817H447.795V337.873H423.893Z" fill="#2C2E6F"/>
<path d="M423.893 337.873V328.817H447.795V337.873H423.893Z" stroke="#0F0F24"/>
</g>
<path d="M448.296 340.528H423.393C422.822 340.528 422.274 340.301 421.869 339.897C421.465 339.493 421.238 338.945 421.238 338.373V328.317C421.238 327.745 421.465 327.197 421.869 326.793C422.274 326.389 422.822 326.162 423.393 326.162H448.296C448.867 326.162 449.415 326.389 449.82 326.793C450.224 327.197 450.451 327.745 450.451 328.317V338.373C450.451 338.945 450.224 339.493 449.82 339.897C449.415 340.301 448.867 340.528 448.296 340.528ZM425.548 336.218H446.141V330.472H425.548V336.218Z" fill="#0F0F24"/>
<g style="mix-blend-mode:hard-light">
<path d="M423.893 380.011V370.955H447.795V380.011H423.893Z" fill="#2C2E6F"/>
<path d="M423.893 380.011V370.955H447.795V380.011H423.893Z" stroke="#0F0F24"/>
</g>
<path d="M448.296 382.666H423.393C422.822 382.666 422.274 382.439 421.869 382.035C421.465 381.631 421.238 381.083 421.238 380.511V370.455C421.238 369.883 421.465 369.335 421.869 368.931C422.274 368.527 422.822 368.3 423.393 368.3H448.296C448.867 368.3 449.415 368.527 449.82 368.931C450.224 369.335 450.451 369.883 450.451 370.455V380.511C450.451 381.083 450.224 381.631 449.82 382.035C449.415 382.439 448.867 382.666 448.296 382.666ZM425.548 378.356H446.141V372.61H425.548V378.356Z" fill="#0F0F24"/>
<path d="M414.055 414.217H393.941V401.106H425.548L414.055 414.217Z" fill="#0F0F24"/>
<path d="M414.055 417.809H393.941C392.989 417.809 392.075 417.43 391.402 416.757C390.728 416.083 390.35 415.17 390.35 414.217V401.106C390.35 400.154 390.728 399.24 391.402 398.566C392.075 397.893 392.989 397.514 393.941 397.514H425.548C426.239 397.514 426.915 397.713 427.496 398.087C428.077 398.461 428.537 398.995 428.822 399.624C429.107 400.253 429.205 400.951 429.103 401.635C429.001 402.318 428.705 402.958 428.249 403.477L416.755 416.588C416.418 416.972 416.003 417.279 415.537 417.49C415.071 417.7 414.566 417.809 414.055 417.809ZM397.533 410.625H412.425L417.622 404.698H397.533V410.625Z" fill="#0F0F24"/>
<path d="M457.633 414.217H477.747V401.106H446.14L457.633 414.217Z" fill="#0F0F24"/>
<path d="M477.747 417.809H457.634C457.122 417.809 456.617 417.7 456.151 417.49C455.685 417.279 455.27 416.972 454.933 416.588L443.439 403.477C442.983 402.958 442.687 402.318 442.585 401.635C442.483 400.951 442.581 400.253 442.866 399.624C443.151 398.995 443.612 398.461 444.192 398.087C444.773 397.713 445.449 397.514 446.14 397.514H477.747C478.699 397.514 479.613 397.893 480.287 398.566C480.96 399.24 481.339 400.154 481.339 401.106V414.217C481.339 415.17 480.96 416.083 480.287 416.757C479.613 417.43 478.699 417.809 477.747 417.809ZM459.261 410.625H474.154V404.698H454.065L459.261 410.625Z" fill="#0F0F24"/>
<g style="mix-blend-mode:screen" opacity="0.44">
<path d="M435.344 249.191C436.029 247.672 435.61 246.001 434.408 245.459C433.206 244.917 431.676 245.709 430.991 247.228C430.306 248.746 430.725 250.417 431.927 250.96C433.129 251.502 434.659 250.71 435.344 249.191Z" fill="#B67DBC"/>
</g>
<path d="M185.504 147.141C185.22 147.141 184.942 147.057 184.706 146.899C184.47 146.741 184.285 146.516 184.177 146.254C184.068 145.991 184.04 145.703 184.095 145.424C184.15 145.145 184.287 144.889 184.488 144.688L204.134 125.042C204.405 124.78 204.768 124.636 205.145 124.639C205.522 124.642 205.882 124.793 206.148 125.06C206.415 125.326 206.566 125.686 206.569 126.063C206.572 126.44 206.428 126.803 206.166 127.074L186.519 146.72C186.386 146.854 186.228 146.96 186.054 147.032C185.879 147.104 185.692 147.141 185.504 147.141Z" fill="#0F0F24"/>
<path d="M203.175 145.226C202.891 145.226 202.613 145.141 202.377 144.984C202.141 144.826 201.957 144.601 201.848 144.339C201.739 144.076 201.711 143.788 201.766 143.509C201.822 143.23 201.959 142.974 202.159 142.773L219.89 125.042C220.161 124.78 220.524 124.636 220.901 124.639C221.277 124.642 221.638 124.793 221.904 125.06C222.17 125.326 222.321 125.686 222.325 126.063C222.328 126.44 222.183 126.803 221.921 127.074L204.188 144.805C203.919 145.074 203.555 145.225 203.175 145.226Z" fill="#0F0F24"/>
<path d="M189.398 158.999C189.114 158.999 188.836 158.915 188.6 158.757C188.364 158.599 188.179 158.375 188.071 158.112C187.962 157.85 187.934 157.561 187.989 157.282C188.044 157.004 188.181 156.748 188.382 156.547L195.608 149.32C195.878 149.051 196.243 148.899 196.624 148.899C197.005 148.899 197.371 149.051 197.64 149.32C197.91 149.589 198.061 149.955 198.061 150.336C198.061 150.717 197.91 151.082 197.641 151.352L190.414 158.579C190.28 158.712 190.122 158.818 189.948 158.89C189.773 158.963 189.586 159 189.398 158.999Z" fill="#0F0F24"/>
<path d="M274.457 89.7698C274.173 89.7698 273.895 89.6854 273.659 89.5276C273.423 89.3697 273.239 89.1454 273.13 88.8829C273.021 88.6204 272.993 88.3316 273.048 88.0529C273.104 87.7743 273.24 87.5183 273.441 87.3174L286.85 73.9083C286.984 73.7749 287.142 73.6691 287.316 73.5969C287.491 73.5248 287.678 73.4876 287.866 73.4877C288.055 73.4877 288.242 73.5249 288.416 73.5971C288.59 73.6694 288.749 73.7752 288.882 73.9087C289.015 74.0421 289.121 74.2005 289.193 74.3748C289.266 74.5491 289.303 74.736 289.303 74.9246C289.303 75.1133 289.265 75.3001 289.193 75.4744C289.121 75.6487 289.015 75.8071 288.882 75.9405L275.473 89.3496C275.203 89.6188 274.838 89.7699 274.457 89.7698Z" fill="#0F0F24"/>
<path d="M294.524 86.5136C294.24 86.5136 293.962 86.4293 293.726 86.2714C293.49 86.1135 293.305 85.8892 293.197 85.6267C293.088 85.3642 293.06 85.0754 293.115 84.7968C293.17 84.5181 293.307 84.2622 293.508 84.0612L298.68 78.8892C298.951 78.6275 299.314 78.4827 299.691 78.486C300.067 78.4893 300.428 78.6404 300.694 78.9067C300.96 79.1731 301.111 79.5335 301.115 79.9101C301.118 80.2868 300.973 80.6497 300.712 80.9207L295.539 86.0927C295.27 86.3621 294.905 86.5135 294.524 86.5136Z" fill="#0F0F24"/>
<path d="M272.302 108.734C272.018 108.734 271.74 108.65 271.504 108.492C271.268 108.334 271.084 108.11 270.975 107.848C270.866 107.585 270.838 107.296 270.893 107.018C270.949 106.739 271.086 106.483 271.286 106.282L287.761 89.8078C288.032 89.5461 288.395 89.4013 288.772 89.4046C289.149 89.4079 289.509 89.559 289.775 89.8253C290.042 90.0917 290.193 90.452 290.196 90.8287C290.199 91.2054 290.054 91.5683 289.793 91.8393L273.318 108.314C273.185 108.447 273.026 108.553 272.852 108.625C272.678 108.698 272.491 108.735 272.302 108.734Z" fill="#0F0F24"/>
<path d="M283.981 184.776C283.697 184.776 283.419 184.691 283.183 184.534C282.947 184.376 282.763 184.151 282.654 183.889C282.546 183.626 282.517 183.338 282.573 183.059C282.628 182.78 282.765 182.524 282.966 182.323L307.209 158.08C307.48 157.818 307.843 157.673 308.22 157.676C308.597 157.68 308.957 157.831 309.223 158.097C309.49 158.364 309.641 158.724 309.644 159.101C309.647 159.477 309.502 159.84 309.241 160.111L284.997 184.355C284.728 184.624 284.362 184.776 283.981 184.776Z" fill="#0F0F24"/>
<path d="M280.252 173.48C279.968 173.48 279.69 173.396 279.454 173.238C279.218 173.08 279.034 172.856 278.925 172.593C278.817 172.331 278.788 172.042 278.844 171.763C278.899 171.485 279.036 171.229 279.237 171.028L290.165 160.097C290.436 159.836 290.799 159.691 291.176 159.694C291.553 159.698 291.913 159.849 292.179 160.115C292.446 160.381 292.597 160.742 292.6 161.118C292.603 161.495 292.458 161.858 292.197 162.129L281.266 173.059C280.997 173.328 280.633 173.479 280.252 173.48Z" fill="#0F0F24"/>
<path d="M189.195 38.4909C188.366 38.4919 187.562 38.2058 186.919 37.6813C186.277 37.1568 185.836 36.4261 185.671 35.6133C185.506 34.8006 185.627 33.9558 186.015 33.2224C186.402 32.489 187.031 31.9122 187.795 31.5899L202.578 25.3404C203.455 24.9694 204.444 24.9623 205.327 25.3204C206.209 25.6785 206.914 26.3727 207.284 27.2501C207.655 28.1275 207.663 29.1163 207.304 29.999C206.946 30.8817 206.252 31.586 205.375 31.9569L190.592 38.2064C190.15 38.3937 189.675 38.4904 189.195 38.4909Z" fill="#0F0F24"/>
<path d="M183.465 26.4969H166.704C165.751 26.4969 164.838 26.1185 164.164 25.4449C163.491 24.7713 163.112 23.8578 163.112 22.9052C163.112 21.9526 163.491 21.0391 164.164 20.3655C164.838 19.6919 165.751 19.3135 166.704 19.3135H183.465C184.417 19.3135 185.331 19.6919 186.005 20.3655C186.678 21.0391 187.057 21.9526 187.057 22.9052C187.057 23.8578 186.678 24.7713 186.005 25.4449C185.331 26.1185 184.417 26.4969 183.465 26.4969Z" fill="#0F0F24"/>
<path d="M166.703 36.282H149.946C148.994 36.282 148.08 35.9036 147.406 35.2301C146.733 34.5565 146.354 33.6429 146.354 32.6904C146.354 31.7378 146.733 30.8242 147.406 30.1507C148.08 29.4771 148.994 29.0987 149.946 29.0987H166.707C167.66 29.0987 168.573 29.4771 169.247 30.1507C169.92 30.8242 170.299 31.7378 170.299 32.6904C170.299 33.6429 169.92 34.5565 169.247 35.2301C168.573 35.9036 167.66 36.282 166.707 36.282H166.703Z" fill="#0F0F24"/>
<path d="M103.293 188.804H24.2769V200.298H103.293V188.804Z" fill="#6A6A68"/>
<path d="M103.293 203.889H24.2767C23.3242 203.889 22.4106 203.511 21.737 202.837C21.0635 202.164 20.6851 201.25 20.6851 200.298V188.804C20.6851 187.852 21.0635 186.938 21.737 186.265C22.4106 185.591 23.3242 185.213 24.2767 185.213H103.293C104.246 185.213 105.159 185.591 105.833 186.265C106.507 186.938 106.885 187.852 106.885 188.804V200.298C106.885 201.25 106.507 202.164 105.833 202.837C105.159 203.511 104.246 203.889 103.293 203.889ZM27.8684 196.706H99.7017V192.396H27.8684V196.706Z" fill="#0F0F24"/>
<path d="M63.7687 109.764C63.2924 109.764 62.8356 109.575 62.4989 109.238C62.1621 108.901 61.9729 108.444 61.9729 107.968V61.0846L49.7389 51.5825C49.3704 51.2879 49.1326 50.86 49.077 50.3914C49.0214 49.9228 49.1524 49.4512 49.4418 49.0785C49.7312 48.7058 50.1556 48.4619 50.6234 48.3997C51.0911 48.3374 51.5646 48.4618 51.9413 48.7458L64.8713 58.7852C65.0875 58.9531 65.2625 59.168 65.3829 59.4138C65.5033 59.6596 65.5659 59.9296 65.566 60.2032V107.968C65.566 108.204 65.5195 108.438 65.4291 108.656C65.3388 108.874 65.2064 109.072 65.0395 109.238C64.8726 109.405 64.6744 109.537 64.4564 109.628C64.2383 109.718 64.0047 109.764 63.7687 109.764Z" fill="#0F0F24"/>
<path d="M70.249 111.201C69.7727 111.201 69.3159 111.011 68.9791 110.675C68.6423 110.338 68.4531 109.881 68.4531 109.405V85.5223C68.4531 85.046 68.6423 84.5892 68.9791 84.2524C69.3159 83.9156 69.7727 83.7264 70.249 83.7264C70.7252 83.7264 71.182 83.9156 71.5188 84.2524C71.8556 84.5892 72.0448 85.046 72.0448 85.5223V109.405C72.0448 109.881 71.8556 110.338 71.5188 110.675C71.182 111.011 70.7252 111.201 70.249 111.201Z" fill="#0F0F24"/>
<path d="M56.3237 110.003C55.8474 110.003 55.3906 109.814 55.0538 109.477C54.717 109.14 54.5278 108.684 54.5278 108.207V67.9806C54.5278 67.5043 54.717 67.0475 55.0538 66.7107C55.3906 66.374 55.8474 66.1848 56.3237 66.1848C56.7999 66.1848 57.2567 66.374 57.5935 66.7107C57.9303 67.0475 58.1195 67.5043 58.1195 67.9806V108.207C58.1195 108.684 57.9303 109.14 57.5935 109.477C57.2567 109.814 56.7999 110.003 56.3237 110.003Z" fill="#0F0F24"/>
<path d="M76.3546 147.076V100.449H51.2129V147.076C51.2115 147.866 51.0443 148.648 50.7219 149.369C50.3996 150.091 49.9294 150.737 49.3416 151.266C46.1074 154.186 43.8343 158.018 42.8222 162.256C41.8102 166.495 42.1067 170.94 43.6727 175.006C45.2387 179.073 48.0007 182.569 51.5941 185.033C55.1876 187.498 59.4437 188.815 63.8011 188.812C68.1586 188.808 72.4125 187.483 76.0018 185.013C79.5911 182.542 82.347 179.041 83.9062 174.972C85.4653 170.903 85.7543 166.458 84.7351 162.221C83.7159 157.984 81.4363 154.156 78.1971 151.242C77.6154 150.715 77.1508 150.072 76.8334 149.355C76.516 148.637 76.3529 147.861 76.3546 147.076Z" fill="#FFCB47"/>
<g style="mix-blend-mode:screen" opacity="0.6">
<g style="mix-blend-mode:screen" opacity="0.6">
<path d="M85.3349 154.533C84.8781 153.694 84.3662 152.887 83.8027 152.115C84.0937 153.041 84.6219 153.875 85.3349 154.533Z" fill="#7D80BA"/>
</g>
<g style="mix-blend-mode:screen" opacity="0.6">
<path d="M49.4356 171.433C49.31 168.279 49.8804 165.137 51.1064 162.229C52.3324 159.321 54.1838 156.719 56.5291 154.607C57.1162 154.078 57.5858 153.432 57.9075 152.71C58.2292 151.988 58.3959 151.207 58.3968 150.417V103.79H78.9878V98.0436H53.8461V144.67C53.8453 145.46 53.6787 146.242 53.357 146.963C53.0353 147.685 52.5656 148.332 51.9785 148.861C49.7352 150.88 47.9426 153.349 46.7175 156.107C45.4925 158.865 44.8625 161.851 44.8687 164.869C44.8749 167.887 45.517 170.87 46.7533 173.623C47.9896 176.376 49.7923 178.838 52.0438 180.848C50.4556 177.954 49.5627 174.731 49.4356 171.433Z" fill="#7D80BA"/>
</g>
</g>
<path d="M63.8075 192.396C63.2692 192.396 62.729 192.379 62.1869 192.346C57.2513 192.033 52.5176 190.271 48.5786 187.28C44.6396 184.29 41.6702 180.204 40.0421 175.534C38.4141 170.864 38.1998 165.818 39.4261 161.027C40.6523 156.236 43.2646 151.913 46.936 148.599C47.1508 148.407 47.3229 148.172 47.4413 147.909C47.5597 147.646 47.6217 147.362 47.6234 147.073V100.449C47.6234 99.4968 48.0018 98.5832 48.6754 97.9096C49.349 97.2361 50.2625 96.8577 51.2151 96.8577H76.3567C77.3093 96.8577 78.2229 97.2361 78.8964 97.9096C79.57 98.5832 79.9484 99.4968 79.9484 100.449V147.076C79.9469 147.358 80.0044 147.636 80.1172 147.894C80.2301 148.152 80.3957 148.383 80.6035 148.573C83.1898 150.899 85.265 153.737 86.6977 156.907C88.1304 160.077 88.8895 163.509 88.9269 166.988C88.9643 170.466 88.2792 173.914 86.915 177.114C85.5508 180.314 83.5371 183.196 81.0015 185.578C76.3582 189.974 70.2017 192.415 63.8075 192.396ZM54.8067 104.041V147.076C54.8042 148.368 54.531 149.646 54.0048 150.827C53.4787 152.008 52.7112 153.065 51.7517 153.931C49.0561 156.365 47.1616 159.558 46.3179 163.09C45.4743 166.622 45.7212 170.326 47.0261 173.715C48.3309 177.104 50.6325 180.017 53.6271 182.071C56.6217 184.125 60.1686 185.223 63.7999 185.22C67.4312 185.217 70.9763 184.113 73.9674 182.054C76.9586 179.995 79.2552 177.078 80.5544 173.687C81.8537 170.296 82.0944 166.591 81.2448 163.061C80.3952 159.53 78.4953 156.34 75.7957 153.911C74.8403 153.047 74.0768 151.993 73.5545 150.815C73.0322 149.638 72.7628 148.364 72.7636 147.076V104.041H54.8067Z" fill="#0F0F24"/>
<path d="M63.7699 74.2071C63.3851 74.2076 63.0103 74.0843 62.7008 73.8557C62.3913 73.627 62.1635 73.305 62.0508 72.937C61.9382 72.5691 61.9467 72.1747 62.0751 71.8119C62.2036 71.4492 62.4451 71.1373 62.7642 70.9222L72.4007 64.4206V50.166C72.4007 49.926 72.4488 49.6884 72.5422 49.4673C72.6356 49.2462 72.7724 49.0461 72.9444 48.8787L79.7894 42.2241C80.1309 41.892 80.5903 41.7092 81.0666 41.7159C81.5429 41.7225 81.997 41.9181 82.3291 42.2596C82.6612 42.6011 82.844 43.0605 82.8373 43.5368C82.8306 44.0131 82.635 44.4672 82.2935 44.7993L75.9923 50.9245V65.3781C75.9924 65.6719 75.9204 65.9612 75.7827 66.2207C75.6449 66.4802 75.4456 66.702 75.2022 66.8665L64.7748 73.9019C64.4779 74.1018 64.1279 74.2082 63.7699 74.2071Z" fill="#0F0F24"/>
<path d="M74.1957 51.9618C73.7195 51.9618 73.2627 51.7726 72.9259 51.4358C72.5891 51.099 72.3999 50.6422 72.3999 50.1659V17.7447C72.3999 17.2684 72.5891 16.8116 72.9259 16.4748C73.2627 16.1381 73.7195 15.9489 74.1957 15.9489C74.672 15.9489 75.1288 16.1381 75.4656 16.4748C75.8024 16.8116 75.9916 17.2684 75.9916 17.7447V50.1659C75.9916 50.6422 75.8024 51.099 75.4656 51.4358C75.1288 51.7726 74.672 51.9618 74.1957 51.9618Z" fill="#0F0F24"/>
<path d="M74.1947 34.4861C73.7802 34.4866 73.3784 34.3428 73.0583 34.0796L62.6309 25.5415C62.4459 25.3929 62.2922 25.2091 62.1786 25.0008C62.065 24.7924 61.9938 24.5636 61.9692 24.3276C61.9445 24.0916 61.9669 23.853 62.035 23.6257C62.1031 23.3984 62.2156 23.1869 62.366 23.0033C62.5163 22.8197 62.7016 22.6677 62.911 22.5562C63.1205 22.4446 63.3499 22.3757 63.5862 22.3533C63.8224 22.331 64.0608 22.3557 64.2874 22.426C64.514 22.4963 64.7245 22.6108 64.9066 22.7629L75.3339 31.3011C75.6205 31.5358 75.8275 31.8535 75.9265 32.2104C76.0255 32.5674 76.0117 32.9463 75.8869 33.2951C75.7621 33.644 75.5325 33.9457 75.2296 34.1589C74.9266 34.3721 74.5651 34.4864 74.1947 34.4861Z" fill="#0F0F24"/>
<path d="M56.3224 87.3181C55.9109 87.3182 55.5119 87.1767 55.1925 86.9173L47.553 80.7252C47.3697 80.5768 47.2175 80.3936 47.1051 80.1863C46.9926 79.979 46.9221 79.7516 46.8975 79.517C46.8729 79.2825 46.8948 79.0454 46.9618 78.8193C47.0289 78.5932 47.1398 78.3825 47.2883 78.1992C47.4368 78.016 47.6199 77.8638 47.8272 77.7513C48.0345 77.6388 48.2619 77.5683 48.4965 77.5437C48.731 77.5191 48.9681 77.541 49.1942 77.6081C49.4204 77.6751 49.631 77.786 49.8143 77.9345L57.4545 84.1273C57.7429 84.361 57.9517 84.6785 58.0523 85.0358C58.1528 85.3932 58.1402 85.7729 58.016 86.1227C57.8919 86.4726 57.6624 86.7754 57.3591 86.9895C57.0558 87.2035 56.6936 87.3184 56.3224 87.3181Z" fill="#0F0F24"/>
<g style="mix-blend-mode:screen" opacity="0.6">
<path d="M61.543 168.124C62.6247 166.229 62.4036 164.066 61.0492 163.293C59.6948 162.52 57.7199 163.429 56.6382 165.324C55.5566 167.219 55.7777 169.382 57.1321 170.155C58.4865 170.928 60.4613 170.019 61.543 168.124Z" fill="#7D80BA"/>
</g>
<path d="M313.242 452.703H256.354C255.402 452.703 254.488 452.325 253.815 451.651C253.141 450.978 252.763 450.064 252.763 449.112C252.763 448.159 253.141 447.246 253.815 446.572C254.488 445.898 255.402 445.52 256.354 445.52H313.242C314.195 445.52 315.108 445.898 315.782 446.572C316.455 447.246 316.834 448.159 316.834 449.112C316.834 450.064 316.455 450.978 315.782 451.651C315.108 452.325 314.195 452.703 313.242 452.703Z" fill="#1D2F3D"/>
<path d="M240.456 452.703H231.363C230.41 452.703 229.497 452.325 228.823 451.651C228.149 450.978 227.771 450.064 227.771 449.112C227.771 448.159 228.149 447.246 228.823 446.572C229.497 445.898 230.41 445.52 231.363 445.52H240.456C241.409 445.52 242.322 445.898 242.996 446.572C243.669 447.246 244.048 448.159 244.048 449.112C244.048 450.064 243.669 450.978 242.996 451.651C242.322 452.325 241.409 452.703 240.456 452.703Z" fill="#1D2F3D"/>
</svg>
