<svg width="652" height="529" viewBox="0 0 652 529" fill="none" xmlns="http://www.w3.org/2000/svg">
<path d="M66.1421 95.7917C62.7494 95.7886 59.4587 96.9573 56.8285 99.1003C50.4874 84.0479 33.145 76.9863 18.0926 83.3274C7.13088 87.9457 0.00233443 98.6817 0 110.576H80.9268C80.9268 102.411 74.3072 95.7917 66.1421 95.7917Z" fill="#DDDDDD"/>
<path d="M561.873 241.158C561.931 240.508 561.966 239.851 561.966 239.187C561.964 227.29 552.317 217.646 540.42 217.649C536.472 217.649 532.6 218.735 529.227 220.788C525.345 217.954 520.412 216.975 515.742 218.112C513.709 205.522 501.853 196.963 489.263 198.997C488.247 199.161 487.244 199.393 486.259 199.691C470.529 187.376 447.795 190.147 435.481 205.877C431.843 210.525 429.397 215.992 428.358 221.801C428.166 221.797 427.976 221.787 427.784 221.787C416.469 221.788 406.822 229.99 405 241.158H561.873Z" fill="#DDDDDD"/>
<path d="M428.325 32.561C425.735 28.6734 420.544 27.5124 416.545 29.927C416.294 22.1098 409.753 15.9757 401.936 16.2262C400.006 16.2885 398.109 16.7445 396.361 17.5662C392.096 4.27087 377.861 -3.0499 364.566 1.2151C351.445 5.42407 344.111 19.3645 348.075 32.561H428.325Z" fill="#DDDDDD"/>
<path d="M426.516 339.929H351.263V490.953H426.516V339.929Z" fill="#FFC299"/>
<path d="M426.516 339.929H351.263V490.953H426.516V339.929Z" fill="white"/>
<path opacity="0.34" d="M361.242 339.929H351.263V490.953H361.242V339.929Z" fill="#0F0F24"/>
<path d="M426.516 494.612H351.263C349.243 494.612 347.604 492.973 347.604 490.953V339.93C347.604 337.91 349.243 336.272 351.263 336.272H426.516C428.536 336.272 430.175 337.91 430.175 339.93V490.953C430.175 492.973 428.536 494.612 426.516 494.612ZM354.921 487.295H422.858V343.588H354.921V487.295Z" fill="#0F0F24"/>
<path d="M416.179 455.833H363.59V460.223H416.179V455.833Z" fill="#260005"/>
<path d="M416.179 436.81H363.59V441.2H416.179V436.81Z" fill="#260005"/>
<path d="M416.179 417.787H363.59V422.177H416.179V417.787Z" fill="#260005"/>
<path d="M416.179 398.763H363.59V403.153H416.179V398.763Z" fill="#260005"/>
<path d="M416.179 379.74H363.59V384.13H416.179V379.74Z" fill="#260005"/>
<path d="M416.179 360.717H363.59V365.107H416.179V360.717Z" fill="#260005"/>
<path d="M352.882 280.229H244.596V490.953H352.882V280.229Z" fill="#969AFC"/>
<path opacity="0.69" d="M254.419 280.229H244.596V490.953H254.419V280.229Z" fill="#0F0F24"/>
<path d="M194.836 127.827H212.396C217.244 127.827 221.176 131.758 221.176 136.607V162.947H186.056V136.607C186.056 131.758 189.987 127.827 194.836 127.827Z" fill="#C0BFBF"/>
<path opacity="0.69" d="M204.178 127.827H194.836C189.987 127.827 186.056 131.758 186.056 136.607V162.947H195.398V136.607C195.398 131.758 199.329 127.827 204.178 127.827Z" fill="#0F0F24"/>
<path d="M221.176 166.605H186.056C184.036 166.605 182.397 164.967 182.397 162.947V136.607C182.405 129.74 187.97 124.176 194.836 124.169H212.396C219.262 124.176 224.827 129.74 224.834 136.607V162.947C224.834 164.967 223.196 166.605 221.176 166.605ZM189.714 159.289H217.517V136.607C217.515 133.78 215.223 131.488 212.396 131.485H194.836C192.009 131.488 189.717 133.78 189.714 136.607V159.289Z" fill="#0F0F24"/>
<path d="M203.934 131.705C201.914 131.705 200.275 130.067 200.275 128.047V93.6583C200.275 91.6382 201.914 90 203.934 90C205.954 90 207.592 91.6382 207.592 93.6583V128.047C207.592 130.067 205.954 131.705 203.934 131.705Z" fill="#0F0F24"/>
<path d="M647.74 494.612H630.496C628.476 494.612 626.837 492.974 626.837 490.953C626.837 488.933 628.476 487.295 630.496 487.295H647.74C649.76 487.295 651.398 488.933 651.398 490.953C651.398 492.974 649.76 494.612 647.74 494.612Z" fill="#0F0F24"/>
<path d="M618.005 494.612H469.895C467.875 494.612 466.236 492.974 466.236 490.953C466.236 488.933 467.875 487.295 469.895 487.295H618.005C620.025 487.295 621.664 488.933 621.664 490.953C621.664 492.974 620.025 494.612 618.005 494.612Z" fill="#0F0F24"/>
<path d="M451.969 494.612H445.384C443.364 494.612 441.726 492.974 441.726 490.953C441.726 488.933 443.364 487.295 445.384 487.295H451.969C453.989 487.295 455.627 488.933 455.627 490.953C455.627 492.974 453.989 494.612 451.969 494.612Z" fill="#0F0F24"/>
<path d="M434.775 494.612H84.3063C82.2862 494.612 80.6479 492.974 80.6479 490.953C80.6479 488.933 82.2862 487.295 84.3063 487.295H434.775C436.795 487.295 438.433 488.933 438.433 490.953C438.433 492.974 436.795 494.612 434.775 494.612Z" fill="#0F0F24"/>
<path d="M73.0265 494.612H66.8688C64.8487 494.612 63.2104 492.974 63.2104 490.953C63.2104 488.933 64.8487 487.295 66.8688 487.295H73.0265C75.0466 487.295 76.6848 488.933 76.6848 490.953C76.6848 492.974 75.0466 494.612 73.0265 494.612Z" fill="#0F0F24"/>
<path d="M54.6738 494.612H3.65833C1.6382 494.612 0 492.974 0 490.953C0 488.933 1.6382 487.295 3.65833 487.295H54.6738C56.6939 487.295 58.3321 488.933 58.3321 490.953C58.3321 492.974 56.6939 494.612 54.6738 494.612Z" fill="#0F0F24"/>
<path d="M244.589 212.26H162.642V490.953H244.589V212.26Z" fill="#C0BFBF"/>
<path opacity="0.69" d="M171.009 212.26H162.642V490.953H171.009V212.26Z" fill="#0F0F24"/>
<path d="M244.589 494.612H162.642C160.622 494.612 158.984 492.973 158.984 490.953V212.261C158.984 210.241 160.622 208.603 162.642 208.603H244.589C246.609 208.603 248.247 210.241 248.247 212.261V490.953C248.247 492.973 246.609 494.612 244.589 494.612ZM166.301 487.295H240.931V215.92H166.301V487.295Z" fill="#0F0F24"/>
<path d="M230.274 428.03H176.862V432.42H230.274V428.03Z" fill="#0F0F24"/>
<path d="M230.274 436.81H176.862V441.2H230.274V436.81Z" fill="#0F0F24"/>
<path d="M230.274 403.153H176.862V407.543H230.274V403.153Z" fill="#0F0F24"/>
<path d="M230.274 411.933H176.862V416.323H230.274V411.933Z" fill="#0F0F24"/>
<path d="M230.274 378.277H176.862V382.667H230.274V378.277Z" fill="#0F0F24"/>
<path d="M230.274 387.057H176.862V391.447H230.274V387.057Z" fill="#0F0F24"/>
<path d="M230.274 353.4H176.862V357.79H230.274V353.4Z" fill="#0F0F24"/>
<path d="M230.274 362.18H176.862V366.57H230.274V362.18Z" fill="#0F0F24"/>
<path d="M230.274 328.523H176.862V332.913H230.274V328.523Z" fill="#0F0F24"/>
<path d="M230.274 337.303H176.862V341.693H230.274V337.303Z" fill="#0F0F24"/>
<path d="M230.274 303.647H176.862V308.037H230.274V303.647Z" fill="#0F0F24"/>
<path d="M230.274 312.427H176.862V316.817H230.274V312.427Z" fill="#0F0F24"/>
<path d="M230.274 278.77H176.862V283.16H230.274V278.77Z" fill="#0F0F24"/>
<path d="M230.274 287.55H176.862V291.94H230.274V287.55Z" fill="#0F0F24"/>
<path d="M230.274 253.893H176.862V258.283H230.274V253.893Z" fill="#0F0F24"/>
<path d="M230.274 262.673H176.862V267.063H230.274V262.673Z" fill="#0F0F24"/>
<path d="M230.274 229.017H176.862V233.407H230.274V229.017Z" fill="#0F0F24"/>
<path d="M230.274 237.797H176.862V242.187H230.274V237.797Z" fill="#0F0F24"/>
<path d="M203.616 153.728C218.567 153.728 230.687 165.848 230.687 180.8V212.261H176.544V180.8C176.544 165.848 188.664 153.728 203.616 153.728Z" fill="#C0BFBF"/>
<path opacity="0.69" d="M208.371 154.152C206.802 153.871 205.211 153.728 203.616 153.727C188.664 153.727 176.544 165.847 176.544 180.798V212.26H186.056V180.798C186.058 167.683 195.46 156.456 208.371 154.152Z" fill="#0F0F24"/>
<path d="M230.687 215.92H176.544C174.524 215.92 172.886 214.282 172.886 212.261V180.8C172.886 163.828 186.644 150.07 203.616 150.07C220.587 150.07 234.346 163.828 234.346 180.8V212.261C234.346 214.282 232.708 215.92 230.687 215.92ZM180.202 208.603H227.029V180.8C227.029 167.869 216.546 157.386 203.616 157.386C190.685 157.386 180.202 167.869 180.202 180.8V208.603Z" fill="#0F0F24"/>
<path d="M352.882 494.612H244.595C242.575 494.612 240.937 492.973 240.937 490.953V280.229C240.937 278.209 242.575 276.571 244.595 276.571H352.882C354.902 276.571 356.54 278.209 356.54 280.229V490.953C356.54 492.973 354.902 494.612 352.882 494.612ZM248.254 487.295H349.224V283.887H248.254V487.295Z" fill="#0F0F24"/>
<path d="M356.304 265.596H244.596V280.229H356.304V265.596Z" fill="#5B5FD4"/>
<path d="M356.852 283.887H244.595C242.575 283.887 240.937 282.249 240.937 280.229V265.596C240.937 263.575 242.575 261.937 244.595 261.937H356.852C358.872 261.937 360.51 263.575 360.51 265.596V280.229C360.51 282.249 358.872 283.887 356.852 283.887ZM248.254 276.571H353.194V269.254H248.254V276.571Z" fill="#0F0F24"/>
<path d="M221.175 453.272H186.056V490.953H221.175V453.272Z" fill="white"/>
<path opacity="0.34" d="M221.175 454.736H186.056V462.418H221.175V454.736Z" fill="#0F0F24"/>
<path opacity="0.34" d="M194.178 462.418H186.056V490.953H194.178V462.418Z" fill="#0F0F24"/>
<path d="M221.175 494.612H186.055C184.035 494.612 182.396 492.973 182.396 490.953V453.272C182.396 451.252 184.035 449.614 186.055 449.614H221.175C223.195 449.614 224.833 451.252 224.833 453.272V490.953C224.833 492.973 223.195 494.612 221.175 494.612ZM189.713 487.295H217.516V456.931H189.713V487.295Z" fill="#0F0F24"/>
<path d="M338.56 449.98H331.244V460.955H338.56V449.98Z" fill="#0F0F24"/>
<path d="M323.927 449.98H316.61V460.955H323.927V449.98Z" fill="#0F0F24"/>
<path d="M309.294 449.98H301.977V460.955H309.294V449.98Z" fill="#0F0F24"/>
<path d="M294.66 449.98H287.344V460.955H294.66V449.98Z" fill="#0F0F24"/>
<path d="M280.027 449.98H272.71V460.955H280.027V449.98Z" fill="#0F0F24"/>
<path d="M265.394 449.98H258.077V460.955H265.394V449.98Z" fill="#0F0F24"/>
<path d="M338.56 420.713H331.244V431.688H338.56V420.713Z" fill="#0F0F24"/>
<path d="M323.927 420.713H316.61V431.688H323.927V420.713Z" fill="#0F0F24"/>
<path d="M309.294 420.713H301.977V431.688H309.294V420.713Z" fill="#0F0F24"/>
<path d="M294.66 420.713H287.344V431.688H294.66V420.713Z" fill="#0F0F24"/>
<path d="M280.027 420.713H272.71V431.688H280.027V420.713Z" fill="#0F0F24"/>
<path d="M265.394 420.713H258.077V431.688H265.394V420.713Z" fill="#0F0F24"/>
<path d="M338.56 391.447H331.244V402.422H338.56V391.447Z" fill="#0F0F24"/>
<path d="M323.927 391.447H316.61V402.422H323.927V391.447Z" fill="#0F0F24"/>
<path d="M309.294 391.447H301.977V402.422H309.294V391.447Z" fill="#0F0F24"/>
<path d="M294.66 391.447H287.344V402.422H294.66V391.447Z" fill="#0F0F24"/>
<path d="M280.027 391.447H272.71V402.422H280.027V391.447Z" fill="#0F0F24"/>
<path d="M265.394 391.447H258.077V402.422H265.394V391.447Z" fill="#0F0F24"/>
<path d="M338.56 362.18H331.244V373.155H338.56V362.18Z" fill="#0F0F24"/>
<path d="M323.927 362.18H316.61V373.155H323.927V362.18Z" fill="#0F0F24"/>
<path d="M309.294 362.18H301.977V373.155H309.294V362.18Z" fill="#0F0F24"/>
<path d="M294.66 362.18H287.344V373.155H294.66V362.18Z" fill="#0F0F24"/>
<path d="M280.027 362.18H272.71V373.155H280.027V362.18Z" fill="#0F0F24"/>
<path d="M265.394 362.18H258.077V373.155H265.394V362.18Z" fill="#0F0F24"/>
<path d="M338.56 332.913H331.244V343.888H338.56V332.913Z" fill="#0F0F24"/>
<path d="M323.927 332.913H316.61V343.888H323.927V332.913Z" fill="#0F0F24"/>
<path d="M309.294 332.913H301.977V343.888H309.294V332.913Z" fill="#0F0F24"/>
<path d="M294.66 332.913H287.344V343.888H294.66V332.913Z" fill="#0F0F24"/>
<path d="M280.027 332.913H272.71V343.888H280.027V332.913Z" fill="#0F0F24"/>
<path d="M265.394 332.913H258.077V343.888H265.394V332.913Z" fill="#0F0F24"/>
<path d="M338.56 303.647H331.244V314.622H338.56V303.647Z" fill="#0F0F24"/>
<path d="M323.927 303.647H316.61V314.622H323.927V303.647Z" fill="#0F0F24"/>
<path d="M309.294 303.647H301.977V314.622H309.294V303.647Z" fill="#0F0F24"/>
<path d="M294.66 303.647H287.344V314.622H294.66V303.647Z" fill="#0F0F24"/>
<path d="M280.027 303.647H272.71V314.622H280.027V303.647Z" fill="#0F0F24"/>
<path d="M265.394 303.647H258.077V314.622H265.394V303.647Z" fill="#0F0F24"/>
<path d="M321 448.76H276.003V490.953H321V448.76Z" fill="#F9F7F6"/>
<path opacity="0.69" d="M321 448.76H276.003V458.577H321V448.76Z" fill="#0F0F24"/>
<path opacity="0.69" d="M284.783 458.577H276.003V490.953H284.783V458.577Z" fill="#0F0F24"/>
<path d="M321.001 494.612H276.003C273.983 494.612 272.345 492.974 272.345 490.953V448.76C272.345 446.74 273.983 445.102 276.003 445.102H321.001C323.021 445.102 324.659 446.74 324.659 448.76V490.953C324.659 492.974 323.021 494.612 321.001 494.612ZM279.661 487.295H317.342V452.419H279.661V487.295Z" fill="#0F0F24"/>
<path d="M161.808 280.233H117.494V490.953H161.808V280.233Z" fill="#2C2E6F"/>
<path opacity="0.53" d="M124.914 280.233H117.494V490.953H124.914V280.233Z" fill="#0F0F24"/>
<path d="M161.807 494.612H117.494C115.474 494.612 113.835 492.973 113.835 490.953V280.233C113.835 278.213 115.474 276.575 117.494 276.575H161.807C163.827 276.575 165.466 278.213 165.466 280.233V490.953C165.466 492.973 163.827 494.612 161.807 494.612ZM121.152 487.295H158.149V283.892H121.152V487.295Z" fill="#0F0F24"/>
<path d="M131.499 420.713H128.572V431.688H131.499V420.713Z" fill="#260005"/>
<path opacity="0.36" d="M131.499 435.347H128.572V439.737H131.499V435.347Z" fill="#FF99AA"/>
<path d="M141.011 420.713H138.084V431.688H141.011V420.713Z" fill="#260005"/>
<path opacity="0.36" d="M141.011 435.347H138.084V439.737H141.011V435.347Z" fill="#FF99AA"/>
<path d="M150.522 420.713H147.596V431.688H150.522V420.713Z" fill="#260005"/>
<path opacity="0.36" d="M150.522 435.347H147.596V439.737H150.522V435.347Z" fill="#FF99AA"/>
<path d="M131.499 388.52H128.572V399.495H131.499V388.52Z" fill="#260005"/>
<path opacity="0.36" d="M131.499 403.153H128.572V407.543H131.499V403.153Z" fill="#FF99AA"/>
<path d="M141.011 388.52H138.084V399.495H141.011V388.52Z" fill="#260005"/>
<path opacity="0.36" d="M141.011 403.153H138.084V407.543H141.011V403.153Z" fill="#FF99AA"/>
<path d="M150.522 388.52H147.596V399.495H150.522V388.52Z" fill="#260005"/>
<path opacity="0.36" d="M150.522 403.153H147.596V407.543H150.522V403.153Z" fill="#FF99AA"/>
<path d="M131.499 356.327H128.572V367.302H131.499V356.327Z" fill="#260005"/>
<path opacity="0.36" d="M131.499 370.96H128.572V375.35H131.499V370.96Z" fill="#FF99AA"/>
<path d="M141.011 356.327H138.084V367.302H141.011V356.327Z" fill="#260005"/>
<path opacity="0.36" d="M141.011 370.96H138.084V375.35H141.011V370.96Z" fill="#FF99AA"/>
<path d="M150.522 356.327H147.596V367.302H150.522V356.327Z" fill="#260005"/>
<path opacity="0.36" d="M150.522 370.96H147.596V375.35H150.522V370.96Z" fill="#FF99AA"/>
<path d="M131.499 324.133H128.572V335.108H131.499V324.133Z" fill="#260005"/>
<path opacity="0.36" d="M131.499 338.767H128.572V343.157H131.499V338.767Z" fill="#FF99AA"/>
<path d="M141.011 324.133H138.084V335.108H141.011V324.133Z" fill="#260005"/>
<path opacity="0.36" d="M141.011 338.767H138.084V343.157H141.011V338.767Z" fill="#FF99AA"/>
<path d="M150.522 324.133H147.596V335.108H150.522V324.133Z" fill="#260005"/>
<path opacity="0.36" d="M150.522 338.767H147.596V343.157H150.522V338.767Z" fill="#FF99AA"/>
<path d="M131.499 291.94H128.572V302.915H131.499V291.94Z" fill="#260005"/>
<path opacity="0.36" d="M131.499 306.573H128.572V310.963H131.499V306.573Z" fill="#FF99AA"/>
<path d="M141.011 291.94H138.084V302.915H141.011V291.94Z" fill="#260005"/>
<path opacity="0.36" d="M141.011 306.573H138.084V310.963H141.011V306.573Z" fill="#FF99AA"/>
<path d="M150.522 291.94H147.596V302.915H150.522V291.94Z" fill="#260005"/>
<path opacity="0.36" d="M150.522 306.573H147.596V310.963H150.522V306.573Z" fill="#FF99AA"/>
<path d="M147.596 455.833H132.962V490.953H147.596V455.833Z" fill="white"/>
<path d="M147.595 494.612H132.962C130.942 494.612 129.304 492.974 129.304 490.953V455.833C129.304 453.813 130.942 452.175 132.962 452.175H147.595C149.616 452.175 151.254 453.813 151.254 455.833V490.953C151.254 492.974 149.616 494.612 147.595 494.612ZM136.62 487.295H143.937V459.492H136.62V487.295Z" fill="#0F0F24"/>
<path d="M340.024 266.82C338.408 266.82 337.097 265.509 337.097 263.893V231.212C337.097 229.595 338.408 228.285 340.024 228.285C341.64 228.285 342.951 229.595 342.951 231.212V263.893C342.951 265.509 341.64 266.82 340.024 266.82Z" fill="#0F0F24"/>
<path d="M347.584 240.967H332.951C331.335 240.967 330.024 239.657 330.024 238.04C330.024 236.424 331.335 235.114 332.951 235.114H347.584C349.201 235.114 350.511 236.424 350.511 238.04C350.511 239.657 349.201 240.967 347.584 240.967Z" fill="#0F0F24"/>
<path d="M352.882 250.479H328.141C326.524 250.479 325.214 249.168 325.214 247.552C325.214 245.936 326.524 244.625 328.141 244.625H352.882C354.498 244.625 355.808 245.936 355.808 247.552C355.808 249.168 354.498 250.479 352.882 250.479Z" fill="#0F0F24"/>
<path d="M550.744 494.612C548.724 494.612 547.085 492.974 547.085 490.953V361.448C547.085 359.428 548.724 357.79 550.744 357.79C552.764 357.79 554.402 359.428 554.402 361.448V490.953C554.402 492.974 552.764 494.612 550.744 494.612Z" fill="#0F0F24"/>
<path d="M522.941 372.546C520.92 372.546 519.282 370.907 519.282 368.887V361.448C519.282 359.428 520.92 357.79 522.941 357.79C524.961 357.79 526.599 359.428 526.599 361.448V368.887C526.599 370.907 524.961 372.546 522.941 372.546Z" fill="#0F0F24"/>
<path d="M550.744 365.107C548.724 365.107 547.086 363.468 547.086 361.448C547.086 355.791 542.499 351.205 536.842 351.205C531.185 351.205 526.599 355.791 526.599 361.448C526.599 363.468 524.961 365.107 522.941 365.107C520.92 365.107 519.282 363.468 519.282 361.448C519.282 351.75 527.144 343.888 536.842 343.888C546.54 343.888 554.402 351.75 554.402 361.448C554.402 363.468 552.764 365.107 550.744 365.107Z" fill="#0F0F24"/>
<path d="M535.745 385.837H510.137C508.116 385.837 506.478 384.2 506.478 382.179C506.478 381.304 506.791 380.456 507.364 379.792L520.168 364.915C521.485 363.384 523.795 363.21 525.327 364.528C525.465 364.647 525.594 364.777 525.714 364.915L538.518 379.792C539.836 381.323 539.663 383.633 538.132 384.951C537.468 385.523 536.621 385.837 535.745 385.837ZM518.112 378.52H527.77L522.941 372.91L518.112 378.52Z" fill="#0F0F24"/>
<path d="M100.403 494.612C98.3828 494.612 96.7446 492.973 96.7446 490.953V362.912C96.7446 360.891 98.3828 359.253 100.403 359.253C102.423 359.253 104.061 360.891 104.061 362.912V490.953C104.061 492.973 102.423 494.612 100.403 494.612Z" fill="#0F0F24"/>
<path d="M72.5997 373.05C70.5796 373.05 68.9414 371.412 68.9414 369.392V362.912C68.9414 360.891 70.5796 359.253 72.5997 359.253C74.6199 359.253 76.2581 360.891 76.2581 362.912V369.392C76.2581 371.412 74.6199 373.05 72.5997 373.05Z" fill="#0F0F24"/>
<path d="M100.403 366.57C98.3829 366.57 96.7447 364.932 96.7447 362.912C96.7447 357.254 92.1587 352.668 86.5014 352.668C80.8442 352.668 76.2581 357.254 76.2581 362.912C76.2581 364.932 74.6199 366.57 72.5997 366.57C70.5796 366.57 68.9414 364.932 68.9414 362.912C68.9414 353.213 76.8032 345.352 86.5014 345.352C96.1996 345.352 104.061 353.213 104.061 362.912C104.061 364.932 102.423 366.57 100.403 366.57Z" fill="#0F0F24"/>
<path d="M85.4037 383.642H59.7954L72.5996 368.765L85.4037 383.642Z" fill="white"/>
<path d="M85.4036 387.3H59.7953C57.7752 387.3 56.137 385.663 56.1362 383.643C56.1362 382.767 56.4501 381.92 57.0223 381.255L69.8265 366.378C71.1442 364.847 73.4541 364.674 74.9854 365.991C75.1237 366.111 75.2532 366.24 75.3725 366.378L88.1766 381.255C89.4951 382.787 89.3217 385.097 87.7911 386.414C87.1267 386.986 86.2794 387.3 85.4036 387.3ZM67.7705 379.984H77.4285L72.5995 374.373L67.7705 379.984Z" fill="#0F0F24"/>
<path d="M33.6565 465.087C50.2242 465.087 63.6549 446.463 63.6549 423.49C63.6549 400.517 50.2242 381.893 33.6565 381.893C17.0889 381.893 3.6582 400.517 3.6582 423.49C3.6582 446.463 17.0889 465.087 33.6565 465.087Z" fill="#69DDEA"/>
<path opacity="0.53" d="M11.9157 423.49C11.9157 402.812 22.7986 385.667 37.0536 382.444C35.4593 382.079 33.8284 381.895 32.1932 381.892C15.6253 381.892 2.19482 400.516 2.19482 423.489C2.19482 446.463 15.6253 465.086 32.1932 465.086C33.8284 465.083 35.4593 464.899 37.0536 464.534C22.7986 461.314 11.9157 444.168 11.9157 423.49Z" fill="#0F0F24"/>
<path d="M33.6567 468.745C15.0987 468.745 0 448.443 0 423.49C0 398.537 15.0987 378.234 33.6567 378.234C52.2147 378.234 67.3133 398.536 67.3133 423.49C67.3133 448.444 52.2147 468.745 33.6567 468.745ZM33.6567 385.551C19.1324 385.551 7.31667 402.57 7.31667 423.49C7.31667 444.41 19.1324 461.428 33.6567 461.428C48.181 461.428 59.9967 444.41 59.9967 423.49C59.9967 402.57 48.1802 385.551 33.6567 385.551Z" fill="#0F0F24"/>
<path d="M34.8077 451.59C32.7876 451.59 31.1494 449.951 31.1494 447.931C31.1494 446.961 31.535 446.031 32.2206 445.345L40.7906 436.774C42.2195 435.345 44.536 435.345 45.9642 436.774C47.3931 438.203 47.3931 440.519 45.9649 441.948L37.3942 450.514C36.7101 451.203 35.7787 451.59 34.8077 451.59Z" fill="#0F0F24"/>
<path d="M33.656 438.532C32.7268 438.532 31.8327 438.178 31.1559 437.542L22.0101 428.981C20.535 427.601 20.4589 425.285 21.8403 423.81C23.221 422.335 25.5367 422.259 27.011 423.64L36.1568 432.201C37.6319 433.581 37.708 435.896 36.3273 437.371C35.6352 438.11 34.6686 438.529 33.656 438.529V438.532Z" fill="#0F0F24"/>
<path d="M365.266 473.685C375.384 473.685 383.586 462.418 383.586 448.518C383.586 434.619 375.384 423.351 365.266 423.351C355.149 423.351 346.947 434.619 346.947 448.518C346.947 462.418 355.149 473.685 365.266 473.685Z" fill="#42B5C2"/>
<path opacity="0.53" d="M354.263 448.517C354.263 436.339 360.56 426.182 368.925 423.853C367.733 423.519 366.503 423.35 365.266 423.35C355.149 423.35 346.947 434.617 346.947 448.519C346.947 462.421 355.149 473.688 365.266 473.688C366.503 473.688 367.733 473.519 368.925 473.186C360.56 470.853 354.263 460.697 354.263 448.517Z" fill="#0F0F24"/>
<path d="M365.266 477.344C353.148 477.344 343.289 464.414 343.289 448.517C343.289 432.62 353.148 419.689 365.266 419.689C377.385 419.689 387.244 432.62 387.244 448.517C387.244 464.414 377.385 477.344 365.266 477.344ZM365.266 427.01C357.32 427.01 350.605 436.86 350.605 448.521C350.605 460.182 357.32 470.032 365.266 470.032C373.213 470.032 379.928 460.183 379.928 448.521C379.928 436.859 373.213 427.009 365.266 427.009V427.01Z" fill="#0F0F24"/>
<path d="M513.99 424.525C516.761 450.527 497.125 460.976 486.407 460.318C475.686 460.977 456.051 450.526 458.823 424.525C463.762 399.347 474.734 379.869 486.407 380.003C498.079 379.87 509.051 399.349 513.99 424.525Z" fill="#69DDEA"/>
<path opacity="0.53" d="M493.454 458.855C482.734 459.514 463.098 449.062 465.87 423.062C469.982 402.105 478.273 385.108 487.674 380.072C487.255 380.023 486.833 380 486.411 380.003C474.737 379.869 463.764 399.347 458.827 424.525C456.057 450.526 475.692 460.977 486.411 460.318C489.366 460.422 492.313 459.928 495.072 458.865C494.511 458.885 493.966 458.887 493.454 458.855Z" fill="#0F0F24"/>
<path d="M485.499 464.005C479.743 464.005 471.158 461.503 464.244 454.273C459.206 449.005 453.544 439.498 455.181 424.135C455.192 424.029 455.208 423.924 455.229 423.819C457.757 410.932 461.92 399.235 466.952 390.882C472.685 381.37 479.367 376.341 486.283 376.341C486.364 376.341 486.445 376.341 486.525 376.341C493.442 376.341 500.123 381.366 505.857 390.882C510.888 399.235 515.052 410.93 517.58 423.819C517.601 423.924 517.617 424.029 517.628 424.136C519.265 439.501 513.604 449.004 508.565 454.273C501.283 461.892 492.137 464.248 486.404 463.983C486.111 463.997 485.81 464.005 485.499 464.005ZM462.44 425.07C461.154 437.548 465.581 445.087 469.533 449.22C474.817 454.746 481.71 456.942 486.18 456.668C486.329 456.658 486.478 456.658 486.628 456.668C491.118 456.943 497.993 454.745 503.277 449.219C507.228 445.087 511.655 437.548 510.369 425.074C505.699 401.422 495.472 383.662 486.523 383.662H486.284C477.336 383.66 467.11 401.417 462.44 425.07Z" fill="#0F0F24"/>
<path d="M486.404 446.565C484.384 446.565 482.746 444.927 482.746 442.907C482.746 441.937 483.131 441.006 483.817 440.32L493.062 431.076C494.496 429.653 496.813 429.662 498.236 431.096C499.651 432.523 499.651 434.823 498.235 436.25L488.991 445.494C488.306 446.181 487.375 446.567 486.404 446.565Z" fill="#0F0F24"/>
<path d="M486.404 430.591C485.434 430.592 484.503 430.206 483.818 429.519L473.734 419.435C472.33 417.982 472.37 415.666 473.823 414.262C475.241 412.893 477.489 412.893 478.907 414.262L488.991 424.346C490.42 425.775 490.42 428.091 488.991 429.52C488.304 430.205 487.374 430.591 486.404 430.591Z" fill="#0F0F24"/>
<path d="M333.439 529H256.248C254.228 529 252.59 527.362 252.59 525.342C252.59 523.322 254.228 521.683 256.248 521.683H333.439C335.459 521.683 337.097 523.322 337.097 525.342C337.097 527.362 335.459 529 333.439 529Z" fill="#0F0F24"/>
<path d="M352.882 529H345.024C343.003 529 341.365 527.362 341.365 525.342C341.365 523.322 343.003 521.683 345.024 521.683H352.882C354.903 521.683 356.541 523.322 356.541 525.342C356.541 527.362 354.903 529 352.882 529Z" fill="#0F0F24"/>
<path d="M363.742 529H362.217C360.197 529 358.559 527.362 358.559 525.342C358.559 523.322 360.197 521.683 362.217 521.683H363.742C365.762 521.683 367.401 523.322 367.401 525.342C367.401 527.362 365.762 529 363.742 529Z" fill="#0F0F24"/>
<path d="M237.956 529H218.896C216.876 529 215.237 527.362 215.237 525.342C215.237 523.322 216.876 521.683 218.896 521.683H237.956C239.976 521.683 241.615 523.322 241.615 525.342C241.615 527.362 239.976 529 237.956 529Z" fill="#0F0F24"/>
<path d="M365.266 493.441C363.246 493.441 361.608 491.803 361.608 489.783V456.199C361.608 454.179 363.246 452.541 365.266 452.541C367.286 452.541 368.925 454.179 368.925 456.199V489.783C368.925 491.803 367.286 493.441 365.266 493.441Z" fill="#0F0F24"/>
<path d="M486.404 494.612C484.384 494.612 482.746 492.973 482.746 490.953V407.909C482.746 405.889 484.384 404.251 486.404 404.251C488.424 404.251 490.062 405.889 490.062 407.909V490.953C490.062 492.973 488.424 494.612 486.404 494.612Z" fill="#0F0F24"/>
<path d="M34.8077 494.612C32.7876 494.612 31.1494 492.973 31.1494 490.953V415.592C31.1494 413.572 32.7876 411.933 34.8077 411.933C36.8279 411.933 38.4661 413.572 38.4661 415.592V490.953C38.4661 492.973 36.8279 494.612 34.8077 494.612Z" fill="#0F0F24"/>
<path d="M588.007 462.742C604.575 462.742 618.005 444.119 618.005 421.146C618.005 398.173 604.575 379.549 588.007 379.549C571.44 379.549 558.009 398.173 558.009 421.146C558.009 444.119 571.44 462.742 588.007 462.742Z" fill="#42B5C2"/>
<path opacity="0.53" d="M565.325 421.146C565.325 399.891 576.825 382.371 591.665 379.867C590.457 379.659 589.233 379.552 588.007 379.548C571.44 379.548 558.009 398.172 558.009 421.146C558.009 444.119 571.44 462.743 588.007 462.743C589.233 462.739 590.457 462.632 591.665 462.424C576.825 459.92 565.325 442.4 565.325 421.146Z" fill="#0F0F24"/>
<path d="M588.008 466.401C569.449 466.401 554.351 446.099 554.351 421.146C554.351 396.192 569.449 375.89 588.008 375.89C606.566 375.89 621.664 396.191 621.664 421.146C621.664 446.1 606.566 466.401 588.008 466.401ZM588.008 383.21C573.483 383.21 561.668 400.23 561.668 421.149C561.668 442.069 573.483 459.088 588.008 459.088C602.532 459.088 614.348 442.069 614.348 421.149C614.348 400.23 602.531 383.207 588.008 383.207V383.21Z" fill="#0F0F24"/>
<path d="M589.156 452.9C587.136 452.899 585.498 451.261 585.499 449.241C585.499 448.272 585.884 447.342 586.57 446.655L595.14 438.085C596.594 436.681 598.909 436.721 600.313 438.174C601.683 439.592 601.683 441.84 600.313 443.257L591.743 451.828C591.058 452.516 590.126 452.902 589.156 452.9Z" fill="#0F0F24"/>
<path d="M588.007 439.845C587.079 439.846 586.184 439.493 585.507 438.857L576.361 430.293C574.886 428.912 574.81 426.597 576.191 425.122C577.573 423.647 579.888 423.571 581.363 424.952L590.509 433.516C591.983 434.897 592.059 437.212 590.678 438.687C589.985 439.426 589.019 439.844 588.007 439.845Z" fill="#0F0F24"/>
<path d="M589.156 494.293C587.136 494.293 585.498 492.655 585.498 490.635V416.849C585.498 414.829 587.136 413.19 589.156 413.19C591.177 413.19 592.815 414.829 592.815 416.849V490.635C592.815 492.655 591.177 494.293 589.156 494.293Z" fill="#0F0F24"/>
<path d="M197.593 185.605H193.203V212.26H197.593V185.605Z" fill="#0F0F24"/>
<path d="M213.446 185.605H209.056V212.26H213.446V185.605Z" fill="#0F0F24"/>
<path opacity="0.55" d="M33.4788 402.103C34.906 402.103 36.063 400.946 36.063 399.518C36.063 398.091 34.906 396.934 33.4788 396.934C32.0515 396.934 30.8945 398.091 30.8945 399.518C30.8945 400.946 32.0515 402.103 33.4788 402.103Z" fill="white"/>
<path opacity="0.55" d="M49.2573 430.591C51.0757 430.591 52.5498 429.117 52.5498 427.298C52.5498 425.48 51.0757 424.006 49.2573 424.006C47.4389 424.006 45.9648 425.48 45.9648 427.298C45.9648 429.117 47.4389 430.591 49.2573 430.591Z" fill="white"/>
<path opacity="0.53" d="M46.6699 413.201C48.4883 413.201 49.9624 411.726 49.9624 409.908C49.9624 408.09 48.4883 406.616 46.6699 406.616C44.8515 406.616 43.3774 408.09 43.3774 409.908C43.3774 411.726 44.8515 413.201 46.6699 413.201Z" fill="#0F0F24"/>
<path opacity="0.53" d="M24.5109 416.571C25.8602 416.571 26.9539 415.478 26.9539 414.128C26.9539 412.779 25.8602 411.685 24.5109 411.685C23.1617 411.685 22.0679 412.779 22.0679 414.128C22.0679 415.478 23.1617 416.571 24.5109 416.571Z" fill="#0F0F24"/>
<path opacity="0.55" d="M362.98 438.456C363.94 438.456 364.718 437.678 364.718 436.719C364.718 435.759 363.94 434.981 362.98 434.981C362.02 434.981 361.242 435.759 361.242 436.719C361.242 437.678 362.02 438.456 362.98 438.456Z" fill="white"/>
<path opacity="0.53" d="M373.589 446.139C374.953 446.139 376.058 445.033 376.058 443.669C376.058 442.306 374.953 441.2 373.589 441.2C372.225 441.2 371.12 442.306 371.12 443.669C371.12 445.033 372.225 446.139 373.589 446.139Z" fill="#0F0F24"/>
<path opacity="0.55" d="M485.356 402.696C486.316 402.696 487.094 401.918 487.094 400.958C487.094 399.999 486.316 399.221 485.356 399.221C484.397 399.221 483.619 399.999 483.619 400.958C483.619 401.918 484.397 402.696 485.356 402.696Z" fill="white"/>
<path opacity="0.55" d="M499.715 423.953C501.095 423.953 502.213 422.835 502.213 421.455C502.213 420.076 501.095 418.957 499.715 418.957C498.336 418.957 497.217 420.076 497.217 421.455C497.217 422.835 498.336 423.953 499.715 423.953Z" fill="white"/>
<path opacity="0.53" d="M495.965 410.379C497.329 410.379 498.435 409.273 498.435 407.909C498.435 406.545 497.329 405.44 495.965 405.44C494.602 405.44 493.496 406.545 493.496 407.909C493.496 409.273 494.602 410.379 495.965 410.379Z" fill="#0F0F24"/>
<path opacity="0.53" d="M476.32 437.45C477.684 437.45 478.789 436.345 478.789 434.981C478.789 433.617 477.684 432.511 476.32 432.511C474.956 432.511 473.851 433.617 473.851 434.981C473.851 436.345 474.956 437.45 476.32 437.45Z" fill="#0F0F24"/>
<path opacity="0.55" d="M599.078 412.904C600.986 412.904 602.533 411.357 602.533 409.449C602.533 407.54 600.986 405.993 599.078 405.993C597.169 405.993 595.622 407.54 595.622 409.449C595.622 411.357 597.169 412.904 599.078 412.904Z" fill="white"/>
<path opacity="0.53" d="M597.673 429.981C599.031 429.981 600.133 428.879 600.133 427.521C600.133 426.162 599.031 425.061 597.673 425.061C596.314 425.061 595.213 426.162 595.213 427.521C595.213 428.879 596.314 429.981 597.673 429.981Z" fill="#0F0F24"/>
<path opacity="0.53" d="M585.797 404.012C587.16 404.012 588.266 402.906 588.266 401.542C588.266 400.178 587.16 399.073 585.797 399.073C584.433 399.073 583.327 400.178 583.327 401.542C583.327 402.906 584.433 404.012 585.797 404.012Z" fill="#0F0F24"/>
<path d="M477.404 490.953C477.404 482.575 484.196 475.783 492.574 475.783C500.953 475.783 507.745 482.575 507.745 490.953H477.404Z" fill="#42B5C2"/>
<path opacity="0.53" d="M497.075 476.462C489.065 473.982 480.562 478.465 478.083 486.475C477.634 487.925 477.405 489.435 477.404 490.953H486.403C486.404 484.308 490.728 478.435 497.075 476.462Z" fill="#0F0F24"/>
<path d="M507.744 494.612H477.404C475.384 494.612 473.745 492.973 473.745 490.953C473.68 480.555 482.057 472.072 492.456 472.007C502.854 471.942 511.337 480.318 511.402 490.717C511.403 490.796 511.403 490.875 511.402 490.954C511.402 492.973 509.764 494.612 507.744 494.612ZM481.658 487.295H503.49C501.468 481.266 494.942 478.017 488.913 480.04C485.491 481.187 482.805 483.873 481.658 487.295Z" fill="#0F0F24"/>
<path d="M496.601 490.953C496.612 478.912 506.382 469.158 518.424 469.169C530.45 469.18 540.198 478.927 540.208 490.953H496.601Z" fill="#42B5C2"/>
<path opacity="0.53" d="M522.61 469.558C510.794 467.236 499.333 474.931 497.01 486.746C496.738 488.132 496.601 489.54 496.601 490.953H505.015C505.016 480.534 512.387 471.571 522.61 469.558Z" fill="#0F0F24"/>
<path d="M540.208 494.612H496.601C494.581 494.612 492.942 492.973 492.942 490.953C492.931 476.891 504.322 465.483 518.384 465.471C532.447 465.46 543.855 476.85 543.866 490.912C543.866 490.925 543.866 490.939 543.866 490.953C543.866 492.973 542.228 494.612 540.208 494.612ZM500.625 487.295H536.176C534.163 477.478 524.572 471.152 514.756 473.164C507.642 474.623 502.084 480.182 500.625 487.295Z" fill="#0F0F24"/>
</svg>
