<svg width="434" height="338" viewBox="0 0 434 338" fill="none" xmlns="http://www.w3.org/2000/svg">
<path d="M58.1162 123.367H19.1886C18.6879 123.367 18.2077 123.176 17.8537 122.836C17.4997 122.497 17.3008 122.036 17.3008 121.555C17.3008 121.074 17.4997 120.613 17.8537 120.273C18.2077 119.934 18.6879 119.743 19.1886 119.743H56.2284V102.869C56.2284 102.389 56.4273 101.928 56.7813 101.588C57.1354 101.248 57.6155 101.057 58.1162 101.057C58.6169 101.057 59.0971 101.248 59.4511 101.588C59.8052 101.928 60.004 102.389 60.004 102.869V121.555C60.004 121.793 59.9552 122.029 59.8603 122.248C59.7655 122.468 59.6264 122.668 59.4511 122.836C59.2758 123.005 59.0677 123.138 58.8387 123.229C58.6096 123.32 58.3641 123.367 58.1162 123.367Z" fill="#8DC6BF"/>
<path d="M97.0442 123.367H58.1154C57.6147 123.367 57.1345 123.176 56.7805 122.836C56.4264 122.497 56.2275 122.036 56.2275 121.555V102.869C56.2275 102.389 56.4264 101.928 56.7805 101.588C57.1345 101.248 57.6147 101.057 58.1154 101.057C58.616 101.057 59.0962 101.248 59.4503 101.588C59.8043 101.928 60.0032 102.389 60.0032 102.869V119.743H97.0442C97.5449 119.743 98.025 119.934 98.3791 120.273C98.7331 120.613 98.932 121.074 98.932 121.555C98.932 122.036 98.7331 122.497 98.3791 122.836C98.025 123.176 97.5449 123.367 97.0442 123.367Z" fill="#8DC6BF"/>
<path d="M77.5807 142.053H38.6525C38.1518 142.053 37.6716 141.862 37.3176 141.522C36.9635 141.182 36.7646 140.721 36.7646 140.24V121.555C36.7646 121.074 36.9635 120.613 37.3176 120.273C37.6716 119.934 38.1518 119.743 38.6525 119.743H77.5807C78.0814 119.743 78.5615 119.934 78.9156 120.273C79.2696 120.613 79.4685 121.074 79.4685 121.555V140.24C79.4685 140.721 79.2696 141.182 78.9156 141.522C78.5615 141.862 78.0814 142.053 77.5807 142.053ZM40.5403 138.428H75.6929V123.367H40.5403V138.428Z" fill="#8DC6BF"/>
<path d="M69.1761 160.737H58.1154C57.6147 160.737 57.1345 160.547 56.7805 160.207C56.4264 159.867 56.2275 159.406 56.2275 158.925V140.24C56.2275 139.76 56.4264 139.299 56.7805 138.959C57.1345 138.619 57.6147 138.428 58.1154 138.428H97.0442C97.5449 138.428 98.025 138.619 98.3791 138.959C98.7331 139.299 98.932 139.76 98.932 140.24C98.932 140.721 98.7331 141.182 98.3791 141.522C98.025 141.862 97.5449 142.053 97.0442 142.053H60.0032V157.113H69.1761C69.6768 157.113 70.157 157.304 70.511 157.644C70.865 157.984 71.0639 158.445 71.0639 158.925C71.0639 159.406 70.865 159.867 70.511 160.207C70.157 160.547 69.6768 160.737 69.1761 160.737Z" fill="#8DC6BF"/>
<path d="M58.1162 160.737H26.5505C26.0498 160.737 25.5696 160.547 25.2156 160.207C24.8616 159.867 24.6627 159.406 24.6627 158.925C24.6627 158.445 24.8616 157.984 25.2156 157.644C25.5696 157.304 26.0498 157.113 26.5505 157.113H56.2284V142.053H19.1886C18.6879 142.053 18.2077 141.862 17.8537 141.522C17.4997 141.182 17.3008 140.721 17.3008 140.24C17.3008 139.76 17.4997 139.299 17.8537 138.959C18.2077 138.619 18.6879 138.428 19.1886 138.428H58.1162C58.6169 138.428 59.0971 138.619 59.4511 138.959C59.8052 139.299 60.004 139.76 60.004 140.24V158.925C60.004 159.406 59.8052 159.867 59.4511 160.207C59.0971 160.547 58.6169 160.737 58.1162 160.737Z" fill="#8DC6BF"/>
<path d="M38.6522 142.053H19.1882C18.6875 142.053 18.2073 141.862 17.8533 141.522C17.4993 141.182 17.3004 140.721 17.3004 140.24C17.3004 139.76 17.4993 139.299 17.8533 138.959C18.2073 138.619 18.6875 138.428 19.1882 138.428H36.7644V123.367H5.91809C5.41741 123.367 4.93724 123.176 4.5832 122.836C4.22917 122.497 4.03027 122.036 4.03027 121.555C4.03027 121.074 4.22917 120.613 4.5832 120.273C4.93724 119.934 5.41741 119.743 5.91809 119.743H38.6522C39.1529 119.743 39.6331 119.934 39.9871 120.273C40.3411 120.613 40.54 121.074 40.54 121.555V140.24C40.54 140.721 40.3411 141.182 39.9871 141.522C39.6331 141.862 39.1529 142.053 38.6522 142.053Z" fill="#8DC6BF"/>
<path d="M105.672 142.053H77.5807C77.08 142.053 76.5998 141.862 76.2458 141.522C75.8918 141.182 75.6929 140.721 75.6929 140.24V121.555C75.6929 121.074 75.8918 120.613 76.2458 120.273C76.5998 119.934 77.08 119.743 77.5807 119.743H91.0742C91.5749 119.743 92.0551 119.934 92.4091 120.273C92.7631 120.613 92.962 121.074 92.962 121.555C92.962 122.036 92.7631 122.497 92.4091 122.836C92.0551 123.176 91.5749 123.367 91.0742 123.367H79.4685V138.428H105.672C106.173 138.428 106.653 138.619 107.007 138.959C107.361 139.299 107.56 139.76 107.56 140.24C107.56 140.721 107.361 141.182 107.007 141.522C106.653 141.862 106.173 142.053 105.672 142.053Z" fill="#8DC6BF"/>
<path d="M374.403 118.362H335.476C334.975 118.362 334.495 118.171 334.141 117.832C333.787 117.492 333.588 117.031 333.588 116.55C333.588 116.069 333.787 115.608 334.141 115.269C334.495 114.929 334.975 114.738 335.476 114.738H372.515V97.8646C372.515 97.3839 372.714 96.9229 373.068 96.5831C373.422 96.2432 373.902 96.0522 374.403 96.0522C374.904 96.0522 375.384 96.2432 375.738 96.5831C376.092 96.9229 376.291 97.3839 376.291 97.8646V116.55C376.291 117.031 376.092 117.492 375.738 117.832C375.384 118.171 374.904 118.362 374.403 118.362Z" fill="#8DC6BF"/>
<path d="M413.332 118.362H374.403C373.903 118.362 373.423 118.171 373.069 117.832C372.715 117.492 372.516 117.031 372.516 116.55V97.8646C372.516 97.3839 372.715 96.9229 373.069 96.5831C373.423 96.2432 373.903 96.0522 374.403 96.0522C374.904 96.0522 375.384 96.2432 375.738 96.5831C376.092 96.9229 376.291 97.3839 376.291 97.8646V114.738H413.332C413.833 114.738 414.313 114.929 414.667 115.269C415.021 115.608 415.22 116.069 415.22 116.55C415.22 117.031 415.021 117.492 414.667 117.832C414.313 118.171 413.833 118.362 413.332 118.362Z" fill="#8DC6BF"/>
<path d="M393.868 137.048H354.94C354.439 137.048 353.959 136.857 353.605 136.517C353.251 136.177 353.052 135.716 353.052 135.235V116.55C353.052 116.069 353.251 115.608 353.605 115.268C353.959 114.928 354.439 114.738 354.94 114.738H393.868C394.369 114.738 394.849 114.928 395.203 115.268C395.557 115.608 395.756 116.069 395.756 116.55V135.235C395.756 135.716 395.557 136.177 395.203 136.517C394.849 136.857 394.369 137.048 393.868 137.048ZM356.828 133.423H391.98V118.362H356.828V133.423Z" fill="#8DC6BF"/>
<path d="M350.356 61.6564H330.893C330.392 61.6564 329.912 61.4655 329.558 61.1256C329.204 60.7857 329.005 60.3247 329.005 59.8441C329.005 59.3634 329.204 58.9025 329.558 58.5626C329.912 58.2227 330.392 58.0318 330.893 58.0318H348.468V42.9703H317.623C317.122 42.9703 316.642 42.7794 316.288 42.4395C315.934 42.0996 315.735 41.6387 315.735 41.158C315.735 40.6774 315.934 40.2164 316.288 39.8765C316.642 39.5366 317.122 39.3457 317.623 39.3457H350.356C350.857 39.3457 351.337 39.5366 351.691 39.8765C352.045 40.2164 352.244 40.6774 352.244 41.158V59.8435C352.244 60.0815 352.195 60.3173 352.101 60.5372C352.006 60.7572 351.867 60.957 351.691 61.1254C351.516 61.2937 351.308 61.4273 351.079 61.5184C350.85 61.6095 350.604 61.6564 350.356 61.6564Z" fill="#8DC6BF"/>
<path d="M421.961 137.048H393.868C393.368 137.048 392.887 136.857 392.533 136.517C392.179 136.177 391.98 135.716 391.98 135.235V116.55C391.98 116.069 392.179 115.608 392.533 115.268C392.887 114.928 393.368 114.738 393.868 114.738H407.362C407.863 114.738 408.343 114.928 408.697 115.268C409.051 115.608 409.25 116.069 409.25 116.55C409.25 117.031 409.051 117.491 408.697 117.831C408.343 118.171 407.863 118.362 407.362 118.362H395.756V133.423H421.961C422.461 133.423 422.941 133.614 423.295 133.954C423.649 134.294 423.848 134.755 423.848 135.235C423.848 135.716 423.649 136.177 423.295 136.517C422.941 136.857 422.461 137.048 421.961 137.048Z" fill="#8DC6BF"/>
<path d="M79.2668 183.605H45.2861V196.896H79.2668V183.605Z" fill="#6DA580"/>
<path d="M79.2673 199.916H45.2865C44.452 199.916 43.6517 199.598 43.0617 199.032C42.4716 198.465 42.1401 197.697 42.1401 196.896V183.605C42.1401 182.804 42.4716 182.036 43.0617 181.47C43.6517 180.903 44.452 180.585 45.2865 180.585H79.2673C80.1018 180.585 80.9021 180.903 81.4922 181.47C82.0822 182.036 82.4137 182.804 82.4137 183.605V196.896C82.4137 197.697 82.0822 198.465 81.4922 199.032C80.9021 199.598 80.1018 199.916 79.2673 199.916ZM48.4329 193.875H76.121V186.626H48.4329V193.875Z" fill="#0F0F24"/>
<path d="M139.139 220.154C153.04 220.154 164.31 209.335 164.31 195.99C164.31 182.644 153.04 171.825 139.139 171.825C125.237 171.825 113.968 182.644 113.968 195.99C113.968 209.335 125.237 220.154 139.139 220.154Z" fill="#69DDEA"/>
<g style="mix-blend-mode:multiply" opacity="0.74">
<path d="M129.909 195.99C129.91 190.92 131.571 185.979 134.658 181.866C137.745 177.753 142.101 174.676 147.109 173.07C143.325 171.857 139.295 171.524 135.351 172.1C131.406 172.676 127.661 174.144 124.424 176.383C121.187 178.621 118.55 181.566 116.732 184.975C114.913 188.384 113.965 192.16 113.965 195.99C113.965 199.82 114.913 203.595 116.732 207.004C118.55 210.413 121.187 213.358 124.424 215.597C127.661 217.835 131.406 219.303 135.351 219.879C139.295 220.455 143.325 220.122 147.109 218.909C142.101 217.303 137.745 214.226 134.658 210.113C131.571 206 129.91 201.059 129.909 195.99Z" fill="#0BC6D5"/>
</g>
<path d="M139.138 223.174C133.538 223.174 128.063 221.58 123.406 218.593C118.749 215.606 115.12 211.36 112.976 206.393C110.833 201.425 110.272 195.959 111.365 190.686C112.458 185.413 115.155 180.569 119.115 176.767C123.075 172.965 128.121 170.376 133.614 169.327C139.107 168.278 144.8 168.817 149.975 170.874C155.149 172.932 159.572 176.416 162.683 180.887C165.795 185.357 167.456 190.613 167.456 195.99C167.447 203.197 164.461 210.107 159.152 215.203C153.844 220.299 146.646 223.166 139.138 223.174ZM139.138 174.846C134.782 174.846 130.524 176.086 126.902 178.409C123.28 180.733 120.457 184.035 118.79 187.898C117.123 191.762 116.687 196.013 117.537 200.115C118.387 204.216 120.484 207.983 123.564 210.94C126.645 213.897 130.569 215.911 134.841 216.727C139.114 217.543 143.542 217.124 147.567 215.524C151.591 213.923 155.031 211.213 157.451 207.736C159.871 204.259 161.163 200.171 161.163 195.99C161.156 190.384 158.834 185.01 154.705 181.046C150.576 177.082 144.977 174.852 139.138 174.846Z" fill="#0F0F24"/>
<path d="M139.138 172.832C137.97 172.832 136.85 172.387 136.024 171.594C135.197 170.801 134.733 169.725 134.733 168.604V116.55C134.733 115.428 135.197 114.353 136.024 113.56C136.85 112.767 137.97 112.321 139.138 112.321C140.306 112.321 141.427 112.767 142.253 113.56C143.079 114.353 143.543 115.428 143.543 116.55V168.604C143.543 169.725 143.079 170.801 142.253 171.594C141.427 172.387 140.306 172.832 139.138 172.832Z" fill="#0F0F24"/>
<path d="M179.134 133.918H99.1435C98.6782 133.918 98.2187 133.818 97.7982 133.627C97.3777 133.436 97.0066 133.157 96.7117 132.812C96.4168 132.466 96.2053 132.062 96.0927 131.629C95.98 131.195 95.9689 130.743 96.0601 130.305L107.487 75.4529C107.63 74.7684 108.015 74.1525 108.577 73.7097C109.139 73.267 109.843 73.0248 110.57 73.0244H167.709C168.436 73.0248 169.14 73.267 169.702 73.7097C170.264 74.1525 170.65 74.7684 170.792 75.4529L182.219 130.305C182.31 130.743 182.299 131.195 182.186 131.629C182.074 132.062 181.862 132.466 181.567 132.812C181.272 133.157 180.901 133.436 180.481 133.627C180.06 133.818 179.601 133.918 179.136 133.918H179.134ZM102.981 127.877H175.296L165.127 79.0654H113.149L102.981 127.877Z" fill="#0F0F24"/>
<path d="M179.133 130.897H99.1431L110.57 76.0474H167.706L179.133 130.897Z" fill="#F0F4F7"/>
<path d="M110.57 76.0474L99.1431 130.897H128.214L134.545 76.0474H110.57Z" fill="#DBDBDB"/>
<path d="M179.134 133.918H99.1435C98.6782 133.918 98.2187 133.818 97.7982 133.627C97.3777 133.436 97.0066 133.157 96.7117 132.812C96.4168 132.466 96.2053 132.062 96.0927 131.629C95.98 131.195 95.9689 130.743 96.0601 130.305L107.487 75.4529C107.63 74.7684 108.015 74.1525 108.577 73.7097C109.139 73.267 109.843 73.0248 110.57 73.0244H167.709C168.436 73.0248 169.14 73.267 169.702 73.7097C170.264 74.1525 170.65 74.7684 170.792 75.4529L182.219 130.305C182.31 130.743 182.299 131.195 182.186 131.629C182.074 132.062 181.862 132.466 181.567 132.812C181.272 133.157 180.901 133.436 180.481 133.627C180.06 133.818 179.601 133.918 179.136 133.918H179.134ZM102.981 127.877H175.296L165.127 79.0654H113.149L102.981 127.877Z" fill="#0F0F24"/>
<path d="M158.157 147.158C157.823 147.158 157.503 147.031 157.267 146.804C157.031 146.578 156.898 146.27 156.898 145.95V130.897C156.898 130.577 157.031 130.27 157.267 130.043C157.503 129.817 157.823 129.689 158.157 129.689C158.491 129.689 158.811 129.817 159.047 130.043C159.283 130.27 159.416 130.577 159.416 130.897V145.95C159.416 146.27 159.283 146.578 159.047 146.804C158.811 147.031 158.491 147.158 158.157 147.158Z" fill="#0F0F24"/>
<path d="M158.157 156.673C156.928 156.673 155.726 156.323 154.705 155.667C153.683 155.012 152.886 154.08 152.416 152.99C151.946 151.9 151.823 150.701 152.062 149.543C152.302 148.386 152.894 147.323 153.763 146.489C154.632 145.655 155.739 145.087 156.945 144.856C158.15 144.626 159.4 144.744 160.535 145.196C161.67 145.647 162.641 146.412 163.324 147.393C164.007 148.374 164.371 149.527 164.371 150.707C164.369 152.289 163.714 153.805 162.549 154.924C161.384 156.042 159.804 156.671 158.157 156.673ZM158.157 147.158C157.426 147.158 156.711 147.366 156.103 147.756C155.495 148.146 155.021 148.701 154.741 149.349C154.462 149.998 154.388 150.711 154.531 151.4C154.674 152.088 155.026 152.72 155.543 153.217C156.06 153.713 156.719 154.051 157.436 154.188C158.153 154.325 158.896 154.255 159.572 153.986C160.247 153.718 160.825 153.263 161.231 152.679C161.637 152.095 161.854 151.409 161.854 150.707C161.853 149.766 161.463 148.864 160.77 148.199C160.077 147.533 159.137 147.159 158.157 147.158Z" fill="#0F0F24"/>
<path d="M158.157 155.465C160.894 155.465 163.113 153.335 163.113 150.707C163.113 148.08 160.894 145.95 158.157 145.95C155.42 145.95 153.202 148.08 153.202 150.707C153.202 153.335 155.42 155.465 158.157 155.465Z" fill="#0F0F24"/>
<path d="M55.7954 308.655H35.6586C34.8241 308.655 34.0238 308.336 33.4338 307.77C32.8437 307.203 32.5122 306.435 32.5122 305.634V293.552C32.5122 292.751 32.8437 291.983 33.4338 291.416C34.0238 290.85 34.8241 290.531 35.6586 290.531H55.7954C56.6299 290.531 57.4301 290.85 58.0202 291.416C58.6103 291.983 58.9418 292.751 58.9418 293.552V305.634C58.9418 306.435 58.6103 307.203 58.0202 307.77C57.4301 308.336 56.6299 308.655 55.7954 308.655ZM38.805 302.614H52.649V296.573H38.805V302.614Z" fill="#0F0F24"/>
<path d="M55.7949 293.552H35.6582V305.634H55.7949V293.552Z" fill="#0F0F24"/>
<path d="M158.367 308.655H138.23C137.396 308.655 136.596 308.336 136.006 307.77C135.415 307.203 135.084 306.435 135.084 305.634V293.552C135.084 292.751 135.415 291.983 136.006 291.416C136.596 290.85 137.396 290.531 138.23 290.531H158.367C159.202 290.531 160.002 290.85 160.592 291.416C161.182 291.983 161.513 292.751 161.513 293.552V305.634C161.513 306.435 161.182 307.203 160.592 307.77C160.002 308.336 159.202 308.655 158.367 308.655ZM141.377 302.614H155.221V296.573H141.377V302.614Z" fill="#0F0F24"/>
<path d="M158.367 293.552H138.23V305.634H158.367V293.552Z" fill="#0F0F24"/>
<path d="M367.5 161.254V240.391H242.686V161.254C242.686 152.922 246.134 144.932 252.27 139.041C258.407 133.15 266.73 129.84 275.408 129.84H334.778C343.456 129.84 351.779 133.15 357.916 139.041C364.052 144.932 367.5 152.922 367.5 161.254Z" fill="#FFC857"/>
<g style="mix-blend-mode:screen" opacity="0.6">
<path d="M334.778 130.445H275.408C266.73 130.445 258.407 133.754 252.27 139.645C246.134 145.536 242.686 153.527 242.686 161.858V169.208C242.686 160.877 246.134 152.887 252.27 146.995C258.407 141.104 266.73 137.795 275.408 137.795H334.778C343.456 137.795 351.779 141.104 357.916 146.995C364.052 152.887 367.5 160.877 367.5 169.208V161.858C367.5 153.527 364.052 145.536 357.916 139.645C351.779 133.754 343.456 130.445 334.778 130.445Z" fill="#FFC857"/>
</g>
<path d="M367.5 243.412H242.685C241.851 243.412 241.051 243.093 240.461 242.527C239.871 241.961 239.539 241.192 239.539 240.391V161.254C239.55 152.124 243.332 143.372 250.056 136.917C256.781 130.461 265.898 126.83 275.408 126.82H334.778C344.287 126.83 353.404 130.461 360.128 136.917C366.853 143.372 370.635 152.124 370.646 161.254V240.391C370.646 241.192 370.315 241.961 369.725 242.527C369.134 243.093 368.334 243.412 367.5 243.412ZM245.832 237.371H364.353V161.254C364.345 153.726 361.226 146.509 355.681 141.186C350.136 135.863 342.619 132.869 334.778 132.861H275.408C267.566 132.869 260.049 135.863 254.504 141.186C248.959 146.509 245.841 153.726 245.832 161.254V237.371Z" fill="#0F0F24"/>
<path d="M174.1 245.224H20.5571V293.552H174.1V245.224Z" fill="#5B5FD4"/>
<g style="mix-blend-mode:multiply" opacity="0.24">
<g style="mix-blend-mode:multiply" opacity="0.24">
<path d="M113.967 266.368H76.5614C74.8237 266.368 73.415 267.72 73.415 269.388V274.926C73.415 276.594 74.8237 277.947 76.5614 277.947H113.967C115.704 277.947 117.113 276.594 117.113 274.926V269.388C117.113 267.72 115.704 266.368 113.967 266.368Z" fill="#7C4F49"/>
</g>
</g>
<g style="mix-blend-mode:screen" opacity="0.54">
<path d="M174.1 245.576H20.5571V251.416H174.1V245.576Z" fill="#7C4F49"/>
</g>
<g style="mix-blend-mode:multiply" opacity="0.24">
<path d="M174.1 287.612H20.5571V293.452H174.1V287.612Z" fill="#7C4F49"/>
</g>
<path d="M174.099 296.573H20.5565C19.7221 296.573 18.9218 296.255 18.3317 295.688C17.7416 295.122 17.4102 294.353 17.4102 293.552V245.224C17.4102 244.423 17.7416 243.655 18.3317 243.088C18.9218 242.522 19.7221 242.204 20.5565 242.204H174.099C174.934 242.204 175.734 242.522 176.324 243.088C176.914 243.655 177.246 244.423 177.246 245.224V293.552C177.246 294.353 176.914 295.122 176.324 295.688C175.734 296.255 174.934 296.573 174.099 296.573ZM23.7029 290.532H170.953V248.245H23.7029V290.532Z" fill="#0F0F24"/>
<path d="M174.1 196.896H20.5571V245.224H174.1V196.896Z" fill="#5B5FD4"/>
<g style="mix-blend-mode:multiply" opacity="0.24">
<g style="mix-blend-mode:multiply" opacity="0.24">
<path d="M113.967 218.039H76.5614C74.8237 218.039 73.415 219.391 73.415 221.06V226.597C73.415 228.266 74.8237 229.618 76.5614 229.618H113.967C115.704 229.618 117.113 228.266 117.113 226.597V221.06C117.113 219.391 115.704 218.039 113.967 218.039Z" fill="#7C4F49"/>
</g>
</g>
<g style="mix-blend-mode:multiply" opacity="0.24">
<path d="M174.1 239.183H20.5571V245.023H174.1V239.183Z" fill="#7C4F49"/>
</g>
<g style="mix-blend-mode:screen" opacity="0.54">
<path d="M174.1 196.896H20.5571V202.736H174.1V196.896Z" fill="#7C4F49"/>
</g>
<path d="M174.099 248.244H20.5565C19.7221 248.244 18.9218 247.926 18.3317 247.36C17.7416 246.793 17.4102 246.025 17.4102 245.224V196.896C17.4102 196.095 17.7416 195.326 18.3317 194.76C18.9218 194.193 19.7221 193.875 20.5565 193.875H174.099C174.934 193.875 175.734 194.193 176.324 194.76C176.914 195.326 177.246 196.095 177.246 196.896V245.224C177.246 246.025 176.914 246.793 176.324 247.36C175.734 247.926 174.934 248.244 174.099 248.244ZM23.7029 242.203H170.953V199.916H23.7029V242.203Z" fill="#0F0F24"/>
<path d="M371.796 197.248H385.64C388.31 197.248 390.871 198.266 392.759 200.079C394.648 201.892 395.708 204.35 395.708 206.914V293.904H361.728V206.914C361.728 204.35 362.788 201.892 364.677 200.079C366.565 198.266 369.126 197.248 371.796 197.248Z" fill="#FFC857"/>
<g style="mix-blend-mode:screen" opacity="0.6">
<path d="M385.64 196.896H371.796C369.126 196.896 366.565 197.914 364.677 199.727C362.788 201.539 361.728 203.998 361.728 206.561V212.603C361.728 210.039 362.788 207.58 364.677 205.768C366.565 203.955 369.126 202.937 371.796 202.937H385.64C388.31 202.937 390.871 203.955 392.759 205.768C394.648 207.58 395.708 210.039 395.708 212.603V206.561C395.708 203.998 394.648 201.539 392.759 199.727C390.871 197.914 388.31 196.896 385.64 196.896Z" fill="#FFC857"/>
</g>
<path d="M395.708 296.573H361.727C360.893 296.573 360.093 296.255 359.503 295.688C358.913 295.122 358.581 294.353 358.581 293.552V206.561C358.585 203.198 359.979 199.973 362.456 197.595C364.933 195.217 368.292 193.879 371.796 193.875H385.64C389.144 193.879 392.502 195.217 394.98 197.595C397.457 199.973 398.851 203.198 398.855 206.561V293.552C398.855 294.353 398.523 295.122 397.933 295.688C397.343 296.255 396.543 296.573 395.708 296.573ZM364.874 290.532H392.562V206.561C392.56 204.8 391.83 203.111 390.532 201.865C389.235 200.619 387.475 199.918 385.64 199.916H371.796C369.961 199.918 368.201 200.619 366.903 201.865C365.606 203.111 364.876 204.8 364.874 206.561V290.532Z" fill="#0F0F24"/>
<path d="M353.734 96.3717V23.8794L250.534 23.8794V96.3717H353.734Z" fill="white"/>
<path d="M353.734 99.3935H250.533C250.12 99.3935 249.711 99.3154 249.329 99.1636C248.947 99.0118 248.6 98.7893 248.308 98.5088C248.016 98.2283 247.784 97.8953 247.626 97.5289C247.468 97.1624 247.387 96.7696 247.387 96.373V23.8806C247.387 23.0795 247.718 22.3112 248.308 21.7448C248.898 21.1783 249.699 20.8601 250.533 20.8601H353.734C354.569 20.8601 355.369 21.1783 355.959 21.7448C356.549 22.3112 356.88 23.0795 356.88 23.8806V96.373C356.88 96.7696 356.799 97.1624 356.641 97.5289C356.483 97.8953 356.251 98.2283 355.959 98.5088C355.667 98.7893 355.32 99.0118 354.938 99.1636C354.556 99.3154 354.147 99.3935 353.734 99.3935ZM253.679 93.3525H350.588V26.9011H253.679V93.3525Z" fill="#0F0F24"/>
<path d="M343.665 33.5444H260.601V86.7055H343.665V33.5444Z" fill="#C6C6C6"/>
<path d="M343.665 88.5196H260.601C260.101 88.5196 259.62 88.3286 259.266 87.9887C258.912 87.6489 258.713 87.1879 258.713 86.7072V33.5462C258.713 33.0655 258.912 32.6046 259.266 32.2647C259.62 31.9248 260.101 31.7339 260.601 31.7339H343.665C344.166 31.7339 344.646 31.9248 345 32.2647C345.354 32.6046 345.553 33.0655 345.553 33.5462V86.7072C345.553 87.1879 345.354 87.6489 345 87.9887C344.646 88.3286 344.166 88.5196 343.665 88.5196ZM262.489 84.8949H341.778V35.3585H262.489V84.8949Z" fill="#0F0F24"/>
<path d="M275.535 76.0473L288.719 54.1262L301.903 76.0473H275.535Z" fill="#0F0F24"/>
<path d="M301.903 77.2555H275.536C275.315 77.2555 275.098 77.1996 274.907 77.0936C274.715 76.9875 274.556 76.835 274.446 76.6513C274.335 76.4677 274.277 76.2593 274.277 76.0472C274.277 75.8352 274.335 75.6268 274.446 75.4432L287.63 53.5221C287.74 53.3384 287.899 53.1859 288.091 53.0799C288.282 52.9738 288.499 52.918 288.72 52.918C288.941 52.9179 289.158 52.9737 289.349 53.0797C289.541 53.1858 289.7 53.3383 289.81 53.5221L302.996 75.4432C303.106 75.6269 303.164 75.8353 303.164 76.0474C303.164 76.2595 303.106 76.4679 302.995 76.6516C302.885 76.8353 302.726 76.9878 302.535 77.0938C302.343 77.1998 302.126 77.2556 301.905 77.2555H301.903ZM277.715 74.8391H299.723L288.719 56.5426L277.715 74.8391Z" fill="#0F0F24"/>
<path d="M288.719 76.0472L304.083 50.5015L319.446 76.0472H288.719Z" fill="#69DDEA"/>
<path d="M319.445 77.2555H288.718C288.498 77.2555 288.281 77.1997 288.089 77.0936C287.898 76.9876 287.739 76.8351 287.629 76.6514C287.518 76.4677 287.46 76.2594 287.46 76.0473C287.46 75.8352 287.518 75.6269 287.629 75.4432L302.995 49.8975C303.105 49.7137 303.264 49.5611 303.456 49.455C303.647 49.3488 303.864 49.293 304.085 49.293C304.306 49.293 304.523 49.3488 304.715 49.455C304.906 49.5611 305.065 49.7137 305.175 49.8975L320.538 75.4432C320.649 75.6269 320.707 75.8353 320.707 76.0475C320.707 76.2596 320.649 76.468 320.538 76.6517C320.428 76.8354 320.269 76.9879 320.077 77.0939C319.886 77.1999 319.669 77.2556 319.448 77.2555H319.445ZM290.898 74.8391H317.265L304.082 52.918L290.898 74.8391Z" fill="#0F0F24"/>
<path d="M325.319 54.1258C328.563 54.1258 331.192 51.6015 331.192 48.4877C331.192 45.3739 328.563 42.8496 325.319 42.8496C322.076 42.8496 319.446 45.3739 319.446 48.4877C319.446 51.6015 322.076 54.1258 325.319 54.1258Z" fill="#FFC857"/>
<path d="M325.319 55.3344C323.909 55.3346 322.53 54.9331 321.357 54.1808C320.184 53.4285 319.27 52.3592 318.73 51.1081C318.19 49.857 318.048 48.4804 318.323 47.1521C318.599 45.8239 319.278 44.6039 320.275 43.6462C321.273 42.6886 322.544 42.0365 323.927 41.7722C325.311 41.508 326.745 41.6436 328.048 42.1618C329.351 42.68 330.465 43.5576 331.249 44.6835C332.033 45.8095 332.451 47.1333 332.451 48.4875C332.449 50.3028 331.697 52.0431 330.36 53.3267C329.023 54.6103 327.21 55.3324 325.319 55.3344ZM325.319 44.0576C324.407 44.0575 323.514 44.3173 322.755 44.8041C321.996 45.2909 321.404 45.9828 321.055 46.7924C320.706 47.602 320.614 48.4929 320.792 49.3523C320.97 50.2118 321.41 51.0013 322.055 51.621C322.701 52.2406 323.523 52.6626 324.418 52.8335C325.314 53.0045 326.242 52.9167 327.085 52.5813C327.928 52.2458 328.649 51.6779 329.156 50.9492C329.663 50.2205 329.934 49.3639 329.934 48.4875C329.932 47.3131 329.446 46.1872 328.581 45.3567C327.716 44.5263 326.543 44.0591 325.319 44.0576Z" fill="#0F0F24"/>
<path d="M268.693 25.6929C268.29 25.6937 267.897 25.5703 267.571 25.3409C267.246 25.1114 267.006 24.7879 266.887 24.4179C266.767 24.0479 266.774 23.6509 266.907 23.285C267.039 22.9191 267.291 22.6036 267.624 22.3848L300.358 0.878793C300.673 0.672433 301.044 0.562012 301.425 0.562012C301.805 0.562012 302.177 0.672433 302.491 0.878793L335.213 22.371C335.627 22.6425 335.911 23.0604 336.003 23.5329C336.095 24.0054 335.988 24.4937 335.705 24.8904C335.422 25.2871 334.987 25.5597 334.495 25.6482C334.003 25.7367 333.494 25.634 333.081 25.3625L301.428 4.57046L269.759 25.3746C269.445 25.5816 269.074 25.6926 268.693 25.6929Z" fill="#0F0F24"/>
<path d="M113.967 224.08H76.5614C75.7269 224.08 74.9267 223.762 74.3366 223.195C73.7465 222.629 73.415 221.861 73.415 221.06C73.415 220.259 73.7465 219.49 74.3366 218.924C74.9267 218.357 75.7269 218.039 76.5614 218.039H113.967C114.801 218.039 115.601 218.357 116.192 218.924C116.782 219.49 117.113 220.259 117.113 221.06C117.113 221.861 116.782 222.629 116.192 223.195C115.601 223.762 114.801 224.08 113.967 224.08Z" fill="#0F0F24"/>
<path d="M113.967 272.409H76.5614C75.7269 272.409 74.9267 272.09 74.3366 271.524C73.7465 270.958 73.415 270.189 73.415 269.388C73.415 268.587 73.7465 267.819 74.3366 267.252C74.9267 266.686 75.7269 266.368 76.5614 266.368H113.967C114.801 266.368 115.601 266.686 116.192 267.252C116.782 267.819 117.113 268.587 117.113 269.388C117.113 270.189 116.782 270.958 116.192 271.524C115.601 272.09 114.801 272.409 113.967 272.409Z" fill="#0F0F24"/>
<path d="M381.865 293.552H361.728V305.634H381.865V293.552Z" fill="#0F0F24"/>
<path d="M381.864 308.655H361.727C360.893 308.655 360.093 308.336 359.503 307.77C358.913 307.203 358.581 306.435 358.581 305.634V293.552C358.581 292.751 358.913 291.983 359.503 291.416C360.093 290.85 360.893 290.531 361.727 290.531H381.864C382.699 290.531 383.499 290.85 384.089 291.416C384.679 291.983 385.011 292.751 385.011 293.552V305.634C385.011 306.435 384.679 307.203 384.089 307.77C383.499 308.336 382.699 308.655 381.864 308.655ZM364.874 302.614H378.718V296.573H364.874V302.614Z" fill="#0F0F24"/>
<path d="M248.301 293.552H228.164V305.634H248.301V293.552Z" fill="#0F0F24"/>
<path d="M248.301 308.655H228.164C227.329 308.655 226.529 308.336 225.939 307.77C225.349 307.203 225.018 306.435 225.018 305.634V293.552C225.018 292.751 225.349 291.983 225.939 291.416C226.529 290.85 227.329 290.531 228.164 290.531H248.301C249.135 290.531 249.935 290.85 250.525 291.416C251.116 291.983 251.447 292.751 251.447 293.552V305.634C251.447 306.435 251.116 307.203 250.525 307.77C249.935 308.336 249.135 308.655 248.301 308.655ZM231.31 302.614H245.154V296.573H231.31V302.614Z" fill="#0F0F24"/>
<path d="M224.388 196.896H238.232C240.903 196.896 243.464 197.914 245.352 199.727C247.24 201.539 248.301 203.998 248.301 206.561V293.552H214.32V206.561C214.32 203.998 215.381 201.539 217.269 199.727C219.157 197.914 221.718 196.896 224.388 196.896Z" fill="#FFC857"/>
<g style="mix-blend-mode:screen" opacity="0.6">
<path d="M238.232 196.896H224.388C221.718 196.896 219.157 197.914 217.269 199.727C215.381 201.539 214.32 203.998 214.32 206.561V212.603C214.32 210.039 215.381 207.58 217.269 205.768C219.157 203.955 221.718 202.937 224.388 202.937H238.232C240.903 202.937 243.464 203.955 245.352 205.768C247.24 207.58 248.301 210.039 248.301 212.603V206.561C248.301 203.998 247.24 201.539 245.352 199.727C243.464 197.914 240.903 196.896 238.232 196.896Z" fill="#FFC857"/>
</g>
<path d="M248.301 296.573H214.32C213.486 296.573 212.685 296.255 212.095 295.688C211.505 295.122 211.174 294.353 211.174 293.552V206.561C211.178 203.198 212.571 199.973 215.049 197.595C217.526 195.217 220.885 193.879 224.389 193.875H238.233C241.736 193.879 245.095 195.217 247.572 197.595C250.05 199.973 251.443 203.198 251.447 206.561V293.552C251.447 294.353 251.116 295.122 250.526 295.688C249.936 296.255 249.136 296.573 248.301 296.573ZM217.467 290.532H245.155V206.561C245.153 204.8 244.423 203.111 243.125 201.865C241.827 200.619 240.068 199.918 238.233 199.916H224.389C222.553 199.918 220.794 200.619 219.496 201.865C218.198 203.111 217.469 204.8 217.467 206.561V290.532Z" fill="#0F0F24"/>
<path d="M361.728 238.327V267.576H248.458V238.327C248.458 235.35 249.69 232.495 251.883 230.389C254.076 228.284 257.051 227.101 260.152 227.101H350.034C353.135 227.101 356.11 228.284 358.303 230.389C360.496 232.495 361.728 235.35 361.728 238.327Z" fill="#FFC857"/>
<g style="mix-blend-mode:screen" opacity="0.6">
<path d="M350.033 227.101H260.152C258.617 227.101 257.096 227.391 255.677 227.955C254.258 228.519 252.969 229.346 251.883 230.389C250.797 231.431 249.936 232.669 249.348 234.031C248.76 235.393 248.458 236.853 248.458 238.327V245.576C248.458 244.102 248.76 242.642 249.348 241.28C249.936 239.918 250.797 238.68 251.883 237.638C252.969 236.595 254.258 235.769 255.677 235.204C257.096 234.64 258.617 234.35 260.152 234.35H350.033C353.135 234.35 356.109 235.533 358.302 237.638C360.495 239.743 361.727 242.599 361.727 245.576V238.327C361.727 235.35 360.495 232.494 358.302 230.389C356.109 228.284 353.135 227.101 350.033 227.101Z" fill="#FFC857"/>
</g>
<path d="M361.728 270.596H248.458C247.624 270.596 246.824 270.278 246.234 269.712C245.644 269.145 245.312 268.377 245.312 267.576V238.327C245.316 234.55 246.881 230.929 249.663 228.258C252.445 225.587 256.218 224.085 260.152 224.08H350.033C353.968 224.085 357.74 225.587 360.522 228.258C363.305 230.929 364.87 234.55 364.874 238.327V267.576C364.874 268.377 364.543 269.145 363.953 269.712C363.363 270.278 362.562 270.596 361.728 270.596ZM251.605 264.555H358.581V238.327C358.579 236.152 357.677 234.066 356.075 232.528C354.472 230.989 352.3 230.124 350.033 230.121H260.152C257.886 230.124 255.714 230.99 254.111 232.528C252.509 234.066 251.607 236.152 251.605 238.327V264.555Z" fill="#0F0F24"/>
<path d="M361.728 290.532V267.576H248.458V290.532H361.728Z" fill="#FFC857"/>
<path d="M361.728 290.532V267.576H248.458V290.532H361.728Z" fill="#FFC857"/>
<path d="M361.728 274.825V267.576H248.458V274.825H361.728Z" fill="#D89E36"/>
<path d="M361.728 293.552H248.458C247.624 293.552 246.824 293.234 246.234 292.667C245.644 292.101 245.312 291.333 245.312 290.532V267.576C245.312 266.775 245.644 266.006 246.234 265.44C246.824 264.873 247.624 264.555 248.458 264.555H361.728C362.562 264.555 363.363 264.873 363.953 265.44C364.543 266.006 364.874 266.775 364.874 267.576V290.532C364.874 291.333 364.543 292.101 363.953 292.667C363.363 293.234 362.562 293.552 361.728 293.552ZM251.605 287.511H358.581V270.596H251.605V287.511Z" fill="#0F0F24"/>
<g style="mix-blend-mode:screen" opacity="0.69">
<path d="M305.355 185.116C309.177 185.116 312.277 182.141 312.277 178.471C312.277 174.801 309.177 171.825 305.355 171.825C301.532 171.825 298.433 174.801 298.433 178.471C298.433 182.141 301.532 185.116 305.355 185.116Z" fill="white"/>
</g>
<path d="M305.355 186.928C303.612 186.928 301.909 186.432 300.46 185.503C299.012 184.573 297.882 183.253 297.216 181.707C296.549 180.162 296.374 178.461 296.714 176.821C297.054 175.18 297.893 173.673 299.125 172.49C300.357 171.308 301.927 170.502 303.636 170.176C305.345 169.849 307.116 170.017 308.726 170.657C310.336 171.297 311.712 172.381 312.68 173.772C313.648 175.163 314.165 176.798 314.165 178.471C314.162 180.713 313.233 182.863 311.582 184.448C309.93 186.034 307.691 186.926 305.355 186.928ZM305.355 173.638C304.359 173.638 303.386 173.921 302.558 174.452C301.73 174.983 301.085 175.738 300.704 176.621C300.323 177.504 300.223 178.476 300.417 179.413C300.612 180.351 301.091 181.212 301.795 181.888C302.499 182.564 303.396 183.024 304.373 183.211C305.349 183.397 306.361 183.301 307.281 182.936C308.201 182.57 308.987 181.95 309.541 181.156C310.094 180.361 310.389 179.426 310.389 178.471C310.388 177.189 309.857 175.961 308.913 175.055C307.969 174.149 306.69 173.639 305.355 173.638Z" fill="#0F0F24"/>
<path d="M410.653 308.655H3.14637C2.3119 308.655 1.51161 308.336 0.921548 307.77C0.331489 307.203 0 306.435 0 305.634C0 304.833 0.331489 304.065 0.921548 303.498C1.51161 302.932 2.3119 302.614 3.14637 302.614H410.653C411.488 302.614 412.288 302.932 412.878 303.498C413.468 304.065 413.8 304.833 413.8 305.634C413.8 306.435 413.468 307.203 412.878 307.77C412.288 308.336 411.488 308.655 410.653 308.655Z" fill="#0F0F24"/>
<path d="M214.582 338H164.747C163.912 338 163.112 337.682 162.522 337.115C161.932 336.549 161.601 335.781 161.601 334.979C161.601 334.178 161.932 333.41 162.522 332.844C163.112 332.277 163.912 331.959 164.747 331.959H214.582C215.417 331.959 216.217 332.277 216.807 332.844C217.397 333.41 217.729 334.178 217.729 334.979C217.729 335.781 217.397 336.549 216.807 337.115C216.217 337.682 215.417 338 214.582 338Z" fill="#0F0F24"/>
<path d="M153.743 338H142.857C142.022 338 141.222 337.682 140.632 337.115C140.042 336.549 139.71 335.781 139.71 334.979C139.71 334.178 140.042 333.41 140.632 332.844C141.222 332.277 142.022 331.959 142.857 331.959H153.743C154.578 331.959 155.378 332.277 155.968 332.844C156.558 333.41 156.89 334.178 156.89 334.979C156.89 335.781 156.558 336.549 155.968 337.115C155.378 337.682 154.578 338 153.743 338Z" fill="#0F0F24"/>
<path d="M430.581 308.655H421.96C421.125 308.655 420.325 308.336 419.735 307.77C419.145 307.203 418.813 306.435 418.813 305.634C418.813 304.833 419.145 304.065 419.735 303.498C420.325 302.932 421.125 302.614 421.96 302.614H430.581C431.415 302.614 432.216 302.932 432.806 303.498C433.396 304.065 433.727 304.833 433.727 305.634C433.727 306.435 433.396 307.203 432.806 307.77C432.216 308.336 431.415 308.655 430.581 308.655Z" fill="#0F0F24"/>
<path d="M159.442 149.272C160.152 149.272 160.727 148.799 160.727 148.215C160.727 147.631 160.152 147.158 159.442 147.158C158.733 147.158 158.157 147.631 158.157 148.215C158.157 148.799 158.733 149.272 159.442 149.272Z" fill="#DBDBDB"/>
</svg>
