<svg width="250" height="217" viewBox="0 0 250 217" fill="none" xmlns="http://www.w3.org/2000/svg">
<path d="M186.288 19.0302L6.13574 71.519L10.9075 87.8965L191.06 35.4077L186.288 19.0302Z" fill="#2C2E6F"/>
<path d="M27.6589 146.747L1.10593 55.6117C0.909071 54.9361 0.988694 54.2099 1.32727 53.5929C1.66584 52.9759 2.23563 52.5187 2.91131 52.3218L178.696 1.10537C179.372 0.909171 180.098 0.989063 180.715 1.32752C181.331 1.66597 181.789 2.23533 181.986 2.91061L205.51 83.6497L204.782 83.8619L181.258 3.12273C181.117 2.64058 180.79 2.23413 180.35 1.99242C179.909 1.7507 179.391 1.69343 178.908 1.83316L3.12338 53.0496C2.64076 53.1903 2.23376 53.5169 1.99193 53.9576C1.75009 54.3983 1.69321 54.917 1.83382 55.3996L28.3868 146.535L27.6589 146.747Z" fill="#0F0F24" stroke="#0F0F24" stroke-width="2"/>
<path d="M166.603 84.0249C166.07 84.0243 165.551 83.8511 165.124 83.5311C164.698 83.2111 164.386 82.7615 164.236 82.2496L159.783 66.964C159.601 66.3366 159.675 65.6627 159.989 65.09C160.304 64.5173 160.832 64.0926 161.459 63.9092L176.745 59.4556C177.372 59.2736 178.046 59.3479 178.619 59.6622C179.192 59.9765 179.616 60.5052 179.8 61.1322L184.253 76.4178C184.435 77.0452 184.361 77.7191 184.047 78.2918C183.732 78.8645 183.204 79.2892 182.577 79.4726L167.291 83.9262C167.068 83.9916 166.836 84.0248 166.603 84.0249Z" fill="#5B5FD4"/>
<path d="M27.2483 55.8937C27.2025 55.7366 27.1481 55.5822 27.0852 55.4312C26.6578 54.3939 25.8622 53.5511 24.8511 53.0648C23.8401 52.5785 22.685 52.483 21.6078 52.7966C20.5306 53.1102 19.6074 53.8108 19.0154 54.7638C18.4234 55.7169 18.2045 56.855 18.4007 57.9597C18.4283 58.1208 18.465 58.2803 18.5106 58.4373C18.7874 59.3822 19.3629 60.2119 20.1508 60.8024C20.9387 61.3928 21.8967 61.7121 22.8813 61.7125C23.3112 61.7135 23.7389 61.6522 24.1512 61.5306C25.3086 61.1924 26.2845 60.4091 26.8651 59.3524C27.4457 58.2957 27.5835 57.0518 27.2483 55.8937ZM23.939 60.8027C22.9738 61.0828 21.937 60.9688 21.0558 60.4856C20.1747 60.0023 19.5211 59.1894 19.2384 58.225C19.1941 58.0679 19.1586 57.9085 19.1322 57.7474C18.99 56.8373 19.1842 55.9065 19.6784 55.1292C20.1727 54.3518 20.9331 53.7811 21.8176 53.5238C22.7021 53.2664 23.65 53.34 24.4842 53.7309C25.3183 54.1217 25.9815 54.803 26.3498 55.6473C26.4185 55.7955 26.4755 55.9489 26.5205 56.106C26.8002 57.0711 26.6855 58.1078 26.2015 58.9885C25.7174 59.8691 24.9037 60.5216 23.939 60.8028V60.8027Z" fill="#5B5FD4"/>
<path d="M16.0915 59.1422C15.8489 58.309 15.8722 57.421 16.1581 56.6017C16.4441 55.7825 16.9785 55.0728 17.6868 54.5716C17.0232 54.5393 16.3614 54.666 15.7567 54.9411C15.152 55.2163 14.6217 55.6321 14.2102 56.1537C13.7987 56.6753 13.5177 57.2876 13.3908 57.9398C13.2638 58.592 13.2946 59.265 13.4804 59.9029C13.6663 60.5408 14.0019 61.125 14.4592 61.607C14.9166 62.0889 15.4825 62.4545 16.1098 62.6735C16.7371 62.8924 17.4076 62.9583 18.0655 62.8656C18.7234 62.7729 19.3497 62.5243 19.8921 62.1406C19.0254 62.0983 18.1935 61.7867 17.5122 61.2492C16.831 60.7118 16.3343 59.9752 16.0915 59.1422Z" fill="#5B5FD4"/>
<path d="M133.932 77.9293C133.851 77.6392 133.714 77.3679 133.528 77.1308C133.343 76.8937 133.112 76.6956 132.85 76.5477C132.588 76.3998 132.299 76.3051 132 76.269C131.701 76.2329 131.398 76.256 131.108 76.3372L105.941 83.3766L103.23 84.1348H120.251L122.961 83.3766L132.344 80.7534C132.928 80.5891 133.424 80.1994 133.722 79.6699C134.02 79.1404 134.095 78.5144 133.932 77.9293Z" fill="#DDDDDD"/>
<path d="M116.127 72.6714C115.963 72.0864 115.573 71.5904 115.044 71.2925C114.514 70.9947 113.888 70.9193 113.303 71.0831L75.5391 81.6442C75.0114 81.7937 74.5545 82.1268 74.2507 82.5834C73.947 83.0401 73.8164 83.5903 73.8825 84.1347H83.6589L86.373 83.3766L114.538 75.4993C115.124 75.3345 115.62 74.9441 115.918 74.4139C116.215 73.8837 116.291 73.2571 116.127 72.6714Z" fill="#DDDDDD"/>
<path d="M213.347 83.3757H30.2522C29.5487 83.3765 28.8742 83.6563 28.3767 84.1538C27.8792 84.6513 27.5994 85.3258 27.5986 86.0293V194.445C27.5994 195.149 27.8792 195.823 28.3767 196.321C28.8741 196.818 29.5486 197.098 30.2522 197.099H213.347C214.05 197.098 214.725 196.818 215.222 196.321C215.719 195.823 215.999 195.149 216 194.445V86.0293C215.999 85.3258 215.719 84.6513 215.222 84.1538C214.725 83.6564 214.05 83.3766 213.347 83.3757ZM215.242 194.445C215.242 194.948 215.042 195.43 214.687 195.785C214.331 196.141 213.849 196.34 213.347 196.341H30.2522C29.7495 196.34 29.2675 196.141 28.9121 195.785C28.5567 195.43 28.357 194.948 28.3568 194.445V86.0293C28.357 85.5266 28.5568 85.0447 28.9122 84.6893C29.2676 84.3339 29.7496 84.1341 30.2522 84.1339H213.347C213.849 84.1341 214.331 84.3339 214.687 84.6893C215.042 85.0447 215.242 85.5266 215.242 86.0293V194.445Z" fill="#0F0F24" stroke="#0F0F24" stroke-width="2"/>
<path d="M48.0675 98.1608C47.1678 98.1608 46.2883 97.8941 45.5402 97.3942C44.7922 96.8944 44.2091 96.1839 43.8648 95.3527C43.5205 94.5215 43.4304 93.6069 43.606 92.7245C43.7815 91.8421 44.2147 91.0315 44.8509 90.3953C45.4871 89.7592 46.2976 89.3259 47.18 89.1504C48.0624 88.9749 48.9771 89.065 49.8083 89.4093C50.6395 89.7536 51.3499 90.3366 51.8498 91.0847C52.3496 91.8327 52.6164 92.7122 52.6164 93.6119C52.615 94.8179 52.1353 95.9742 51.2825 96.827C50.4297 97.6797 49.2735 98.1595 48.0675 98.1608ZM48.0675 89.8211C47.3177 89.8211 46.5848 90.0435 45.9614 90.46C45.3381 90.8765 44.8522 91.4686 44.5653 92.1613C44.2784 92.8539 44.2033 93.6161 44.3496 94.3515C44.4958 95.0868 44.8569 95.7622 45.387 96.2924C45.9172 96.8225 46.5926 97.1836 47.3279 97.3298C48.0633 97.4761 48.8255 97.401 49.5181 97.1141C50.2108 96.8272 50.8029 96.3413 51.2194 95.718C51.6359 95.0946 51.8582 94.3617 51.8582 93.6119C51.8571 92.6069 51.4574 91.6434 50.7467 90.9327C50.036 90.222 49.0725 89.8223 48.0675 89.8211Z" fill="#5B5FD4"/>
<path d="M40.9965 93.6117C40.9966 92.744 41.2674 91.8979 41.7711 91.1914C42.2748 90.4848 42.9864 89.953 43.8066 89.6699C43.1785 89.4532 42.5078 89.3897 41.8502 89.4848C41.1926 89.5798 40.5673 89.8306 40.0263 90.2163C39.4853 90.6019 39.0442 91.1113 38.7399 91.7019C38.4356 92.2925 38.2769 92.9473 38.2769 93.6117C38.2769 94.2761 38.4356 94.9309 38.7399 95.5216C39.0442 96.1122 39.4853 96.6215 40.0263 97.0072C40.5673 97.3929 41.1926 97.6436 41.8502 97.7387C42.5078 97.8337 43.1785 97.7703 43.8066 97.5536C42.9864 97.2705 42.2748 96.7387 41.7711 96.0321C41.2674 95.3255 40.9966 94.4795 40.9965 93.6117Z" fill="#5B5FD4"/>
<path d="M66.5069 147.357C65.6024 147.356 64.7352 146.996 64.0956 146.356C63.456 145.717 63.0962 144.849 63.0952 143.945V133.71C63.0952 132.805 63.4547 131.937 64.0945 131.297C64.7343 130.658 65.6021 130.298 66.5069 130.298C67.4117 130.298 68.2795 130.658 68.9193 131.297C69.5592 131.937 69.9186 132.805 69.9186 133.71V143.945C69.9176 144.849 69.5578 145.717 68.9182 146.356C68.2786 146.996 67.4114 147.356 66.5069 147.357Z" fill="#5B5FD4"/>
<path d="M75.605 147.357C74.7005 147.356 73.8334 146.996 73.1938 146.356C72.5542 145.717 72.1944 144.849 72.1934 143.945V133.71C72.1934 132.805 72.5528 131.937 73.1926 131.297C73.8324 130.658 74.7002 130.298 75.605 130.298C76.5099 130.298 77.3777 130.658 78.0175 131.297C78.6573 131.937 79.0167 132.805 79.0167 133.71V143.945C79.0157 144.849 78.6559 145.717 78.0163 146.356C77.3767 146.996 76.5096 147.356 75.605 147.357Z" fill="#5B5FD4"/>
<path d="M84.7027 147.357C83.7982 147.356 82.931 146.996 82.2914 146.356C81.6518 145.717 81.2921 144.849 81.291 143.945V133.71C81.291 132.805 81.6505 131.937 82.2903 131.297C82.9301 130.658 83.7979 130.298 84.7027 130.298C85.6075 130.298 86.4753 130.658 87.1151 131.297C87.755 131.937 88.1144 132.805 88.1144 133.71V143.945C88.1134 144.849 87.7536 145.717 87.114 146.356C86.4744 146.996 85.6072 147.356 84.7027 147.357Z" fill="#5B5FD4"/>
<path d="M98.7286 147.357C97.8241 147.356 96.9569 146.996 96.3173 146.356C95.6777 145.717 95.3179 144.849 95.3169 143.945V133.71C95.3169 132.805 95.6763 131.937 96.3162 131.297C96.956 130.658 97.8238 130.298 98.7286 130.298C99.6334 130.298 100.501 130.658 101.141 131.297C101.781 131.937 102.14 132.805 102.14 133.71V143.945C102.139 144.849 101.779 145.717 101.14 146.356C100.5 146.996 99.6331 147.356 98.7286 147.357Z" fill="#5B5FD4"/>
<path d="M107.826 147.357C106.922 147.356 106.055 146.996 105.415 146.356C104.775 145.717 104.416 144.849 104.415 143.945V133.71C104.415 132.805 104.774 131.937 105.414 131.297C106.054 130.658 106.921 130.298 107.826 130.298C108.731 130.298 109.599 130.658 110.239 131.297C110.878 131.937 111.238 132.805 111.238 133.71V143.945C111.237 144.849 110.877 145.717 110.238 146.356C109.598 146.996 108.731 147.356 107.826 147.357Z" fill="#5B5FD4"/>
<path d="M116.924 147.357C116.02 147.356 115.153 146.996 114.513 146.356C113.874 145.717 113.514 144.849 113.513 143.945V133.71C113.513 132.805 113.872 131.937 114.512 131.297C115.152 130.658 116.02 130.298 116.924 130.298C117.829 130.298 118.697 130.658 119.337 131.297C119.977 131.937 120.336 132.805 120.336 133.71V143.945C120.335 144.849 119.975 145.717 119.336 146.356C118.696 146.996 117.829 147.356 116.924 147.357Z" fill="#5B5FD4"/>
<path d="M130.95 147.357C130.046 147.356 129.179 146.996 128.539 146.356C127.899 145.717 127.54 144.849 127.539 143.945V133.71C127.539 132.805 127.898 131.937 128.538 131.297C129.178 130.658 130.045 130.298 130.95 130.298C131.855 130.298 132.723 130.658 133.363 131.297C134.003 131.937 134.362 132.805 134.362 133.71V143.945C134.361 144.849 134.001 145.717 133.362 146.356C132.722 146.996 131.855 147.356 130.95 147.357Z" fill="#5B5FD4"/>
<path d="M140.048 147.357C139.143 147.356 138.276 146.996 137.637 146.356C136.997 145.717 136.637 144.849 136.636 143.945V133.71C136.636 132.805 136.996 131.937 137.635 131.297C138.275 130.658 139.143 130.298 140.048 130.298C140.953 130.298 141.821 130.658 142.46 131.297C143.1 131.937 143.46 132.805 143.46 133.71V143.945C143.459 144.849 143.099 145.717 142.459 146.356C141.82 146.996 140.952 147.356 140.048 147.357Z" fill="#5B5FD4"/>
<path d="M149.146 147.357C148.242 147.356 147.374 146.996 146.735 146.356C146.095 145.717 145.735 144.849 145.734 143.945V133.71C145.734 132.805 146.094 131.937 146.734 131.297C147.373 130.658 148.241 130.298 149.146 130.298C150.051 130.298 150.919 130.658 151.558 131.297C152.198 131.937 152.558 132.805 152.558 133.71V143.945C152.557 144.849 152.197 145.717 151.557 146.356C150.918 146.996 150.051 147.356 149.146 147.357Z" fill="#5B5FD4"/>
<path d="M163.171 147.357C162.267 147.356 161.4 146.996 160.76 146.356C160.121 145.717 159.761 144.849 159.76 143.945V133.71C159.76 132.805 160.119 131.937 160.759 131.297C161.399 130.658 162.267 130.298 163.171 130.298C164.076 130.298 164.944 130.658 165.584 131.297C166.224 131.937 166.583 132.805 166.583 133.71V143.945C166.582 144.849 166.222 145.717 165.583 146.356C164.943 146.996 164.076 147.356 163.171 147.357Z" fill="#5B5FD4"/>
<path d="M172.27 147.357C171.365 147.356 170.498 146.996 169.858 146.356C169.219 145.717 168.859 144.849 168.858 143.945V133.71C168.858 132.805 169.217 131.937 169.857 131.297C170.497 130.658 171.365 130.298 172.27 130.298C173.174 130.298 174.042 130.658 174.682 131.297C175.322 131.937 175.681 132.805 175.681 133.71V143.945C175.68 144.849 175.32 145.717 174.681 146.356C174.041 146.996 173.174 147.356 172.27 147.357Z" fill="#5B5FD4"/>
<path d="M181.367 147.357C180.463 147.356 179.596 146.996 178.956 146.356C178.316 145.717 177.957 144.849 177.956 143.945V133.71C177.956 132.805 178.315 131.937 178.955 131.297C179.595 130.658 180.462 130.298 181.367 130.298C182.272 130.298 183.14 130.658 183.78 131.297C184.42 131.937 184.779 132.805 184.779 133.71V143.945C184.778 144.849 184.418 145.717 183.779 146.356C183.139 146.996 182.272 147.356 181.367 147.357Z" fill="#5B5FD4"/>
<path d="M89.6376 185.328H40.5698C39.9618 185.328 39.3787 185.086 38.9488 184.656C38.5189 184.226 38.2773 183.643 38.2773 183.035C38.2773 182.427 38.5189 181.844 38.9488 181.414C39.3787 180.984 39.9618 180.743 40.5698 180.743H89.6376C90.2456 180.743 90.8287 180.984 91.2586 181.414C91.6885 181.844 91.93 182.427 91.93 183.035C91.93 183.643 91.6885 184.226 91.2586 184.656C90.8287 185.086 90.2456 185.328 89.6376 185.328Z" fill="#DDDDDD"/>
<path d="M73.9061 175.472H56.3017C55.6937 175.472 55.1106 175.23 54.6807 174.8C54.2508 174.37 54.0093 173.787 54.0093 173.179C54.0093 172.571 54.2508 171.988 54.6807 171.558C55.1106 171.128 55.6937 170.887 56.3017 170.887H73.9061C74.5141 170.887 75.0972 171.128 75.5271 171.558C75.9571 171.988 76.1986 172.571 76.1986 173.179C76.1986 173.787 75.9571 174.37 75.5271 174.8C75.0972 175.23 74.5141 175.472 73.9061 175.472Z" fill="#DDDDDD"/>
<path d="M215.105 106.037H28.2202V106.795H215.105V106.037Z" fill="#0F0F24" stroke="black" stroke-width="2"/>
<circle cx="215.5" cy="182.5" r="32.5" fill="#EA8080" stroke="#0F0F24" stroke-width="4"/>
<path d="M238.5 157.5L194 207.5" stroke="#0F0F24" stroke-width="4"/>
</svg>
