<svg width="600" height="310" viewBox="0 0 600 310" fill="none" xmlns="http://www.w3.org/2000/svg">
<rect width="600" height="310" fill="#E5E5E5"/>
<g clip-path="url(#clip0)">
<rect width="1440" height="4380" transform="translate(-100 -874)" fill="white"/>
<rect x="-100" y="-174" width="1440" height="740" fill="white"/>
<rect opacity="0.4" width="600" height="310" fill="#69DDEA"/>
<path d="M429.933 196.779L273.315 288.317C272.767 288.636 272.115 288.725 271.501 288.564C270.887 288.403 270.362 288.006 270.041 287.458L169.326 115.137C169.006 114.589 168.917 113.937 169.078 113.323C169.239 112.709 169.637 112.184 170.185 111.864L326.802 20.326C327.351 20.0065 328.003 19.9174 328.617 20.0784C329.231 20.2393 329.755 20.6372 330.076 21.1846L430.792 193.505C431.111 194.054 431.2 194.706 431.039 195.32C430.878 195.934 430.48 196.458 429.933 196.779Z" fill="white" stroke="#0F0F24"/>
<path d="M429.933 196.779L273.315 288.317C272.767 288.636 272.115 288.725 271.501 288.564C270.887 288.403 270.362 288.006 270.041 287.458L169.326 115.137C169.006 114.589 168.917 113.937 169.078 113.323C169.239 112.709 169.637 112.184 170.185 111.864L326.802 20.326C327.351 20.0065 328.003 19.9174 328.617 20.0784C329.231 20.2393 329.755 20.6372 330.076 21.1846L430.792 193.505C431.111 194.054 431.2 194.706 431.039 195.32C430.878 195.934 430.48 196.458 429.933 196.779ZM170.668 112.69C170.339 112.882 170.1 113.197 170.004 113.566C169.907 113.934 169.961 114.325 170.153 114.654L270.868 286.975C271.06 287.304 271.375 287.542 271.744 287.639C272.112 287.735 272.503 287.682 272.832 287.49L429.45 195.953C429.779 195.76 430.017 195.445 430.114 195.077C430.21 194.709 430.157 194.317 429.965 193.988L329.25 21.6676C329.057 21.3392 328.742 21.1004 328.374 21.0039C328.006 20.9073 327.614 20.9607 327.285 21.1525L170.668 112.69Z" fill="#0F0F24" stroke="#0F0F24"/>
<path d="M271.342 129.851L232.497 152.554C231.949 152.874 231.297 152.963 230.683 152.802C230.069 152.641 229.544 152.243 229.224 151.695L206.52 112.851C206.201 112.303 206.112 111.65 206.273 111.036C206.434 110.423 206.832 109.898 207.379 109.577L246.223 86.8739C246.772 86.5543 247.424 86.4653 248.038 86.6262C248.652 86.7872 249.176 87.185 249.497 87.7325L272.2 126.577C272.52 127.125 272.609 127.778 272.448 128.391C272.287 129.005 271.889 129.53 271.342 129.851ZM207.862 110.404C207.534 110.596 207.295 110.911 207.198 111.279C207.102 111.647 207.155 112.039 207.347 112.368L230.05 151.212C230.243 151.541 230.557 151.78 230.926 151.876C231.294 151.973 231.685 151.919 232.014 151.728L270.859 129.024C271.187 128.832 271.426 128.517 271.523 128.149C271.619 127.78 271.566 127.389 271.374 127.06L248.671 88.2155C248.478 87.887 248.163 87.6483 247.795 87.5517C247.427 87.4552 247.035 87.5086 246.707 87.7004L207.862 110.404Z" fill="#F2F2F2" stroke="#0F0F24"/>
<path d="M262.962 141.124L224.117 163.827C223.624 164.115 223.037 164.195 222.484 164.05C221.932 163.905 221.46 163.547 221.171 163.055L198.468 124.21C198.18 123.717 198.1 123.129 198.245 122.577C198.39 122.025 198.748 121.552 199.24 121.264L238.085 98.5604C238.578 98.2728 239.166 98.1926 239.718 98.3375C240.27 98.4824 240.743 98.8404 241.031 99.3331L263.735 138.178C264.022 138.671 264.102 139.258 263.958 139.811C263.813 140.363 263.455 140.835 262.962 141.124Z" fill="#5B5FD4" stroke="#0F0F24"/>
<path d="M356.72 111.828L235.228 182.836C234.734 183.124 234.147 183.205 233.594 183.06C233.042 182.915 232.569 182.557 232.281 182.063C231.993 181.57 231.912 180.983 232.057 180.43C232.202 179.878 232.561 179.405 233.054 179.117L354.546 108.109C354.79 107.966 355.06 107.873 355.341 107.835C355.621 107.796 355.906 107.813 356.18 107.885C356.453 107.957 356.71 108.082 356.935 108.253C357.161 108.424 357.35 108.638 357.493 108.882C357.635 109.126 357.729 109.396 357.767 109.676C357.805 109.956 357.788 110.241 357.717 110.515C357.645 110.789 357.52 111.045 357.349 111.271C357.178 111.496 356.964 111.685 356.72 111.828Z" fill="#DDDDDD" stroke="#0F0F24"/>
<path d="M334.867 141.787L242.715 195.647C242.471 195.789 242.201 195.883 241.921 195.921C241.64 195.959 241.355 195.942 241.082 195.871C240.529 195.726 240.057 195.367 239.768 194.874C239.48 194.381 239.4 193.793 239.545 193.241C239.689 192.688 240.048 192.216 240.541 191.928L332.694 138.068C332.938 137.925 333.208 137.832 333.488 137.793C333.768 137.755 334.053 137.772 334.327 137.844C334.6 137.916 334.857 138.041 335.083 138.212C335.308 138.383 335.497 138.596 335.64 138.84C335.783 139.085 335.876 139.355 335.914 139.635C335.953 139.915 335.936 140.2 335.864 140.474C335.792 140.747 335.667 141.004 335.496 141.229C335.325 141.455 335.111 141.644 334.867 141.787V141.787Z" fill="#DDDDDD" stroke="#0F0F24"/>
<path d="M328.773 64.9606L275.052 96.3587C274.559 96.647 273.972 96.7275 273.419 96.5826C272.866 96.4377 272.394 96.0792 272.106 95.586C271.818 95.0928 271.737 94.5053 271.882 93.9527C272.027 93.4002 272.385 92.9278 272.879 92.6396L326.6 61.2415C327.093 60.9532 327.68 60.8727 328.233 61.0176C328.507 61.0894 328.763 61.2143 328.989 61.3853C329.214 61.5563 329.403 61.77 329.546 62.0142C329.689 62.2584 329.782 62.5283 329.821 62.8086C329.859 63.0888 329.842 63.3738 329.77 63.6474C329.698 63.921 329.573 64.1778 329.402 64.4031C329.231 64.6285 329.018 64.8179 328.773 64.9606Z" fill="#DDDDDD" stroke="#0F0F24"/>
<path d="M322.854 85.6069L282.54 109.169C282.295 109.312 282.025 109.405 281.745 109.443C281.465 109.482 281.18 109.465 280.906 109.393C280.633 109.321 280.376 109.196 280.151 109.025C279.925 108.854 279.736 108.641 279.593 108.396C279.45 108.152 279.357 107.882 279.319 107.602C279.28 107.322 279.298 107.037 279.369 106.763C279.441 106.489 279.566 106.233 279.737 106.007C279.908 105.782 280.122 105.593 280.366 105.45L320.68 81.8877C321.173 81.5995 321.761 81.5189 322.313 81.6638C322.866 81.8088 323.338 82.1672 323.626 82.6604C323.915 83.1536 323.995 83.7411 323.85 84.2937C323.705 84.8463 323.347 85.3186 322.854 85.6069Z" fill="#DDDDDD" stroke="#0F0F24"/>
<path d="M371.695 137.449L250.202 208.457C249.709 208.746 249.122 208.826 248.569 208.681C248.016 208.536 247.544 208.178 247.256 207.685C246.968 207.191 246.887 206.604 247.032 206.051C247.177 205.499 247.535 205.026 248.028 204.738L369.521 133.73C370.014 133.442 370.602 133.361 371.154 133.506C371.707 133.651 372.179 134.01 372.467 134.503C372.756 134.996 372.836 135.584 372.691 136.136C372.546 136.689 372.188 137.161 371.695 137.449V137.449Z" fill="#DDDDDD" stroke="#0F0F24"/>
<path d="M349.842 167.408L257.689 221.267C257.445 221.41 257.175 221.503 256.895 221.542C256.615 221.58 256.33 221.563 256.056 221.491C255.783 221.42 255.526 221.295 255.301 221.124C255.075 220.953 254.886 220.739 254.743 220.495C254.6 220.251 254.507 219.981 254.469 219.7C254.43 219.42 254.447 219.135 254.519 218.861C254.591 218.588 254.716 218.331 254.887 218.106C255.058 217.88 255.272 217.691 255.516 217.548L347.668 163.688C347.912 163.546 348.182 163.453 348.463 163.414C348.743 163.376 349.028 163.393 349.301 163.465C349.575 163.536 349.832 163.661 350.057 163.832C350.282 164.003 350.472 164.217 350.615 164.461C350.757 164.705 350.851 164.975 350.889 165.256C350.927 165.536 350.91 165.821 350.838 166.094C350.767 166.368 350.642 166.625 350.471 166.85C350.3 167.075 350.086 167.265 349.842 167.408V167.408Z" fill="#DDDDDD" stroke="#0F0F24"/>
<path d="M386.669 163.07L265.177 234.078C264.933 234.221 264.663 234.314 264.382 234.352C264.102 234.391 263.817 234.374 263.544 234.302C263.27 234.23 263.013 234.105 262.788 233.934C262.563 233.763 262.373 233.549 262.23 233.305C262.088 233.061 261.994 232.791 261.956 232.511C261.918 232.231 261.935 231.946 262.006 231.672C262.078 231.398 262.203 231.142 262.374 230.916C262.545 230.691 262.759 230.502 263.003 230.359L384.496 159.351C384.74 159.208 385.01 159.115 385.29 159.076C385.57 159.038 385.855 159.055 386.129 159.127C386.402 159.199 386.659 159.324 386.884 159.495C387.11 159.666 387.299 159.879 387.442 160.124C387.585 160.368 387.678 160.638 387.716 160.918C387.755 161.198 387.738 161.483 387.666 161.757C387.594 162.03 387.469 162.287 387.298 162.513C387.127 162.738 386.913 162.927 386.669 163.07Z" fill="#DDDDDD" stroke="#0F0F24"/>
<path d="M394.157 175.881L272.664 246.889C272.42 247.031 272.15 247.124 271.87 247.163C271.589 247.201 271.304 247.184 271.031 247.112C270.757 247.041 270.5 246.916 270.275 246.745C270.05 246.574 269.86 246.36 269.718 246.116C269.575 245.872 269.482 245.602 269.443 245.321C269.405 245.041 269.422 244.756 269.494 244.483C269.566 244.209 269.69 243.952 269.861 243.727C270.032 243.502 270.246 243.312 270.49 243.169L391.983 172.161C392.227 172.019 392.497 171.925 392.777 171.887C393.057 171.849 393.342 171.866 393.616 171.938C393.89 172.009 394.146 172.134 394.372 172.305C394.597 172.476 394.786 172.69 394.929 172.934C395.072 173.178 395.165 173.448 395.204 173.728C395.242 174.009 395.225 174.294 395.153 174.567C395.081 174.841 394.956 175.098 394.785 175.323C394.614 175.548 394.401 175.738 394.157 175.881Z" fill="#DDDDDD" stroke="#0F0F24"/>
<path d="M354.868 225.75C356.556 223.762 358.075 221.637 359.41 219.397C360.608 217.376 361.782 215.216 362.046 212.845C362.181 211.836 362.076 210.809 361.739 209.848C361.402 208.887 360.844 208.019 360.108 207.315C359.398 206.66 358.497 206.248 357.536 206.139C356.576 206.03 355.606 206.229 354.766 206.708C353.916 207.196 353.214 207.904 352.734 208.758C352.254 209.612 352.014 210.58 352.039 211.559C352.108 212.638 352.42 213.687 352.951 214.628C353.482 215.569 354.218 216.378 355.105 216.995C358.696 219.596 364.305 219.46 368.132 217.481C372.443 215.251 374.671 209.416 371.284 205.422C370.579 204.591 369.407 205.52 369.583 206.416C369.807 207.626 370.485 208.705 371.478 209.433C372.47 210.161 373.704 210.482 374.925 210.331C376.147 210.18 377.265 209.568 378.051 208.621C378.836 207.673 379.231 206.462 379.153 205.233L377.631 206.123C379.497 206.95 381.549 207.27 383.579 207.053C385.609 206.835 387.546 206.086 389.194 204.882C390.01 204.29 390.738 203.586 391.358 202.791C392.104 201.819 393.356 201.19 394.369 200.49L401.675 195.442C402.749 194.7 401.727 192.93 400.644 193.679L394.028 198.251C392.925 199.012 391.816 199.765 390.72 200.536C389.936 201.088 389.454 201.978 388.742 202.633C387.392 203.847 385.725 204.652 383.936 204.955C382.146 205.258 380.307 205.046 378.633 204.343C378.477 204.259 378.302 204.217 378.125 204.22C377.948 204.223 377.775 204.272 377.622 204.361C377.469 204.45 377.342 204.577 377.252 204.73C377.163 204.883 377.114 205.056 377.11 205.233C377.191 205.966 376.979 206.701 376.52 207.278C376.061 207.856 375.393 208.228 374.66 208.315C373.928 208.402 373.191 208.196 372.61 207.742C372.029 207.288 371.651 206.622 371.558 205.891L369.857 206.884C372.042 209.461 370.587 213.413 368.07 215.142C365.255 217.075 361.096 217.411 357.922 216.209C357.144 215.941 356.429 215.515 355.823 214.959C355.216 214.402 354.731 213.727 354.397 212.974C354.088 212.295 354 211.535 354.145 210.802C354.29 210.07 354.662 209.401 355.207 208.891C355.679 208.424 356.315 208.159 356.979 208.152C357.643 208.145 358.284 208.396 358.766 208.853C359.292 209.389 359.677 210.047 359.889 210.767C360.101 211.487 360.132 212.249 359.98 212.984C359.653 215.03 358.521 216.917 357.469 218.665C356.268 220.656 354.909 222.549 353.406 224.323C352.563 225.321 354.017 226.757 354.868 225.75L354.868 225.75Z" fill="#5B5FD4" stroke="#0F0F24"/>
<path d="M444.933 200.779L288.315 292.317C287.767 292.636 287.115 292.725 286.501 292.564C285.887 292.403 285.362 292.006 285.041 291.458L184.326 119.137C184.006 118.589 183.917 117.937 184.078 117.323C184.239 116.709 184.637 116.184 185.185 115.864L341.802 24.326C342.351 24.0065 343.003 23.9174 343.617 24.0784C344.231 24.2393 344.755 24.6372 345.076 25.1846L445.792 197.505C446.111 198.054 446.2 198.706 446.039 199.32C445.878 199.934 445.48 200.458 444.933 200.779Z" fill="white"/>
<path d="M444.933 200.779L288.315 292.317C287.767 292.636 287.115 292.725 286.501 292.564C285.887 292.403 285.362 292.006 285.041 291.458L184.326 119.137C184.006 118.589 183.917 117.937 184.078 117.323C184.239 116.709 184.637 116.184 185.185 115.864L341.802 24.326C342.351 24.0065 343.003 23.9174 343.617 24.0784C344.231 24.2393 344.755 24.6372 345.076 25.1846L445.792 197.505C446.111 198.054 446.2 198.706 446.039 199.32C445.878 199.934 445.48 200.458 444.933 200.779ZM185.668 116.69C185.339 116.882 185.1 117.197 185.004 117.566C184.907 117.934 184.961 118.325 185.153 118.654L285.868 290.975C286.06 291.304 286.375 291.542 286.744 291.639C287.112 291.735 287.503 291.682 287.832 291.49L444.45 199.953C444.779 199.76 445.017 199.445 445.114 199.077C445.21 198.709 445.157 198.317 444.965 197.988L344.25 25.6676C344.057 25.3392 343.742 25.1004 343.374 25.0039C343.006 24.9073 342.614 24.9607 342.285 25.1525L185.668 116.69Z" fill="#0F0F24" stroke="black"/>
<path d="M286.342 133.851L247.497 156.554C246.949 156.874 246.297 156.963 245.683 156.802C245.069 156.641 244.544 156.243 244.224 155.695L221.52 116.851C221.201 116.303 221.112 115.65 221.273 115.036C221.434 114.423 221.832 113.898 222.379 113.577L261.223 90.8739C261.772 90.5543 262.424 90.4653 263.038 90.6262C263.652 90.7872 264.176 91.185 264.497 91.7325L287.2 130.577C287.52 131.125 287.609 131.778 287.448 132.391C287.287 133.005 286.889 133.53 286.342 133.851ZM222.862 114.404C222.534 114.596 222.295 114.911 222.198 115.279C222.102 115.647 222.155 116.039 222.347 116.368L245.05 155.212C245.243 155.541 245.557 155.78 245.926 155.876C246.294 155.973 246.685 155.919 247.014 155.728L285.859 133.024C286.187 132.832 286.426 132.517 286.523 132.149C286.619 131.78 286.566 131.389 286.374 131.06L263.671 92.2155C263.478 91.887 263.163 91.6483 262.795 91.5517C262.427 91.4552 262.035 91.5086 261.707 91.7004L222.862 114.404Z" fill="#F2F2F2"/>
<path d="M277.962 145.124L239.117 167.827C238.624 168.115 238.037 168.195 237.484 168.05C236.932 167.905 236.46 167.547 236.171 167.055L213.468 128.21C213.18 127.717 213.1 127.129 213.245 126.577C213.39 126.025 213.748 125.552 214.24 125.264L253.085 102.56C253.578 102.273 254.166 102.193 254.718 102.338C255.27 102.482 255.743 102.84 256.031 103.333L278.735 142.178C279.022 142.671 279.102 143.258 278.958 143.811C278.813 144.363 278.455 144.835 277.962 145.124Z" fill="#5B5FD4"/>
<path d="M371.72 115.828L250.228 186.836C249.734 187.124 249.147 187.205 248.594 187.06C248.042 186.915 247.569 186.557 247.281 186.063C246.993 185.57 246.912 184.983 247.057 184.43C247.202 183.878 247.561 183.405 248.054 183.117L369.546 112.109C369.79 111.966 370.06 111.873 370.341 111.835C370.621 111.796 370.906 111.813 371.18 111.885C371.453 111.957 371.71 112.082 371.935 112.253C372.161 112.424 372.35 112.638 372.493 112.882C372.635 113.126 372.729 113.396 372.767 113.676C372.805 113.956 372.788 114.241 372.717 114.515C372.645 114.789 372.52 115.045 372.349 115.271C372.178 115.496 371.964 115.685 371.72 115.828Z" fill="#CCCCCC"/>
<path d="M349.867 145.787L257.715 199.647C257.471 199.789 257.201 199.883 256.921 199.921C256.64 199.959 256.355 199.942 256.082 199.871C255.529 199.726 255.057 199.367 254.768 198.874C254.48 198.381 254.4 197.793 254.545 197.241C254.689 196.688 255.048 196.216 255.541 195.928L347.694 142.068C347.938 141.925 348.208 141.832 348.488 141.793C348.768 141.755 349.053 141.772 349.327 141.844C349.6 141.916 349.857 142.041 350.083 142.212C350.308 142.383 350.497 142.596 350.64 142.84C350.783 143.085 350.876 143.355 350.914 143.635C350.953 143.915 350.936 144.2 350.864 144.474C350.792 144.747 350.667 145.004 350.496 145.229C350.325 145.455 350.111 145.644 349.867 145.787V145.787Z" fill="#CCCCCC"/>
<path d="M343.773 68.9606L290.052 100.359C289.559 100.647 288.972 100.728 288.419 100.583C287.866 100.438 287.394 100.079 287.106 99.586C286.818 99.0928 286.737 98.5053 286.882 97.9527C287.027 97.4002 287.385 96.9278 287.879 96.6396L341.6 65.2415C342.093 64.9532 342.68 64.8727 343.233 65.0176C343.507 65.0894 343.763 65.2143 343.989 65.3853C344.214 65.5563 344.403 65.77 344.546 66.0142C344.689 66.2584 344.782 66.5283 344.821 66.8086C344.859 67.0888 344.842 67.3738 344.77 67.6474C344.698 67.921 344.573 68.1778 344.402 68.4031C344.231 68.6285 344.018 68.8179 343.773 68.9606Z" fill="#CCCCCC"/>
<path d="M337.854 89.6069L297.54 113.169C297.295 113.312 297.025 113.405 296.745 113.443C296.465 113.482 296.18 113.465 295.906 113.393C295.633 113.321 295.376 113.196 295.151 113.025C294.925 112.854 294.736 112.641 294.593 112.396C294.45 112.152 294.357 111.882 294.319 111.602C294.28 111.322 294.298 111.037 294.369 110.763C294.441 110.489 294.566 110.233 294.737 110.007C294.908 109.782 295.122 109.593 295.366 109.45L335.68 85.8877C336.173 85.5995 336.761 85.5189 337.313 85.6638C337.866 85.8088 338.338 86.1672 338.626 86.6604C338.915 87.1536 338.995 87.7411 338.85 88.2937C338.705 88.8463 338.347 89.3186 337.854 89.6069Z" fill="#CCCCCC"/>
<path d="M386.695 141.449L265.202 212.457C264.709 212.746 264.122 212.826 263.569 212.681C263.016 212.536 262.544 212.178 262.256 211.685C261.968 211.191 261.887 210.604 262.032 210.051C262.177 209.499 262.535 209.026 263.028 208.738L384.521 137.73C385.014 137.442 385.602 137.361 386.154 137.506C386.707 137.651 387.179 138.01 387.467 138.503C387.756 138.996 387.836 139.584 387.691 140.136C387.546 140.689 387.188 141.161 386.695 141.449V141.449Z" fill="#CCCCCC"/>
<path d="M364.842 171.408L272.689 225.267C272.445 225.41 272.175 225.503 271.895 225.542C271.615 225.58 271.33 225.563 271.056 225.491C270.783 225.42 270.526 225.295 270.301 225.124C270.075 224.953 269.886 224.739 269.743 224.495C269.6 224.251 269.507 223.981 269.469 223.7C269.43 223.42 269.447 223.135 269.519 222.861C269.591 222.588 269.716 222.331 269.887 222.106C270.058 221.88 270.272 221.691 270.516 221.548L362.668 167.688C362.912 167.546 363.182 167.453 363.463 167.414C363.743 167.376 364.028 167.393 364.301 167.465C364.575 167.536 364.832 167.661 365.057 167.832C365.282 168.003 365.472 168.217 365.615 168.461C365.757 168.705 365.851 168.975 365.889 169.256C365.927 169.536 365.91 169.821 365.838 170.094C365.767 170.368 365.642 170.625 365.471 170.85C365.3 171.075 365.086 171.265 364.842 171.408V171.408Z" fill="#CCCCCC"/>
<path d="M401.669 167.07L280.177 238.078C279.933 238.221 279.663 238.314 279.382 238.352C279.102 238.391 278.817 238.374 278.544 238.302C278.27 238.23 278.013 238.105 277.788 237.934C277.563 237.763 277.373 237.549 277.23 237.305C277.088 237.061 276.994 236.791 276.956 236.511C276.918 236.231 276.935 235.946 277.006 235.672C277.078 235.398 277.203 235.142 277.374 234.916C277.545 234.691 277.759 234.502 278.003 234.359L399.496 163.351C399.74 163.208 400.01 163.115 400.29 163.076C400.57 163.038 400.855 163.055 401.129 163.127C401.402 163.199 401.659 163.324 401.884 163.495C402.11 163.666 402.299 163.879 402.442 164.124C402.585 164.368 402.678 164.638 402.716 164.918C402.755 165.198 402.738 165.483 402.666 165.757C402.594 166.03 402.469 166.287 402.298 166.513C402.127 166.738 401.913 166.927 401.669 167.07Z" fill="#CCCCCC"/>
<path d="M409.157 179.881L287.664 250.889C287.42 251.031 287.15 251.124 286.87 251.163C286.589 251.201 286.304 251.184 286.031 251.112C285.757 251.041 285.5 250.916 285.275 250.745C285.05 250.574 284.86 250.36 284.718 250.116C284.575 249.872 284.482 249.602 284.443 249.321C284.405 249.041 284.422 248.756 284.494 248.483C284.566 248.209 284.69 247.952 284.861 247.727C285.032 247.502 285.246 247.312 285.49 247.169L406.983 176.161C407.227 176.019 407.497 175.925 407.777 175.887C408.057 175.849 408.342 175.866 408.616 175.938C408.89 176.009 409.146 176.134 409.372 176.305C409.597 176.476 409.786 176.69 409.929 176.934C410.072 177.178 410.165 177.448 410.204 177.728C410.242 178.009 410.225 178.294 410.153 178.567C410.081 178.841 409.956 179.098 409.785 179.323C409.614 179.548 409.401 179.738 409.157 179.881Z" fill="#CCCCCC"/>
<path d="M369.868 229.75C371.556 227.762 373.075 225.637 374.41 223.397C375.608 221.376 376.782 219.216 377.046 216.845C377.181 215.836 377.076 214.809 376.739 213.848C376.402 212.887 375.844 212.019 375.108 211.315C374.398 210.66 373.497 210.248 372.536 210.139C371.576 210.03 370.606 210.229 369.766 210.708C368.916 211.196 368.214 211.904 367.734 212.758C367.254 213.612 367.014 214.58 367.039 215.559C367.108 216.638 367.42 217.687 367.951 218.628C368.482 219.569 369.218 220.378 370.105 220.995C373.696 223.596 379.305 223.46 383.132 221.481C387.443 219.251 389.671 213.416 386.284 209.422C385.579 208.591 384.407 209.52 384.583 210.416C384.807 211.626 385.485 212.705 386.478 213.433C387.47 214.161 388.704 214.482 389.925 214.331C391.147 214.18 392.265 213.568 393.051 212.621C393.836 211.673 394.231 210.462 394.153 209.233L392.631 210.123C394.497 210.95 396.549 211.27 398.579 211.053C400.609 210.835 402.546 210.086 404.194 208.882C405.01 208.29 405.738 207.586 406.358 206.791C407.104 205.819 408.356 205.19 409.369 204.49L416.675 199.442C417.749 198.7 416.727 196.93 415.644 197.679L409.028 202.251C407.925 203.012 406.816 203.765 405.72 204.536C404.936 205.088 404.454 205.978 403.742 206.633C402.392 207.847 400.725 208.652 398.936 208.955C397.146 209.258 395.307 209.046 393.633 208.343C393.477 208.259 393.302 208.217 393.125 208.22C392.948 208.223 392.775 208.272 392.622 208.361C392.469 208.45 392.342 208.577 392.252 208.73C392.163 208.883 392.114 209.056 392.11 209.233C392.191 209.966 391.979 210.701 391.52 211.278C391.061 211.856 390.393 212.228 389.66 212.315C388.928 212.402 388.191 212.196 387.61 211.742C387.029 211.288 386.651 210.622 386.558 209.891L384.857 210.884C387.042 213.461 385.587 217.413 383.07 219.142C380.255 221.075 376.096 221.411 372.922 220.209C372.144 219.941 371.429 219.515 370.823 218.959C370.216 218.402 369.731 217.727 369.397 216.974C369.088 216.295 369 215.535 369.145 214.802C369.29 214.07 369.662 213.401 370.207 212.891C370.679 212.424 371.315 212.159 371.979 212.152C372.643 212.145 373.284 212.396 373.766 212.853C374.292 213.389 374.677 214.047 374.889 214.767C375.101 215.487 375.132 216.249 374.98 216.984C374.653 219.03 373.521 220.917 372.469 222.665C371.268 224.656 369.909 226.549 368.406 228.323C367.563 229.321 369.017 230.757 369.868 229.75L369.868 229.75Z" fill="#5B5FD4"/>
</g>
<defs>
<clipPath id="clip0">
<rect width="1440" height="4380" fill="white" transform="translate(-100 -874)"/>
</clipPath>
</defs>
</svg>
